<?xml version="1.0" encoding="utf-8"?>
<!-- Generator: Adobe Illustrator 12.0.1, SVG Export Plug-In . SVG Version: 6.00 Build 51448)  -->
<!DOCTYPE svg PUBLIC "-//W3C//DTD SVG 1.0//EN" "http://www.w3.org/TR/2001/REC-SVG-20010904/DTD/svg10.dtd" [
	<!ENTITY ns_svg "http://www.w3.org/2000/svg">
	<!ENTITY ns_xlink "http://www.w3.org/1999/xlink">
]>
<svg  version="1.0" id="Layer_1" xmlns="&ns_svg;" xmlns:xlink="&ns_xlink;" width="62" height="42" viewBox="0 0 62 42"
	 overflow="visible" enable-background="new 0 0 62 42" xml:space="preserve">
<g>
	<path fill="#199698" stroke="#199698" stroke-width="2" d="M61,35c0,3.314-2.686,6-6,6H7c-3.314,0-6-2.686-6-6V7
		c0-3.313,2.686-6,6-6h48c3.314,0,6,2.687,6,6V35z"/>
	<g>
		<g>
			<path fill="#FFFFFF" d="M6.873,21.256c1.453,0.715,2.18,2.104,2.18,4.166v5.203c0,1.359,0.258,2.183,0.773,2.47
				s1.424,0.431,2.725,0.431v2.689l-1.582,0.035c-1.793,0-3.1-0.387-3.92-1.16s-1.23-2.074-1.23-3.902V25.58
				c0-1.148-0.193-1.931-0.58-2.347s-0.867-0.688-1.441-0.817v-2.549c1.348-0.281,2.021-1.26,2.021-2.936v-5.889
				c0-1.711,0.413-2.941,1.239-3.691s2.165-1.125,4.017-1.125c0.316,0,0.809,0.012,1.477,0.035v2.689
				c-1.477,0-2.429,0.188-2.856,0.562s-0.642,1.131-0.642,2.268v5.344c0,0.727-0.108,1.468-0.325,2.224S7.892,20.74,6.873,21.256z"
				/>
		</g>
		<g>
			<path fill="#FFFFFF" d="M54.295,21.554c-1.453-0.703-2.18-2.092-2.18-4.166v-5.203c0-1.359-0.255-2.183-0.765-2.47
				s-1.421-0.431-2.733-0.431V6.595l1.564-0.035c1.852,0,3.173,0.404,3.964,1.213s1.187,2.092,1.187,3.85v5.607
				c0,1.137,0.19,1.916,0.571,2.338s0.87,0.697,1.468,0.826v2.549c-1.359,0.281-2.039,1.26-2.039,2.936v5.889
				c0,1.711-0.413,2.941-1.239,3.691s-2.159,1.125-3.999,1.125c-0.328,0-0.82-0.012-1.477-0.035v-2.689
				c1.477,0,2.429-0.188,2.856-0.562s0.642-1.131,0.642-2.268v-5.344c0-0.797,0.117-1.559,0.352-2.285S53.311,22.058,54.295,21.554z
				"/>
		</g>
		<g>
			<path fill="#FFFFFF" d="M28.159,26.188h-2.334v-6.143c0-1.276-0.566-1.914-1.699-1.914c-0.658,0-1.184,0.241-1.577,0.723
				c-0.394,0.482-0.591,1.201-0.591,2.158v5.176h-2.363v-6.143c0-1.295-0.531-1.943-1.592-1.943c-0.645,0-1.187,0.261-1.626,0.781
				c-0.439,0.521-0.659,1.23-0.659,2.129v5.176h-2.295v-9.863h2.158v2.1c0.703-1.536,1.8-2.305,3.291-2.305
				c1.452,0,2.396,0.769,2.832,2.305c0.794-1.536,1.891-2.305,3.291-2.305c0.95,0,1.715,0.296,2.295,0.889
				c0.579,0.593,0.869,1.328,0.869,2.207V26.188z"/>
			<path fill="#FFFFFF" d="M39.272,26.188h-2.119c-0.189-0.599-0.303-1.263-0.342-1.992c-0.593,1.465-1.706,2.197-3.34,2.197
				c-0.983,0-1.772-0.288-2.368-0.864s-0.894-1.3-0.894-2.173c0-2.266,1.989-3.398,5.967-3.398c0.156,0,0.367,0.003,0.635,0.01
				v-0.742c0-1.022-0.697-1.533-2.09-1.533c-1.354,0-2.123,0.511-2.305,1.533l-1.895-0.283c0.104-0.82,0.527-1.496,1.27-2.026
				c0.742-0.53,1.816-0.796,3.223-0.796c0.762,0,1.383,0.063,1.865,0.19c0.481,0.127,0.889,0.342,1.221,0.645
				s0.562,0.632,0.688,0.986c0.127,0.355,0.19,0.956,0.19,1.802v4.453C38.979,24.84,39.077,25.504,39.272,26.188z M36.811,21.168
				c-2.878,0-4.316,0.688-4.316,2.061c0,0.41,0.145,0.76,0.435,1.05c0.29,0.29,0.728,0.435,1.313,0.435
				c0.846,0,1.486-0.269,1.919-0.806s0.649-1.147,0.649-1.831V21.168z"/>
			<path fill="#FFFFFF" d="M49.135,26.188h-2.539l-2.09-3.594l-2.285,3.594h-1.914l3.281-5.078l-2.842-4.785h2.549l1.621,2.9
				l1.846-2.9h1.865l-2.783,4.277L49.135,26.188z"/>
		</g>
	</g>
</g>
</svg>
