<?xml version="1.0" encoding="utf-8"?>
<!-- Generator: Adobe Illustrator 12.0.1, SVG Export Plug-In . SVG Version: 6.00 Build 51448)  -->
<!DOCTYPE svg PUBLIC "-//W3C//DTD SVG 1.0//EN" "http://www.w3.org/TR/2001/REC-SVG-20010904/DTD/svg10.dtd" [
	<!ENTITY ns_svg "http://www.w3.org/2000/svg">
	<!ENTITY ns_xlink "http://www.w3.org/1999/xlink">
]>
<svg  version="1.0" id="Layer_1" xmlns="&ns_svg;" xmlns:xlink="&ns_xlink;" width="62" height="42" viewBox="0 0 62 42"
	 overflow="visible" enable-background="new 0 0 62 42" xml:space="preserve">
<path fill="#199698" stroke="#199698" stroke-width="2" d="M61,35c0,3.314-2.686,6-6,6H7c-3.314,0-6-2.686-6-6V7
	c0-3.312,2.686-6,6-6h48c3.314,0,6,2.688,6,6V35z"/>
<g>
	<path fill="#199698" stroke="#FFFFFF" stroke-width="2" d="M14.607,10.449v23.094c0,2.186,7.09,3.96,15.836,3.96
		c8.749,0,15.838-1.774,15.838-3.96V10.449H14.607z"/>
	<ellipse fill="#199698" stroke="#FFFFFF" stroke-width="2" cx="30.444" cy="9.914" rx="15.837" ry="3.959"/>
</g>
<g>
	
		<ellipse transform="matrix(0.9477 0.3193 -0.3193 0.9477 8.6052 -6.1849)" fill="#FFFFFF" cx="23.166" cy="23.153" rx="6.611" ry="6.532"/>
	
		<rect x="16.55" y="19.472" transform="matrix(0.9476 0.3194 -0.3194 0.9476 8.1901 -5.1816)" fill="#199698" width="6.691" height="5.823"/>
	<path fill="#FFFFFF" d="M43.898,30.139c-0.43,1.276-1.463,2.081-2.307,1.797L28.24,27.438c-0.844-0.285-1.179-1.55-0.749-2.826l0,0
		c0.431-1.277,1.462-2.082,2.307-1.798l13.353,4.498C43.994,27.596,44.329,28.861,43.898,30.139L43.898,30.139z"/>
</g>
</svg>
