<?xml version="1.0" encoding="utf-8"?>
<!-- Generator: Adobe Illustrator 11 Build 196, SVG Export Plug-In . SVG Version: 6.0.0 Build 78)  -->
<!DOCTYPE svg PUBLIC "-//W3C//DTD SVG 1.0//EN"    "http://www.w3.org/TR/2001/REC-SVG-20010904/DTD/svg10.dtd" [
	<!ENTITY ns_flows "http://ns.adobe.com/Flows/1.0/">
	<!ENTITY ns_svg "http://www.w3.org/2000/svg">
	<!ENTITY ns_xlink "http://www.w3.org/1999/xlink">
]>
<svg  xmlns="&ns_svg;" xmlns:xlink="&ns_xlink;" xmlns:a="http://ns.adobe.com/AdobeSVGViewerExtensions/3.0/"
	 width="68.319" height="48.607" viewBox="0 0 68.319 48.607" overflow="visible" enable-background="new 0 0 68.319 48.607"
	 xml:space="preserve">
		<g id="Layer_1">
			<g>
				<path fill="#199698" stroke="#199698" stroke-width="2" d="M67.319,35c0,3.312-2.633,6-5.883,6H14.369
					c-3.25,0-5.883-2.688-5.883-6V7c0-3.314,2.633-6,5.883-6h47.067c3.25,0,5.883,2.686,5.883,6V35z"/>
				<path fill="none" stroke="#FFFFFF" stroke-width="4" d="M62,40.607c0,3.312-2.686,6-6,6H8c-3.314,0-6-2.688-6-6V12.605
					c0-3.312,2.686-6,6-6h48c3.314,0,6,2.688,6,6V40.607z"/>
				<path fill="#199698" stroke="#199698" stroke-width="2" d="M62,40.607c0,3.312-2.686,6-6,6H8c-3.314,0-6-2.688-6-6V12.605
					c0-3.312,2.686-6,6-6h48c3.314,0,6,2.688,6,6V40.607z"/>
			</g>
			<g>
				<g>
					<path fill="#199698" stroke="#FFFFFF" stroke-width="2" d="M16.119,15.604v23.093c0,2.186,7.09,3.959,15.836,3.959
						c8.749,0,15.838-1.773,15.838-3.959V15.604H16.119z"/>
					<ellipse fill="#199698" stroke="#FFFFFF" stroke-width="2" cx="31.956" cy="15.069" rx="15.837" ry="3.959"/> 
				</g>
				<path fill="#FFFFFF" d="M35.127,34.837c-0.876,0.634-1.947,1.014-3.113,1.014c-2.957,0-5.355-2.397-5.355-5.354
					s2.399-5.355,5.355-5.355c2.885,0,5.23,2.283,5.343,5.141h-3.36l5.36,5.359l5.359-5.359h-3.58
					c-0.114-4.945-4.148-8.92-9.123-8.92c-5.045,0-9.135,4.09-9.135,9.135s4.09,9.135,9.135,9.135c2.213,0,4.236-0.795,5.814-2.108
					L35.127,34.837z"/>
			</g>
		</g>
	</svg>
