<?xml version="1.0" encoding="utf-8"?>
<!-- Generator: Adobe Illustrator 12.0.1, SVG Export Plug-In . SVG Version: 6.00 Build 51448)  -->
<!DOCTYPE svg PUBLIC "-//W3C//DTD SVG 1.0//EN" "http://www.w3.org/TR/2001/REC-SVG-20010904/DTD/svg10.dtd" [
	<!ENTITY ns_svg "http://www.w3.org/2000/svg">
	<!ENTITY ns_xlink "http://www.w3.org/1999/xlink">
]>
<svg  version="1.0" id="Layer_1" xmlns="&ns_svg;" xmlns:xlink="&ns_xlink;" width="68.518" height="48.607"
	 viewBox="0 0 68.518 48.607" overflow="visible" enable-background="new 0 0 68.518 48.607" xml:space="preserve">
<g>
	<path fill="#199698" stroke="#199698" stroke-width="2" d="M67.517,35.004c0,3.312-2.633,6-5.883,6H14.568
		c-3.25,0-5.883-2.688-5.883-6v-28c0-3.314,2.633-6,5.883-6h47.066c3.25,0,5.883,2.686,5.883,6V35.004z"/>
	<path fill="none" stroke="#FFFFFF" stroke-width="4" d="M62.199,40.611c0,3.312-2.686,6-6,6h-48c-3.314,0-6.001-2.688-6.001-6
		V12.609c0-3.312,2.687-6,6.001-6h48c3.314,0,6,2.688,6,6V40.611z"/>
	<path fill="#199698" stroke="#199698" stroke-width="2" d="M62.199,40.611c0,3.312-2.686,6-6,6h-48c-3.314,0-6.001-2.688-6.001-6
		V12.609c0-3.312,2.687-6,6.001-6h48c3.314,0,6,2.688,6,6V40.611z"/>
</g>
<path fill="#1B199A" d="M20,46.471c0,1.105-0.896,2-2,2H1.999c-1.104,0-2-0.895-2-2v-16c0-1.104,0.896-2,2-2H18c1.104,0,2,0.896,2,2
	V46.471z"/>
<g>
	<path fill="#FFFFFF" d="M14.671,44.042h-1.838v-8.753l-2.769,8.753H9.12l-2.783-8.753v8.753H4.864v-9.997h2.82l2.095,6.438
		l2.058-6.438h2.834V44.042z"/>
</g>
</svg>
