<?xml version="1.0" encoding="utf-8"?>
<!-- Generator: Adobe Illustrator 12.0.1, SVG Export Plug-In . SVG Version: 6.00 Build 51448)  -->
<!DOCTYPE svg PUBLIC "-//W3C//DTD SVG 1.0//EN" "http://www.w3.org/TR/2001/REC-SVG-20010904/DTD/svg10.dtd" [
	<!ENTITY ns_svg "http://www.w3.org/2000/svg">
	<!ENTITY ns_xlink "http://www.w3.org/1999/xlink">
]>
<svg  version="1.0" id="Layer_1" xmlns="&ns_svg;" xmlns:xlink="&ns_xlink;" width="64.199" height="44.002"
	 viewBox="0 0 64.199 44.002" overflow="visible" enable-background="new 0 0 64.199 44.002" xml:space="preserve">
<path fill="none" stroke="#FFFFFF" stroke-width="4" d="M62.199,36.002c0,3.312-2.686,6-6,6h-48c-3.314,0-6-2.688-6-6V8
	c0-3.312,2.686-6,6-6h48c3.314,0,6,2.688,6,6V36.002z"/>
<path fill="#199698" stroke="#199698" stroke-width="2" d="M62.199,36.002c0,3.312-2.686,6-6,6h-48c-3.314,0-6-2.688-6-6V8
	c0-3.312,2.686-6,6-6h48c3.314,0,6,2.688,6,6V36.002z"/>
<path fill="#1B199A" d="M20,41.861c0,1.105-0.895,2-2,2H2c-1.104,0-2-0.895-2-2v-16c0-1.104,0.896-2,2-2h16c1.105,0,2,0.896,2,2
	V41.861z"/>
<g>
	<path fill="#FFFFFF" d="M8.131,28.81c0.313,0.041,0.611,0.132,0.892,0.273c0.159-0.084,0.3-0.125,0.423-0.125
		c0.168,0,0.304,0.051,0.409,0.153s0.157,0.223,0.157,0.36c0,0.1-0.019,0.241-0.055,0.424l-0.103,0.452
		c-0.073,0.338-0.189,0.579-0.349,0.722c-0.16,0.145-0.345,0.217-0.555,0.217c-0.16,0-0.292-0.051-0.397-0.151
		s-0.157-0.222-0.157-0.363c0-0.05,0.004-0.121,0.014-0.212c-0.274-0.261-0.658-0.391-1.151-0.391c-0.562,0-0.984,0.109-1.268,0.328
		s-0.425,0.446-0.425,0.684c0,0.15,0.053,0.273,0.158,0.369c0.137,0.127,0.407,0.234,0.809,0.319l0.898,0.196
		c0.731,0.152,1.236,0.377,1.515,0.674c0.273,0.302,0.41,0.678,0.41,1.13c0,0.685-0.261,1.311-0.784,1.876
		c-0.522,0.566-1.242,0.934-2.159,1.104L6.16,38.036c-0.073,0.337-0.19,0.578-0.35,0.722s-0.348,0.216-0.562,0.216
		c-0.155,0-0.287-0.052-0.394-0.154s-0.161-0.223-0.161-0.359c0-0.091,0.021-0.232,0.062-0.424l0.253-1.188
		c-0.347-0.077-0.688-0.197-1.022-0.359c-0.228,0.161-0.429,0.242-0.602,0.242s-0.313-0.051-0.421-0.15
		C2.854,36.479,2.8,36.359,2.8,36.218c0-0.091,0.021-0.23,0.062-0.417l0.185-0.883c0.073-0.337,0.189-0.577,0.349-0.722
		c0.16-0.144,0.344-0.215,0.554-0.215c0.169,0,0.301,0.045,0.397,0.137c0.096,0.091,0.148,0.231,0.158,0.421
		c0.009,0.189,0.048,0.33,0.116,0.421c0.105,0.146,0.287,0.27,0.545,0.37c0.258,0.101,0.54,0.151,0.847,0.151
		c0.585,0,1.078-0.158,1.48-0.473c0.283-0.223,0.425-0.494,0.425-0.813c0-0.173-0.055-0.308-0.165-0.403
		c-0.155-0.146-0.445-0.262-0.87-0.349l-1.007-0.212c-0.621-0.128-1.066-0.342-1.336-0.643c-0.274-0.297-0.411-0.661-0.411-1.094
		c0-0.615,0.241-1.185,0.724-1.709c0.483-0.523,1.106-0.85,1.871-0.977l0.083-0.383c0.069-0.333,0.184-0.571,0.347-0.715
		s0.349-0.215,0.56-0.215c0.16,0,0.294,0.05,0.401,0.15c0.107,0.1,0.161,0.221,0.161,0.361c0,0.092-0.021,0.23-0.062,0.418
		L8.131,28.81z"/>
	<path fill="#FFFFFF" d="M17.022,41.427h-7.7c-0.31,0-0.521-0.049-0.633-0.144c-0.112-0.096-0.167-0.232-0.167-0.409
		c0-0.277,0.132-0.51,0.396-0.696c0.146-0.101,0.381-0.149,0.705-0.149h7.7c0.31,0,0.521,0.049,0.633,0.146s0.167,0.232,0.167,0.406
		c0,0.285-0.137,0.52-0.41,0.702C17.577,41.378,17.346,41.427,17.022,41.427z"/>
</g>
</svg>
