<?xml version="1.0" encoding="utf-8"?>
<!-- Generator: Adobe Illustrator 12.0.1, SVG Export Plug-In . SVG Version: 6.00 Build 51448)  -->
<!DOCTYPE svg PUBLIC "-//W3C//DTD SVG 1.0//EN" "http://www.w3.org/TR/2001/REC-SVG-20010904/DTD/svg10.dtd" [
	<!ENTITY ns_svg "http://www.w3.org/2000/svg">
	<!ENTITY ns_xlink "http://www.w3.org/1999/xlink">
]>
<svg  version="1.0" id="Layer_1" xmlns="&ns_svg;" xmlns:xlink="&ns_xlink;" width="62" height="42.001" viewBox="0 0 62 42.001"
	 overflow="visible" enable-background="new 0 0 62 42.001" xml:space="preserve">
<g>
	<path fill="#199698" stroke="#199698" stroke-width="2" d="M61,35.001c0,3.312-2.686,6-6,6H7c-3.312,0-6-2.688-6-6V7
		c0-3.314,2.688-6,6-6h48c3.314,0,6,2.686,6,6V35.001z"/>
	<path fill="none" stroke="#FFFFFF" stroke-width="1.132" d="M34.355,34.095c-0.268-0.668,0.845-1.73-0.358-1.697
		c-0.47,0.014-1.346,0.561-1.766,0.17c-0.538-0.501-0.931-1.143-1.357-1.735c-0.665-0.925-1.336-0.612-2.377-0.935
		c-0.593-0.184-1.073-0.286-1.71-0.188c-0.707,0.108-0.944,0.7-1.579,0.759c-0.718,0.064-1.396-0.229-2.133,0.021
		c-0.652,0.221-1.303,0.975-1.875,1.394c-0.444,0.326-0.803,0.937-1.288,1.185c-0.41,0.211-0.85,0.107-1.316,0.113
		c-1.083,0.021-2.271,0.134-3.189,0.766c-0.601,0.411-0.705,1.102-1.513,1.107c-0.738,0.005-1.536-0.559-1.967-1.12
		c-0.69-0.9,0.672-1.372,0.413-2.523c-0.162-0.718-0.88-1.047-1.122-1.716c-0.222-0.616-0.034-1.313-0.351-1.965
		c-0.36-0.743-1.31-1.051-1.739-1.792c-0.381-0.661-0.447-1.515-0.401-2.261c0.066-1.127-0.533-2.015-0.622-3.109
		c-0.049-0.61-0.021-0.907,0.521-1.177c0.845-0.417,1.522-0.439,2.146-1.309c0.494-0.687,0.9-0.862,1.677-1.064
		c0.836-0.218,1.479-0.658,2.239-1.104c0.484-0.285,1.465-0.168,1.826-0.588c0.228-0.267,0.227-1.096,0.301-1.438
		c0.217-0.964,0.514-2.115,1.359-2.725c0.365-0.263,1.013-0.281,1.276-0.549c0.265-0.271,0.208-0.641,0.601-0.944
		c0.548-0.424,0.686-1.02,1.213-1.358c0.313-0.201,1.278-0.499,1.634-0.5c0.518-0.004,0.66,0.335,0.995,0.626
		c0.266,0.23,0.709,0.483,1.07,0.475c0.676-0.011,0.434-0.18,0.614-0.605c0.279-0.654,0.789-1.164,1.152-1.769
		c0.243-0.412,0.384-0.914,0.732-1.258c0.888-0.876,2.294-0.922,3.461-0.898c0.64,0.013,1.277,0.073,1.915,0.109
		c0.735,0.042,0.863,0.41,1.156,0.978c0.459,0.89-0.062,1.684-0.392,2.506c-0.385,0.961,0.292,1.239,1.03,1.583
		c1.045,0.484,1.938,1.345,2.812,2.046c1.614,1.295,2.154-1.194,2.377-2.342c0.297-1.53,0.164-3.438,1.275-4.675
		c1.443-1.605,1.936,0.516,2.141,1.745c0.141,0.851,0.186,1.737,0.398,2.574c0.271,1.084,0.994,1.918,1.373,2.943
		c0.398,1.08,0.742,2.255,1.479,3.165c0.717,0.885,1.604,1.453,2.146,2.526c0.424,0.844,0.092,1.21,1.135,1.285
		c0.139,0.011,0.474,1.992,0.607,2.225c0.338,0.585,1.094,1.042,1.113,1.786c0.816-0.092,0.786,0.707,0.779,1.291
		c-0.008,0.766,0.188,1.715,0.046,2.451c-0.058,0.304-0.35,0.6-0.466,0.883c-0.287,0.701-0.474,1.438-0.756,2.141
		c-0.344,0.859-0.008,2.1-1.023,2.494c-0.655,0.256-1.006-0.058-1.444,0.609c-0.335,0.51-0.368,1.115-0.562,1.676
		c-0.369,1.067-0.896,1.984-1.187,3.078c-0.272,1.023-0.731,0.57-1.636,0.738c-0.686,0.129-1.236,0.539-1.83,0.871
		c-0.815,0.457-1.125-0.436-1.814-0.564c-0.5-0.092-0.609,0.281-1.033,0.406c-0.936,0.279-2.319-0.369-2.948-1.045
		c-0.461-0.496-1.104-1.002-1.316-1.672c-0.148-0.469,0.134-1.028-0.085-1.479c-0.229-0.471-1.374-1.265-1.787-0.619"/>
	<path fill="#FFFFFF" d="M34.13,24.142c-0.83,0.601-1.844,0.959-2.947,0.959c-2.798,0-5.069-2.268-5.069-5.068
		c0-2.799,2.271-5.069,5.069-5.069c2.731,0,4.951,2.162,5.059,4.866h-3.18l5.072,5.073l5.073-5.073h-3.389
		c-0.108-4.681-3.927-8.444-8.636-8.444c-4.775,0-8.647,3.872-8.647,8.647c0,4.777,3.872,8.648,8.647,8.648
		c2.096,0,4.01-0.754,5.504-1.997L34.13,24.142z"/>
</g>
<g>
	<path fill="#199698" stroke="#199698" stroke-width="2" d="M61,35.001c0,3.312-2.686,6-6,6H7c-3.312,0-6-2.688-6-6V7
		c0-3.314,2.688-6,6-6h48c3.314,0,6,2.686,6,6V35.001z"/>
	<path fill="none" stroke="#FFFFFF" stroke-width="1.132" d="M34.355,34.095c-0.268-0.668,0.845-1.73-0.358-1.697
		c-0.47,0.014-1.346,0.561-1.766,0.17c-0.538-0.501-0.931-1.143-1.357-1.735c-0.665-0.925-1.336-0.612-2.377-0.935
		c-0.593-0.184-1.073-0.286-1.71-0.188c-0.707,0.108-0.944,0.7-1.579,0.759c-0.718,0.064-1.396-0.229-2.133,0.021
		c-0.652,0.221-1.303,0.975-1.875,1.394c-0.444,0.326-0.803,0.937-1.288,1.185c-0.41,0.211-0.85,0.107-1.316,0.113
		c-1.083,0.021-2.271,0.134-3.189,0.766c-0.601,0.411-0.705,1.102-1.513,1.107c-0.738,0.005-1.536-0.559-1.967-1.12
		c-0.69-0.9,0.672-1.372,0.413-2.523c-0.162-0.718-0.88-1.047-1.122-1.716c-0.222-0.616-0.034-1.313-0.351-1.965
		c-0.36-0.743-1.31-1.051-1.739-1.792c-0.381-0.661-0.447-1.515-0.401-2.261c0.066-1.127-0.533-2.015-0.622-3.109
		c-0.049-0.61-0.021-0.907,0.521-1.177c0.845-0.417,1.522-0.439,2.146-1.309c0.494-0.687,0.9-0.862,1.677-1.064
		c0.836-0.218,1.479-0.658,2.239-1.104c0.484-0.285,1.465-0.168,1.826-0.588c0.228-0.267,0.227-1.096,0.301-1.438
		c0.217-0.964,0.514-2.115,1.359-2.725c0.365-0.263,1.013-0.281,1.276-0.549c0.265-0.271,0.208-0.641,0.601-0.944
		c0.548-0.424,0.686-1.02,1.213-1.358c0.313-0.201,1.278-0.499,1.634-0.5c0.518-0.004,0.66,0.335,0.995,0.626
		c0.266,0.23,0.709,0.483,1.07,0.475c0.676-0.011,0.434-0.18,0.614-0.605c0.279-0.654,0.789-1.164,1.152-1.769
		c0.243-0.412,0.384-0.914,0.732-1.258c0.888-0.876,2.294-0.922,3.461-0.898c0.64,0.013,1.277,0.073,1.915,0.109
		c0.735,0.042,0.863,0.41,1.156,0.978c0.459,0.89-0.062,1.684-0.392,2.506c-0.385,0.961,0.292,1.239,1.03,1.583
		c1.045,0.484,1.938,1.345,2.812,2.046c1.614,1.295,2.154-1.194,2.377-2.342c0.297-1.53,0.164-3.438,1.275-4.675
		c1.443-1.605,1.936,0.516,2.141,1.745c0.141,0.851,0.186,1.737,0.398,2.574c0.271,1.084,0.994,1.918,1.373,2.943
		c0.398,1.08,0.742,2.255,1.479,3.165c0.717,0.885,1.604,1.453,2.146,2.526c0.424,0.844,0.092,1.21,1.135,1.285
		c0.139,0.011,0.474,1.992,0.607,2.225c0.338,0.585,1.094,1.042,1.113,1.786c0.816-0.092,0.786,0.707,0.779,1.291
		c-0.008,0.766,0.188,1.715,0.046,2.451c-0.058,0.304-0.35,0.6-0.466,0.883c-0.287,0.701-0.474,1.438-0.756,2.141
		c-0.344,0.859-0.008,2.1-1.023,2.494c-0.655,0.256-1.006-0.058-1.444,0.609c-0.335,0.51-0.368,1.115-0.562,1.676
		c-0.369,1.067-0.896,1.984-1.187,3.078c-0.272,1.023-0.731,0.57-1.636,0.738c-0.686,0.129-1.236,0.539-1.83,0.871
		c-0.815,0.457-1.125-0.436-1.814-0.564c-0.5-0.092-0.609,0.281-1.033,0.406c-0.936,0.279-2.319-0.369-2.948-1.045
		c-0.461-0.496-1.104-1.002-1.316-1.672c-0.148-0.469,0.134-1.028-0.085-1.479c-0.229-0.471-1.374-1.265-1.787-0.619"/>
	<path fill="#FFFFFF" d="M34.13,24.142c-0.83,0.601-1.844,0.959-2.947,0.959c-2.798,0-5.069-2.268-5.069-5.068
		c0-2.799,2.271-5.069,5.069-5.069c2.731,0,4.951,2.162,5.059,4.866h-3.18l5.072,5.073l5.073-5.073h-3.389
		c-0.108-4.681-3.927-8.444-8.636-8.444c-4.775,0-8.647,3.872-8.647,8.647c0,4.777,3.872,8.648,8.647,8.648
		c2.096,0,4.01-0.754,5.504-1.997L34.13,24.142z"/>
</g>
</svg>
