<?xml version="1.0" encoding="utf-8"?>
<!-- Generator: Adobe Illustrator 12.0.1, SVG Export Plug-In . SVG Version: 6.00 Build 51448)  -->
<!DOCTYPE svg PUBLIC "-//W3C//DTD SVG 1.0//EN" "http://www.w3.org/TR/2001/REC-SVG-20010904/DTD/svg10.dtd" [
	<!ENTITY ns_svg "http://www.w3.org/2000/svg">
	<!ENTITY ns_xlink "http://www.w3.org/1999/xlink">
]>
<svg  version="1.0" id="Layer_1" xmlns="&ns_svg;" xmlns:xlink="&ns_xlink;" width="68.318" height="48.607"
	 viewBox="0 0 68.318 48.607" overflow="visible" enable-background="new 0 0 68.318 48.607" xml:space="preserve">
<g>
	<path fill="#199698" stroke="#199698" stroke-width="2" d="M67.317,35.004c0,3.312-2.633,6-5.883,6H14.368
		c-3.25,0-5.883-2.688-5.883-6v-28c0-3.314,2.633-6,5.883-6h47.066c3.25,0,5.883,2.686,5.883,6V35.004z"/>
	<path fill="none" stroke="#FFFFFF" stroke-width="4" d="M61.999,40.611c0,3.312-2.686,6-6,6h-48c-3.314,0-6-2.688-6-6V12.609
		c0-3.312,2.686-6,6-6h48c3.314,0,6,2.688,6,6V40.611z"/>
</g>
<g>
	<path fill="#199698" stroke="#199698" stroke-width="2" d="M61.711,40.58c0,3.312-2.686,6-6,6H7.71c-3.312,0-6-2.688-6-6v-28
		c0-3.314,2.688-6,6-6h48.001c3.314,0,6,2.686,6,6V40.58z"/>
	<line fill="none" stroke="#FFFFFF" stroke-width="4" x1="9.376" y1="12.779" x2="9.376" y2="40.779"/>
	<line fill="none" stroke="#FFFFFF" stroke-width="4" x1="54.045" y1="12.779" x2="54.045" y2="40.779"/>
	<path fill="#FFFFFF" d="M34.875,35.654c-0.211-0.53,0.67-1.371-0.284-1.346c-0.372,0.011-1.065,0.444-1.399,0.135
		c-0.428-0.397-0.738-0.906-1.077-1.377c-0.527-0.732-1.06-0.485-1.885-0.74c-0.47-0.145-0.851-0.227-1.356-0.15
		c-0.561,0.086-0.748,0.557-1.252,0.602c-0.57,0.053-1.106-0.181-1.691,0.018c-0.517,0.176-1.033,0.773-1.486,1.105
		c-0.354,0.258-0.637,0.743-1.021,0.939c-0.325,0.166-0.673,0.084-1.044,0.09c-0.859,0.016-1.801,0.105-2.529,0.606
		c-0.476,0.326-0.559,0.874-1.2,0.878c-0.585,0.004-1.216-0.442-1.559-0.889c-0.548-0.713,0.533-1.087,0.327-2
		c-0.129-0.569-0.698-0.83-0.89-1.359c-0.177-0.489-0.027-1.043-0.278-1.559c-0.285-0.59-1.039-0.835-1.379-1.422
		c-0.303-0.523-0.354-1.2-0.318-1.793c0.053-0.894-0.422-1.597-0.492-2.464c-0.039-0.485-0.018-0.72,0.412-0.933
		c0.669-0.332,1.207-0.35,1.701-1.039c0.392-0.545,0.713-0.684,1.33-0.844c0.662-0.173,1.172-0.521,1.775-0.875
		c0.385-0.227,1.162-0.135,1.447-0.467c0.182-0.211,0.18-0.868,0.24-1.141c0.171-0.764,0.406-1.676,1.076-2.159
		c0.289-0.209,0.804-0.224,1.012-0.436c0.21-0.214,0.164-0.509,0.477-0.749c0.435-0.336,0.544-0.809,0.962-1.077
		c0.248-0.159,1.013-0.396,1.296-0.397c0.41-0.002,0.523,0.266,0.789,0.498c0.209,0.182,0.562,0.383,0.848,0.377
		c0.537-0.01,0.344-0.144,0.488-0.48c0.221-0.52,0.625-0.924,0.912-1.403c0.193-0.325,0.306-0.725,0.582-0.997
		c0.703-0.695,1.818-0.73,2.744-0.712c0.508,0.01,1.013,0.057,1.519,0.086c0.583,0.034,0.685,0.325,0.917,0.775
		c0.363,0.706-0.05,1.335-0.311,1.987c-0.305,0.762,0.23,0.982,0.816,1.254c0.829,0.385,1.537,1.066,2.23,1.623
		c1.279,1.026,1.708-0.947,1.885-1.857c0.234-1.213,0.13-2.727,1.012-3.707c1.143-1.273,1.535,0.408,1.697,1.383
		c0.111,0.676,0.146,1.377,0.314,2.043c0.217,0.859,0.789,1.52,1.09,2.332c0.316,0.857,0.589,1.789,1.172,2.51
		c0.568,0.703,1.273,1.152,1.701,2.004c0.338,0.669,0.074,0.959,0.9,1.02c0.109,0.008,0.375,1.578,0.482,1.764
		c0.268,0.463,0.867,0.825,0.883,1.416c0.647-0.072,0.623,0.561,0.617,1.023c-0.006,0.607,0.15,1.359,0.037,1.943
		c-0.046,0.24-0.277,0.476-0.37,0.7c-0.228,0.556-0.375,1.14-0.599,1.697c-0.273,0.681-0.006,1.665-0.812,1.978
		c-0.52,0.202-0.798-0.047-1.146,0.482c-0.265,0.404-0.291,0.885-0.445,1.33c-0.293,0.846-0.709,1.574-0.94,2.44
		c-0.216,0.812-0.58,0.452-1.298,0.586c-0.542,0.103-0.98,0.427-1.45,0.69c-0.646,0.362-0.894-0.346-1.438-0.447
		c-0.396-0.074-0.484,0.222-0.819,0.321c-0.741,0.222-1.84-0.294-2.339-0.829c-0.365-0.393-0.875-0.793-1.043-1.324
		c-0.117-0.373,0.105-0.816-0.068-1.174c-0.181-0.372-1.088-1.003-1.416-0.49"/>
</g>
</svg>
