<?xml version="1.0" encoding="utf-8"?>
<!-- Generator: Adobe Illustrator 12.0.1, SVG Export Plug-In . SVG Version: 6.00 Build 51448)  -->
<!DOCTYPE svg PUBLIC "-//W3C//DTD SVG 1.0//EN" "http://www.w3.org/TR/2001/REC-SVG-20010904/DTD/svg10.dtd" [
	<!ENTITY ns_svg "http://www.w3.org/2000/svg">
	<!ENTITY ns_xlink "http://www.w3.org/1999/xlink">
]>
<svg  version="1.0" id="Layer_1" xmlns="&ns_svg;" xmlns:xlink="&ns_xlink;" width="68.318" height="48.608"
	 viewBox="0 0 68.318 48.608" overflow="visible" enable-background="new 0 0 68.318 48.608" xml:space="preserve">
<g>
	<path fill="#199698" stroke="#199698" stroke-width="2" d="M67.318,35c0,3.312-2.633,6-5.883,6H14.369c-3.25,0-5.883-2.688-5.883-6
		V7c0-3.314,2.633-6,5.883-6h47.066c3.25,0,5.883,2.686,5.883,6V35z"/>
	<path fill="none" stroke="#FFFFFF" stroke-width="4" d="M62,40.608c0,3.312-2.686,6-6,6H8c-3.314,0-6-2.688-6-6V12.606
		c0-3.312,2.686-6,6-6h48c3.314,0,6,2.688,6,6V40.608z"/>
	<path fill="#199698" stroke="#199698" stroke-width="2" d="M62,40.608c0,3.312-2.686,6-6,6H8c-3.314,0-6-2.688-6-6V12.606
		c0-3.312,2.686-6,6-6h48c3.314,0,6,2.688,6,6V40.608z"/>
</g>
<g>
	<path fill="#FFFFFF" d="M33.818,35.591h-3.555l-2.926-5.031l-3.199,5.031h-2.68l4.594-7.109l-3.979-6.699h3.568l2.27,4.061
		l2.584-4.061h2.611l-3.896,5.988L33.818,35.591z"/>
	<path fill="#FFFFFF" d="M42.021,30.232h-2.666v-1.846c0-0.62,0.125-1.107,0.376-1.463c0.25-0.355,0.8-0.861,1.647-1.518
		c1.294-0.993,1.941-2.046,1.941-3.158c0-0.838-0.253-1.504-0.759-1.996s-1.164-0.738-1.976-0.738c-1.878,0-2.985,1.299-3.322,3.896
		l-2.98-0.533c0.182-1.941,0.899-3.466,2.153-4.573c1.253-1.107,2.755-1.661,4.505-1.661c1.741,0,3.181,0.518,4.32,1.552
		c1.14,1.035,1.709,2.322,1.709,3.862c0,0.766-0.157,1.493-0.472,2.181c-0.314,0.688-0.672,1.222-1.073,1.6
		c-0.401,0.379-1.249,1.041-2.543,1.989c-0.364,0.265-0.597,0.522-0.697,0.772C42.085,28.849,42.03,29.393,42.021,30.232z
		 M42.568,32.173v3.418h-3.213v-3.418H42.568z"/>
</g>
</svg>
