<?xml version="1.0" encoding="utf-8"?>
<!-- Generator: Adobe Illustrator 12.0.1, SVG Export Plug-In . SVG Version: 6.00 Build 51448)  -->
<!DOCTYPE svg PUBLIC "-//W3C//DTD SVG 1.0//EN" "http://www.w3.org/TR/2001/REC-SVG-20010904/DTD/svg10.dtd" [
	<!ENTITY ns_svg "http://www.w3.org/2000/svg">
	<!ENTITY ns_xlink "http://www.w3.org/1999/xlink">
]>
<svg  version="1.0" id="Layer_1" xmlns="&ns_svg;" xmlns:xlink="&ns_xlink;" width="61.999" height="41.999"
	 viewBox="0 0 61.999 41.999" overflow="visible" enable-background="new 0 0 61.999 41.999" xml:space="preserve">
<path fill="#199698" stroke="#199698" stroke-width="2" d="M60.999,34.999c0,3.314-2.686,6-6,6H7c-3.314,0-6-2.686-6-6V7
	c0-3.313,2.686-6,6-6h47.999c3.314,0,6,2.687,6,6V34.999z"/>
<g>
	<path fill="#FFFFFF" d="M30.159,30.413h-3.555l-2.926-5.031l-3.199,5.031h-2.68l4.594-7.109l-3.979-6.699h3.568l2.27,4.061
		l2.584-4.061h2.611l-3.896,5.988L30.159,30.413z"/>
	<path fill="#FFFFFF" d="M38.362,25.054h-2.666v-1.846c0-0.619,0.125-1.107,0.375-1.463c0.251-0.355,0.801-0.861,1.648-1.518
		c1.293-0.993,1.941-2.046,1.941-3.158c0-0.838-0.254-1.504-0.76-1.996s-1.164-0.738-1.975-0.738c-1.879,0-2.986,1.299-3.322,3.896
		l-2.981-0.533c0.182-1.941,0.9-3.466,2.153-4.573c1.254-1.107,2.756-1.661,4.506-1.661c1.74,0,3.18,0.518,4.32,1.552
		c1.139,1.035,1.709,2.322,1.709,3.862c0,0.766-0.158,1.493-0.473,2.181c-0.314,0.688-0.672,1.222-1.072,1.6
		c-0.402,0.378-1.25,1.042-2.543,1.989c-0.365,0.265-0.598,0.521-0.697,0.772C38.425,23.671,38.37,24.216,38.362,25.054z
		 M38.909,26.995v3.418h-3.213v-3.418H38.909z"/>
</g>
</svg>
