<?xml version="1.0" encoding="utf-8"?>
<!-- Generator: Adobe Illustrator 12.0.1, SVG Export Plug-In . SVG Version: 6.00 Build 51448)  -->
<!DOCTYPE svg PUBLIC "-//W3C//DTD SVG 1.0//EN" "http://www.w3.org/TR/2001/REC-SVG-20010904/DTD/svg10.dtd" [
	<!ENTITY ns_svg "http://www.w3.org/2000/svg">
	<!ENTITY ns_xlink "http://www.w3.org/1999/xlink">
]>
<svg  version="1.0" id="Layer_1" xmlns="&ns_svg;" xmlns:xlink="&ns_xlink;" width="68.318" height="48.607"
	 viewBox="0 0 68.318 48.607" overflow="visible" enable-background="new 0 0 68.318 48.607" xml:space="preserve">
<g>
	<path fill="#199698" stroke="#199698" stroke-width="2" d="M67.318,35c0,3.312-2.633,6-5.883,6H14.369c-3.25,0-5.883-2.688-5.883-6
		V7c0-3.314,2.633-6,5.883-6h47.066c3.25,0,5.883,2.686,5.883,6V35z"/>
	<path fill="none" stroke="#FFFFFF" stroke-width="4" d="M62,40.607c0,3.312-2.686,6-6,6H8c-3.314,0-6-2.688-6-6V12.605
		c0-3.312,2.686-6,6-6h48c3.314,0,6,2.688,6,6V40.607z"/>
	<path fill="#199698" stroke="#199698" stroke-width="2" d="M62,40.607c0,3.312-2.686,6-6,6H8c-3.314,0-6-2.688-6-6V12.605
		c0-3.312,2.686-6,6-6h48c3.314,0,6,2.688,6,6V40.607z"/>
</g>
<g>
	<path fill="#FFFFFF" d="M20.213,32.961h-3.301l-2.717-4.672l-2.971,4.672H8.736l4.266-6.602l-3.694-6.221h3.313l2.107,3.771
		l2.399-3.771h2.425l-3.618,5.561L20.213,32.961z"/>
	<path fill="#FFFFFF" d="M31.564,23.486v1.959H21.187v-1.959H31.564z M31.564,26.553v1.958H21.187v-1.958H31.564z"/>
	<path fill="#FFFFFF" d="M43.879,23.486v1.959H33.502v-1.959H43.879z M43.879,26.553v1.958H33.502v-1.958H43.879z"/>
	<path fill="#FFFFFF" d="M56.154,20.139l-4.989,14.6c-0.305,0.896-0.722,1.594-1.251,2.088c-0.528,0.496-1.275,0.743-2.24,0.743
		c-0.381,0-0.936-0.03-1.663-0.089v-2.298l1.384,0.025c0.609,0,1.061-0.1,1.352-0.298c0.293-0.199,0.523-0.553,0.692-1.061
		s0.254-0.805,0.254-0.889c0-0.051-0.089-0.312-0.267-0.787l-4.405-12.035h3.034l3.11,8.455l2.679-8.455H56.154z"/>
</g>
</svg>
