<?xml version="1.0" encoding="utf-8"?>
<!-- Generator: Adobe Illustrator 12.0.1, SVG Export Plug-In . SVG Version: 6.00 Build 51448)  -->
<!DOCTYPE svg PUBLIC "-//W3C//DTD SVG 1.0//EN" "http://www.w3.org/TR/2001/REC-SVG-20010904/DTD/svg10.dtd" [
	<!ENTITY ns_svg "http://www.w3.org/2000/svg">
	<!ENTITY ns_xlink "http://www.w3.org/1999/xlink">
]>
<svg  version="1.0" id="Layer_1" xmlns="&ns_svg;" xmlns:xlink="&ns_xlink;" width="68.318" height="48.607"
	 viewBox="0 0 68.318 48.607" overflow="visible" enable-background="new 0 0 68.318 48.607" xml:space="preserve">
<g>
	<path fill="#199698" stroke="#199698" stroke-width="2" d="M67.318,35c0,3.312-2.633,6-5.883,6H14.369c-3.25,0-5.883-2.688-5.883-6
		V7c0-3.314,2.633-6,5.883-6h47.066c3.25,0,5.883,2.686,5.883,6V35z"/>
	<path fill="none" stroke="#FFFFFF" stroke-width="4" d="M62,40.607c0,3.312-2.686,6-6,6H8c-3.314,0-6-2.688-6-6V12.605
		c0-3.312,2.686-6,6-6h48c3.314,0,6,2.688,6,6V40.607z"/>
	<path fill="#199698" stroke="#199698" stroke-width="2" d="M62,40.607c0,3.312-2.686,6-6,6H8c-3.314,0-6-2.688-6-6V12.605
		c0-3.312,2.686-6,6-6h48c3.314,0,6,2.688,6,6V40.607z"/>
</g>
<g>
	<path fill="#FFFFFF" d="M16.894,33.461h-3.301l-2.717-4.672l-2.971,4.672H5.417l4.266-6.602l-3.694-6.221h3.313l2.107,3.771
		l2.399-3.771h2.425l-3.618,5.561L16.894,33.461z"/>
	<path fill="#FFFFFF" d="M25.394,23.326v1.909l-5.321,2.574l5.312,2.572l0.008,1.901l-7.363-3.669v-1.627L25.394,23.326z"/>
	<path fill="#FFFFFF" d="M36.052,25.791v1.586h-8.4v-1.586H36.052z M36.052,28.273v1.585h-8.4v-1.585H36.052z"/>
	<path fill="#FFFFFF" d="M38.302,32.282v-1.909L43.63,27.8l-5.32-2.581l-0.008-1.893l7.362,3.668v1.627L38.302,32.282z"/>
	<path fill="#FFFFFF" d="M58.113,20.639l-4.988,14.6c-0.305,0.896-0.723,1.594-1.251,2.088c-0.529,0.496-1.276,0.743-2.241,0.743
		c-0.381,0-0.935-0.03-1.662-0.089v-2.298l1.383,0.025c0.609,0,1.061-0.1,1.353-0.298c0.292-0.199,0.522-0.553,0.692-1.061
		c0.169-0.508,0.254-0.805,0.254-0.889c0-0.051-0.09-0.312-0.268-0.787L46.98,20.639h3.033l3.111,8.455l2.678-8.455H58.113z"/>
</g>
</svg>
