<?xml version="1.0" encoding="utf-8"?>
<!-- Generator: Adobe Illustrator 12.0.1, SVG Export Plug-In . SVG Version: 6.00 Build 51448)  -->
<!DOCTYPE svg PUBLIC "-//W3C//DTD SVG 1.0//EN" "http://www.w3.org/TR/2001/REC-SVG-20010904/DTD/svg10.dtd" [
	<!ENTITY ns_svg "http://www.w3.org/2000/svg">
	<!ENTITY ns_xlink "http://www.w3.org/1999/xlink">
]>
<svg  version="1.0" id="Layer_1" xmlns="&ns_svg;" xmlns:xlink="&ns_xlink;" width="62.002" height="42" viewBox="0 0 62.002 42"
	 overflow="visible" enable-background="new 0 0 62.002 42" xml:space="preserve">
<g>
	<path fill="#199698" stroke="#199698" stroke-width="2" d="M61.002,35c0,3.312-2.686,6-6,6H7c-3.312,0-6-2.688-6-6V7
		c0-3.314,2.688-6,6-6h48.002c3.314,0,6,2.686,6,6V35z"/>
	<g>
		<g>
			<path fill="#FFFFFF" d="M8.044,10.154H24.74l0.322,4.867H24.45c-0.322-1.225-0.87-3.385-4.061-3.385h-7.091l6.478,8.316
				l-7.605,8.863h9.443c2.062,0,3.255-0.451,4.222-3.578h0.645l-1.192,6.607H7.658l9.057-10.539L8.044,10.154z"/>
		</g>
		<g>
			<path fill="#FFFFFF" d="M36.897,23.039h-2.578V11.77h-3.544V9.709h9.667v2.061h-3.545V23.039z"/>
		</g>
		<g>
			<path fill="#FFFFFF" d="M49.317,33.706h-2.225V21.709h7.586v1.854h-5.361v3.278h4.219v1.802h-4.219V33.706z"/>
		</g>
		<line fill="none" stroke="#FFFFFF" stroke-width="1.7008" x1="49.333" y1="12.718" x2="34.833" y2="34.718"/>
	</g>
</g>
</svg>
