<?xml version="1.0" encoding="utf-8"?>
<!-- Generator: Adobe Illustrator 12.0.1, SVG Export Plug-In . SVG Version: 6.00 Build 51448)  -->
<!DOCTYPE svg PUBLIC "-//W3C//DTD SVG 1.0//EN" "http://www.w3.org/TR/2001/REC-SVG-20010904/DTD/svg10.dtd" [
	<!ENTITY ns_svg "http://www.w3.org/2000/svg">
	<!ENTITY ns_xlink "http://www.w3.org/1999/xlink">
]>
<svg  version="1.0" id="Layer_1" xmlns="&ns_svg;" xmlns:xlink="&ns_xlink;" width="68.318" height="48.614"
	 viewBox="0 0 68.318 48.614" overflow="visible" enable-background="new 0 0 68.318 48.614" xml:space="preserve">
<g>
	<path fill="#199698" stroke="#199698" stroke-width="2" d="M67.317,35.011c0,3.312-2.633,6-5.883,6H14.368
		c-3.25,0-5.883-2.688-5.883-6V7.007c0-3.315,2.633-6.003,5.883-6.003h47.066c3.25,0,5.883,2.688,5.883,6.003V35.011z"/>
	<path fill="none" stroke="#FFFFFF" stroke-width="4" d="M61.999,40.618c0,3.312-2.686,6-6,6h-48c-3.314,0-6-2.688-6-6V12.615
		c0-3.314,2.686-6.003,6-6.003h48c3.314,0,6,2.688,6,6.003V40.618z"/>
</g>
<g>
	<path fill="#199698" stroke="#199698" stroke-width="2" d="M62.023,40.478c0,3.314-2.686,6-6,6h-48c-3.314,0-6-2.686-6-6V12.477
		c0-3.315,2.686-6.003,6-6.003h48c3.314,0,6,2.688,6,6.003V40.478z"/>
	<g>
		<path fill="#FFFFFF" d="M39.047,36.642h-3.555l-2.925-5.031l-3.199,5.031h-2.68l4.594-7.109l-3.979-6.699h3.568l2.27,4.061
			l2.583-4.061h2.611l-3.896,5.988L39.047,36.642z"/>
	</g>
	<line fill="none" stroke="#FFFFFF" stroke-width="2.1291" x1="26.843" y1="19.3" x2="39.093" y2="19.3"/>
</g>
</svg>
