<?xml version="1.0" encoding="utf-8"?>
<!-- Generator: Adobe Illustrator 12.0.1, SVG Export Plug-In . SVG Version: 6.00 Build 51448)  -->
<!DOCTYPE svg PUBLIC "-//W3C//DTD SVG 1.0//EN" "http://www.w3.org/TR/2001/REC-SVG-20010904/DTD/svg10.dtd" [
	<!ENTITY ns_svg "http://www.w3.org/2000/svg">
	<!ENTITY ns_xlink "http://www.w3.org/1999/xlink">
]>
<svg  version="1.0" id="Layer_1" xmlns="&ns_svg;" xmlns:xlink="&ns_xlink;" width="62" height="42" viewBox="0 0 62 42"
	 overflow="visible" enable-background="new 0 0 62 42" xml:space="preserve">
<g>
	<path fill="#199698" stroke="#199698" stroke-width="2" d="M61,35c0,3.314-2.686,6-6,6H7c-3.314,0-6-2.686-6-6V7
		c0-3.312,2.686-6,6-6h48c3.314,0,6,2.688,6,6V35z"/>
	<g>
		<path fill="#FFFFFF" d="M23.278,28.379h-3.301l-2.717-4.672l-2.971,4.672h-2.488l4.266-6.602l-3.694-6.221h3.313l2.107,3.771
			l2.399-3.771h2.425L19,21.118L23.278,28.379z"/>
		<path fill="#FFFFFF" d="M27.009,22.354c-0.938,0-1.688-0.366-2.251-1.099c-0.563-0.732-0.845-1.626-0.845-2.681
			c0-1.035,0.283-1.902,0.85-2.603c0.566-0.7,1.325-1.05,2.275-1.05c1.061,0,1.847,0.368,2.358,1.104
			c0.511,0.736,0.767,1.576,0.767,2.52c0,1.172-0.306,2.1-0.918,2.783C28.633,22.012,27.888,22.354,27.009,22.354z M27.019,20.909
			c0.898,0,1.348-0.781,1.348-2.344c0-1.484-0.433-2.227-1.299-2.227c-0.879,0-1.318,0.739-1.318,2.217
			C25.749,20.125,26.172,20.909,27.019,20.909z M35.866,15.049l-8.252,13.33H26.14l8.281-13.33H35.866z M34.89,28.497
			c-0.879,0-1.606-0.34-2.183-1.021s-0.864-1.538-0.864-2.573c0-1.191,0.32-2.131,0.962-2.817s1.378-1.03,2.212-1.03
			c0.787,0,1.494,0.319,2.119,0.957c0.625,0.639,0.938,1.602,0.938,2.891c0,1.081-0.301,1.95-0.903,2.607
			C36.567,28.168,35.808,28.497,34.89,28.497z M34.968,27.081c0.462,0,0.799-0.223,1.011-0.669s0.317-0.958,0.317-1.538
			c0-0.84-0.103-1.44-0.308-1.802s-0.52-0.542-0.942-0.542c-0.925,0-1.387,0.759-1.387,2.275
			C33.659,26.323,34.095,27.081,34.968,27.081z"/>
		<path fill="#FFFFFF" d="M50.02,15.557l-4.989,14.6c-0.305,0.896-0.722,1.594-1.25,2.088c-0.529,0.496-1.276,0.743-2.241,0.743
			c-0.381,0-0.936-0.03-1.663-0.089v-2.298l1.384,0.025c0.609,0,1.06-0.1,1.353-0.298c0.291-0.199,0.521-0.553,0.691-1.061
			c0.169-0.508,0.254-0.805,0.254-0.889c0-0.051-0.089-0.312-0.267-0.787l-4.405-12.035h3.034l3.11,8.455l2.679-8.455H50.02z"/>
	</g>
</g>
</svg>
