<?xml version="1.0" encoding="utf-8"?>
<!-- Generator: Adobe Illustrator 12.0.1, SVG Export Plug-In . SVG Version: 6.00 Build 51448)  -->
<!DOCTYPE svg PUBLIC "-//W3C//DTD SVG 1.0//EN" "http://www.w3.org/TR/2001/REC-SVG-20010904/DTD/svg10.dtd" [
	<!ENTITY ns_svg "http://www.w3.org/2000/svg">
	<!ENTITY ns_xlink "http://www.w3.org/1999/xlink">
]>
<svg  version="1.0" id="Layer_1" xmlns="&ns_svg;" xmlns:xlink="&ns_xlink;" width="68.318" height="48.607"
	 viewBox="0 0 68.318 48.607" overflow="visible" enable-background="new 0 0 68.318 48.607" xml:space="preserve">
<g>
	<path fill="#199698" stroke="#199698" stroke-width="2" d="M67.317,34.998c0,3.312-2.633,6-5.883,6H14.368
		c-3.25,0-5.883-2.688-5.883-6v-28c0-3.314,2.633-6,5.883-6h47.066c3.25,0,5.883,2.686,5.883,6V34.998z"/>
	<path fill="none" stroke="#FFFFFF" stroke-width="4" d="M61.999,40.605c0,3.312-2.686,6-6,6h-48c-3.314,0-6-2.688-6-6V12.604
		c0-3.312,2.686-6,6-6h48c3.314,0,6,2.688,6,6V40.605z"/>
	<path fill="#199698" stroke="#199698" stroke-width="2" d="M61.999,40.605c0,3.312-2.686,6-6,6h-48c-3.314,0-6-2.688-6-6V12.604
		c0-3.312,2.686-6,6-6h48c3.314,0,6,2.688,6,6V40.605z"/>
</g>
<g>
	<g>
		<path fill="#FFFFFF" d="M17.201,18.298L16.08,17.8c0.354-0.83,0.807-1.442,1.357-1.839c0.551-0.396,1.095-0.594,1.631-0.594
			c0.819,0,1.47,0.387,1.951,1.158c0.481,0.772,0.723,1.949,0.723,3.532c0,2.419-0.503,4.343-1.507,5.773
			c-1.005,1.431-2.193,2.146-3.565,2.146c-0.747,0-1.357-0.254-1.83-0.764c-0.474-0.509-0.71-1.217-0.71-2.125
			c0-1.428,0.545-2.611,1.636-3.553c1.09-0.94,2.764-1.428,5.021-1.461c-0.012-1.383-0.169-2.337-0.473-2.859
			c-0.305-0.523-0.715-0.785-1.229-0.785C18.293,16.43,17.666,17.053,17.201,18.298z M20.753,21.137
			c-1.361,0.066-2.363,0.26-3.005,0.581s-1.157,0.82-1.544,1.498c-0.388,0.679-0.581,1.349-0.581,2.013
			c0,0.487,0.147,0.873,0.444,1.158c0.296,0.285,0.618,0.428,0.967,0.428c0.797,0,1.568-0.469,2.316-1.407
			C20.097,24.47,20.565,23.046,20.753,21.137z"/>
		<path fill="#FFFFFF" d="M29.46,19.36l-3.262,9.546c-0.199,0.586-0.472,1.042-0.817,1.365c-0.347,0.324-0.835,0.486-1.466,0.486
			c-0.248,0-0.611-0.02-1.087-0.059v-1.502l0.905,0.016c0.398,0,0.692-0.064,0.884-0.194c0.19-0.13,0.341-0.361,0.452-0.693
			c0.11-0.332,0.166-0.526,0.166-0.581c0-0.033-0.059-0.205-0.174-0.515l-2.881-7.869h1.984l2.033,5.528l1.752-5.528H29.46z"/>
	</g>
	<g>
		<path fill="#FFFFFF" d="M37.198,26.962l-1.121-0.498c0.354-0.83,0.807-1.442,1.357-1.839c0.551-0.396,1.095-0.594,1.631-0.594
			c0.819,0,1.47,0.387,1.951,1.158c0.481,0.772,0.723,1.949,0.723,3.532c0,2.419-0.503,4.343-1.507,5.773
			c-1.005,1.431-2.193,2.146-3.565,2.146c-0.747,0-1.357-0.254-1.83-0.764c-0.473-0.509-0.709-1.217-0.709-2.125
			c0-1.428,0.545-2.611,1.635-3.553c1.09-0.94,2.764-1.428,5.021-1.461c-0.012-1.383-0.169-2.337-0.473-2.859
			c-0.305-0.523-0.715-0.785-1.229-0.785C38.291,25.094,37.663,25.717,37.198,26.962z M40.75,29.801
			c-1.361,0.066-2.363,0.26-3.005,0.581s-1.157,0.82-1.544,1.498c-0.388,0.679-0.581,1.349-0.581,2.013
			c0,0.487,0.147,0.873,0.444,1.158c0.296,0.285,0.618,0.428,0.967,0.428c0.797,0,1.568-0.469,2.316-1.407
			C40.094,33.134,40.562,31.71,40.75,29.801z"/>
		<path fill="#FFFFFF" d="M49.566,36.408h-2.158l-1.776-3.055l-1.942,3.055h-1.627l2.789-4.316l-2.415-4.067h2.166l1.378,2.466
			l1.569-2.466h1.585l-2.366,3.636L49.566,36.408z"/>
	</g>
	<line fill="none" stroke="#FFFFFF" x1="39.182" y1="16.156" x2="24.682" y2="38.156"/>
</g>
</svg>
