<?xml version="1.0" encoding="utf-8"?>
<!-- Generator: Adobe Illustrator 12.0.1, SVG Export Plug-In . SVG Version: 6.00 Build 51448)  -->
<!DOCTYPE svg PUBLIC "-//W3C//DTD SVG 1.0//EN" "http://www.w3.org/TR/2001/REC-SVG-20010904/DTD/svg10.dtd" [
	<!ENTITY ns_svg "http://www.w3.org/2000/svg">
	<!ENTITY ns_xlink "http://www.w3.org/1999/xlink">
]>
<svg  version="1.0" id="Layer_1" xmlns="&ns_svg;" xmlns:xlink="&ns_xlink;" width="68.318" height="48.607"
	 viewBox="0 0 68.318 48.607" overflow="visible" enable-background="new 0 0 68.318 48.607" xml:space="preserve">
<path fill="#199698" stroke="#199698" stroke-width="2" d="M67.317,34.998c0,3.312-2.633,6-5.883,6H14.368
	c-3.25,0-5.883-2.688-5.883-6v-28c0-3.314,2.633-6,5.883-6h47.066c3.25,0,5.883,2.686,5.883,6V34.998z"/>
<path fill="none" stroke="#FFFFFF" stroke-width="4" d="M61.999,40.605c0,3.312-2.686,6-6,6h-48c-3.314,0-6-2.688-6-6V12.604
	c0-3.312,2.686-6,6-6h48c3.314,0,6,2.688,6,6V40.605z"/>
<g>
	<path fill="#199698" stroke="#199698" stroke-width="2" d="M61.678,40.812c0,3.312-2.686,6-6,6H7.676c-3.314,0-6-2.688-6-6V12.81
		c0-3.312,2.686-6,6-6h48.002c3.314,0,6,2.688,6,6V40.812z"/>
	<g>
		<path fill="#FFFFFF" d="M31.507,15.617h0.549c0.643,1.48,2.014,3.137,4.113,4.968v0.977c-1.391-0.562-2.656-1.354-3.795-2.38
			v15.941c1.14-1.025,2.405-1.814,3.795-2.367v0.964c-2.099,1.831-3.47,3.487-4.113,4.968h-0.549
			c-0.644-1.48-2.015-3.137-4.114-4.968v-0.964c1.392,0.553,2.657,1.342,3.796,2.367V19.182c-1.139,1.025-2.404,1.818-3.796,2.38
			v-0.977C29.492,18.754,30.863,17.098,31.507,15.617z"/>
	</g>
	<g>
		<line fill="none" stroke="#FFFFFF" stroke-width="2.1291" x1="25.502" y1="13.217" x2="37.752" y2="13.217"/>
		<line fill="none" stroke="#FFFFFF" stroke-width="2.1291" x1="25.652" y1="40.885" x2="37.902" y2="40.885"/>
	</g>
</g>
</svg>
