<?xml version="1.0" encoding="utf-8"?>
<!-- Generator: Adobe Illustrator 12.0.1, SVG Export Plug-In . SVG Version: 6.00 Build 51448)  -->
<!DOCTYPE svg PUBLIC "-//W3C//DTD SVG 1.0//EN" "http://www.w3.org/TR/2001/REC-SVG-20010904/DTD/svg10.dtd" [
	<!ENTITY ns_svg "http://www.w3.org/2000/svg">
	<!ENTITY ns_xlink "http://www.w3.org/1999/xlink">
]>
<svg  version="1.0" id="Layer_1" xmlns="&ns_svg;" xmlns:xlink="&ns_xlink;" width="68.318" height="48.608"
	 viewBox="0 0 68.318 48.608" overflow="visible" enable-background="new 0 0 68.318 48.608" xml:space="preserve">
<g>
	<g>
		<path fill="#199698" stroke="#199698" stroke-width="2" d="M67.319,34.999c0,3.312-2.633,6-5.883,6H14.37
			c-3.25,0-5.883-2.688-5.883-6v-28c0-3.314,2.633-6,5.883-6h47.066c3.25,0,5.883,2.686,5.883,6V34.999z"/>
		<path fill="none" stroke="#FFFFFF" stroke-width="4" d="M62,40.606c0,3.312-2.686,6-6,6H8c-3.314,0-6-2.688-6-6V12.604
			c0-3.312,2.686-6,6-6h48c3.314,0,6,2.688,6,6V40.606z"/>
		<path fill="#199698" stroke="#199698" stroke-width="2" d="M62,40.606c0,3.312-2.686,6-6,6H8c-3.314,0-6-2.688-6-6V12.604
			c0-3.312,2.686-6,6-6h48c3.314,0,6,2.688,6,6V40.606z"/>
	</g>
	<g>
		<path fill="#FFFFFF" d="M25.17,31.21h-2.334v-6.143c0-1.276-0.566-1.914-1.699-1.914c-0.658,0-1.184,0.241-1.577,0.723
			c-0.394,0.482-0.591,1.201-0.591,2.158v5.176h-2.363v-6.143c0-1.295-0.531-1.943-1.592-1.943c-0.645,0-1.187,0.261-1.626,0.781
			c-0.439,0.521-0.659,1.23-0.659,2.129v5.176h-2.295v-9.863h2.158v2.1c0.703-1.536,1.8-2.305,3.291-2.305
			c1.452,0,2.396,0.769,2.832,2.305c0.794-1.536,1.891-2.305,3.291-2.305c0.95,0,1.715,0.296,2.295,0.889
			c0.579,0.593,0.869,1.328,0.869,2.207V31.21z"/>
		<path fill="#FFFFFF" d="M30.063,20.195h-2.227V17.88h2.227V20.195z M30.063,31.21h-2.227v-9.863h2.227V31.21z"/>
		<path fill="#FFFFFF" d="M40.903,31.21h-2.227v-6.162c0-0.651-0.15-1.141-0.449-1.47c-0.3-0.329-0.661-0.493-1.084-0.493
			c-0.58,0-1.088,0.254-1.523,0.762c-0.437,0.508-0.654,1.273-0.654,2.295v5.068h-2.227v-9.863h2.031v2.285
			c0.709-1.66,1.705-2.49,2.988-2.49c0.865,0,1.606,0.273,2.222,0.82s0.923,1.507,0.923,2.881V31.21z"/>
		<path fill="#FFFFFF" d="M47.553,34.541h-1.318c-2.24-2.448-3.359-5.283-3.359-8.506c0-1.758,0.374-3.395,1.123-4.912
			c0.748-1.517,1.494-2.598,2.236-3.242h1.318c-1.068,1.491-1.804,2.886-2.207,4.185c-0.404,1.299-0.605,2.69-0.605,4.175
			c0,1.504,0.255,2.98,0.767,4.429C46.018,32.117,46.7,33.408,47.553,34.541z"/>
		<path fill="#FFFFFF" d="M48.637,17.88h1.318c2.252,2.461,3.379,5.296,3.379,8.506c0,1.765-0.38,3.405-1.138,4.922
			c-0.759,1.517-1.506,2.595-2.241,3.232h-1.318c1.067-1.484,1.803-2.876,2.207-4.175c0.403-1.299,0.605-2.693,0.605-4.185
			C51.45,23.193,50.512,20.426,48.637,17.88z"/>
	</g>
</g>
</svg>
