<?xml version="1.0" encoding="utf-8"?>
<!-- Generator: Adobe Illustrator 12.0.1, SVG Export Plug-In . SVG Version: 6.00 Build 51448)  -->
<!DOCTYPE svg PUBLIC "-//W3C//DTD SVG 1.0//EN" "http://www.w3.org/TR/2001/REC-SVG-20010904/DTD/svg10.dtd" [
	<!ENTITY ns_svg "http://www.w3.org/2000/svg">
	<!ENTITY ns_xlink "http://www.w3.org/1999/xlink">
]>
<svg  version="1.0" id="Layer_1" xmlns="&ns_svg;" xmlns:xlink="&ns_xlink;" width="68.318" height="48.607"
	 viewBox="0 0 68.318 48.607" overflow="visible" enable-background="new 0 0 68.318 48.607" xml:space="preserve">
<g>
	<path fill="#199698" stroke="#199698" stroke-width="2" d="M67.318,35c0,3.312-2.633,6-5.883,6H14.369c-3.25,0-5.883-2.688-5.883-6
		V7c0-3.314,2.633-6,5.883-6h47.066c3.25,0,5.883,2.686,5.883,6V35z"/>
	<path fill="none" stroke="#FFFFFF" stroke-width="4" d="M62,40.607c0,3.312-2.686,6-6,6H8c-3.314,0-6-2.688-6-6V12.605
		c0-3.312,2.686-6,6-6h48c3.314,0,6,2.688,6,6V40.607z"/>
	<path fill="#199698" stroke="#199698" stroke-width="2" d="M62,40.607c0,3.312-2.686,6-6,6H8c-3.314,0-6-2.688-6-6V12.605
		c0-3.312,2.686-6,6-6h48c3.314,0,6,2.688,6,6V40.607z"/>
</g>
<g>
	<g>
		<path fill="#FFFFFF" d="M16.899,26.287h-2.158l-1.776-3.055l-1.942,3.055H9.396l2.789-4.316L9.77,17.903h2.166l1.378,2.466
			l1.569-2.466h1.585l-2.366,3.636L16.899,26.287z"/>
		<path fill="#FFFFFF" d="M25.008,20.537v1.399h-3.011v3.112h-1.392v-3.112h-3.01v-1.399h3.01v-3.119h1.392v3.119H25.008z"/>
		<path fill="#FFFFFF" d="M33.803,20.537v1.399h-3.01v3.112h-1.392v-3.112h-3.011v-1.399h3.011v-3.119h1.392v3.119H33.803z"/>
	</g>
	<g>
		<path fill="#FFFFFF" d="M44.564,36.285h-2.158L40.63,33.23l-1.942,3.055h-1.627l2.789-4.316l-2.415-4.067h2.166l1.378,2.466
			l1.569-2.466h1.585l-2.366,3.636L44.564,36.285z"/>
		<path fill="#FFFFFF" d="M48.69,31.197v1.552h-4.168v-1.552H48.69z"/>
		<path fill="#FFFFFF" d="M55.532,31.197v1.552h-4.166v-1.552H55.532z"/>
	</g>
	<line fill="none" stroke="#FFFFFF" x1="41.58" y1="16.032" x2="27.08" y2="38.032"/>
</g>
</svg>
