<?xml version="1.0" encoding="utf-8"?>
<!-- Generator: Adobe Illustrator 12.0.1, SVG Export Plug-In . SVG Version: 6.00 Build 51448)  -->
<!DOCTYPE svg PUBLIC "-//W3C//DTD SVG 1.0//EN" "http://www.w3.org/TR/2001/REC-SVG-20010904/DTD/svg10.dtd" [
	<!ENTITY ns_svg "http://www.w3.org/2000/svg">
	<!ENTITY ns_xlink "http://www.w3.org/1999/xlink">
]>
<svg  version="1.0" id="Layer_1" xmlns="&ns_svg;" xmlns:xlink="&ns_xlink;" width="62" height="42" viewBox="0 0 62 42"
	 overflow="visible" enable-background="new 0 0 62 42" xml:space="preserve">
<g>
	<path fill="#199698" stroke="#199698" stroke-width="2" d="M61,35c0,3.314-2.686,6-6,6H7c-3.314,0-6-2.686-6-6V7
		c0-3.312,2.686-6,6-6h48c3.314,0,6,2.688,6,6V35z"/>
	<g>
		<path fill="#FFFFFF" d="M24.633,26.271h-2.334v-6.143c0-1.276-0.566-1.914-1.699-1.914c-0.658,0-1.184,0.241-1.577,0.723
			c-0.394,0.482-0.591,1.201-0.591,2.158v5.176h-2.363v-6.143c0-1.295-0.531-1.943-1.592-1.943c-0.645,0-1.187,0.261-1.626,0.781
			c-0.439,0.521-0.659,1.23-0.659,2.129v5.176H9.896v-9.863h2.158v2.1c0.703-1.536,1.8-2.305,3.291-2.305
			c1.452,0,2.396,0.769,2.832,2.305c0.794-1.536,1.891-2.305,3.291-2.305c0.95,0,1.715,0.296,2.295,0.889
			c0.579,0.593,0.869,1.328,0.869,2.207V26.271z"/>
		<path fill="#FFFFFF" d="M29.525,15.256h-2.227v-2.314h2.227V15.256z M29.525,26.271h-2.227v-9.863h2.227V26.271z"/>
		<path fill="#FFFFFF" d="M40.365,26.271h-2.227v-6.162c0-0.651-0.15-1.141-0.449-1.47c-0.3-0.329-0.661-0.493-1.084-0.493
			c-0.58,0-1.088,0.254-1.523,0.762c-0.437,0.508-0.654,1.273-0.654,2.295v5.068h-2.227v-9.863h2.031v2.285
			c0.709-1.66,1.705-2.49,2.988-2.49c0.865,0,1.606,0.273,2.222,0.82s0.923,1.507,0.923,2.881V26.271z"/>
		<path fill="#FFFFFF" d="M47.016,29.602h-1.318c-2.24-2.448-3.359-5.283-3.359-8.506c0-1.758,0.374-3.395,1.123-4.912
			c0.748-1.517,1.494-2.598,2.236-3.242h1.318c-1.068,1.491-1.804,2.886-2.207,4.185c-0.404,1.299-0.605,2.69-0.605,4.175
			c0,1.504,0.256,2.98,0.767,4.429S46.162,28.469,47.016,29.602z"/>
		<path fill="#FFFFFF" d="M48.1,12.941h1.318c2.252,2.461,3.379,5.296,3.379,8.506c0,1.765-0.379,3.405-1.138,4.922
			s-1.506,2.594-2.241,3.232H48.1c1.067-1.484,1.803-2.876,2.207-4.175c0.403-1.299,0.605-2.693,0.605-4.185
			C50.912,18.254,49.975,15.487,48.1,12.941z"/>
	</g>
</g>
</svg>
