<?xml version="1.0" encoding="utf-8"?>
<!-- Generator: Adobe Illustrator 12.0.1, SVG Export Plug-In . SVG Version: 6.00 Build 51448)  -->
<!DOCTYPE svg PUBLIC "-//W3C//DTD SVG 1.0//EN" "http://www.w3.org/TR/2001/REC-SVG-20010904/DTD/svg10.dtd" [
	<!ENTITY ns_svg "http://www.w3.org/2000/svg">
	<!ENTITY ns_xlink "http://www.w3.org/1999/xlink">
]>
<svg  version="1.0" id="Layer_1" xmlns="&ns_svg;" xmlns:xlink="&ns_xlink;" width="68.318" height="48.608"
	 viewBox="0 0 68.318 48.608" overflow="visible" enable-background="new 0 0 68.318 48.608" xml:space="preserve">
<g>
	<g>
		<path fill="#199698" stroke="#199698" stroke-width="2" d="M67.319,34.999c0,3.312-2.633,6-5.883,6H14.37
			c-3.25,0-5.883-2.688-5.883-6v-28c0-3.314,2.633-6,5.883-6h47.066c3.25,0,5.883,2.686,5.883,6V34.999z"/>
		<path fill="none" stroke="#FFFFFF" stroke-width="4" d="M62,40.606c0,3.312-2.686,6-6,6H8c-3.314,0-6-2.688-6-6V12.604
			c0-3.312,2.686-6,6-6h48c3.314,0,6,2.688,6,6V40.606z"/>
		<path fill="#199698" stroke="#199698" stroke-width="2" d="M62,40.606c0,3.312-2.686,6-6,6H8c-3.314,0-6-2.688-6-6V12.604
			c0-3.312,2.686-6,6-6h48c3.314,0,6,2.688,6,6V40.606z"/>
	</g>
	<g>
		<path fill="#FFFFFF" d="M24.53,30.544h-2.334v-6.143c0-1.276-0.566-1.914-1.699-1.914c-0.658,0-1.184,0.241-1.577,0.723
			c-0.394,0.482-0.591,1.201-0.591,2.158v5.176h-2.363v-6.143c0-1.295-0.531-1.943-1.592-1.943c-0.645,0-1.187,0.261-1.626,0.781
			c-0.439,0.521-0.659,1.23-0.659,2.129v5.176H9.793v-9.863h2.158v2.1c0.703-1.536,1.8-2.305,3.291-2.305
			c1.452,0,2.396,0.769,2.832,2.305c0.794-1.536,1.891-2.305,3.291-2.305c0.95,0,1.715,0.296,2.295,0.889
			c0.579,0.593,0.869,1.328,0.869,2.207V30.544z"/>
		<path fill="#FFFFFF" d="M35.643,30.544h-2.119c-0.189-0.599-0.303-1.263-0.342-1.992c-0.593,1.465-1.706,2.197-3.34,2.197
			c-0.983,0-1.772-0.288-2.368-0.864s-0.894-1.3-0.894-2.173c0-2.266,1.989-3.398,5.967-3.398c0.156,0,0.368,0.003,0.635,0.01
			v-0.742c0-1.022-0.697-1.533-2.09-1.533c-1.354,0-2.123,0.511-2.305,1.533l-1.895-0.283c0.104-0.82,0.527-1.496,1.27-2.026
			c0.742-0.53,1.816-0.796,3.223-0.796c0.762,0,1.383,0.063,1.865,0.19c0.481,0.127,0.889,0.342,1.221,0.645
			s0.562,0.632,0.688,0.986c0.127,0.355,0.19,0.956,0.19,1.802v4.453C35.35,29.197,35.448,29.861,35.643,30.544z M33.182,25.525
			c-2.878,0-4.316,0.688-4.316,2.061c0,0.41,0.145,0.761,0.435,1.05c0.29,0.29,0.728,0.435,1.313,0.435
			c0.846,0,1.486-0.269,1.919-0.806c0.433-0.537,0.649-1.147,0.649-1.831V25.525z"/>
		<path fill="#FFFFFF" d="M45.506,30.544h-2.539l-2.09-3.594l-2.285,3.594h-1.914l3.281-5.078l-2.842-4.785h2.549l1.621,2.9
			l1.846-2.9h1.865l-2.783,4.277L45.506,30.544z"/>
		<path fill="#FFFFFF" d="M50.829,33.875H49.51c-2.24-2.448-3.359-5.283-3.359-8.506c0-1.758,0.374-3.395,1.123-4.912
			c0.748-1.517,1.494-2.598,2.236-3.242h1.318c-1.068,1.491-1.804,2.886-2.207,4.185c-0.404,1.299-0.605,2.69-0.605,4.175
			c0,1.504,0.255,2.98,0.767,4.429C49.293,31.451,49.975,32.742,50.829,33.875z"/>
		<path fill="#FFFFFF" d="M51.913,17.214h1.318c2.252,2.461,3.379,5.296,3.379,8.506c0,1.765-0.38,3.405-1.138,4.922
			c-0.759,1.517-1.506,2.595-2.241,3.232h-1.318c1.067-1.484,1.803-2.876,2.207-4.175c0.403-1.299,0.605-2.693,0.605-4.185
			C54.725,22.527,53.788,19.76,51.913,17.214z"/>
	</g>
</g>
</svg>
