<?xml version="1.0" encoding="utf-8"?>
<!-- Generator: Adobe Illustrator 11 Build 196, SVG Export Plug-In . SVG Version: 6.0.0 Build 78)  -->
<!DOCTYPE svg PUBLIC "-//W3C//DTD SVG 1.0//EN"    "http://www.w3.org/TR/2001/REC-SVG-20010904/DTD/svg10.dtd" [
	<!ENTITY ns_flows "http://ns.adobe.com/Flows/1.0/">
	<!ENTITY ns_svg "http://www.w3.org/2000/svg">
	<!ENTITY ns_xlink "http://www.w3.org/1999/xlink">
]>
<svg  xmlns="&ns_svg;" xmlns:xlink="&ns_xlink;" xmlns:a="http://ns.adobe.com/AdobeSVGViewerExtensions/3.0/"
	 width="63.146" height="42.862" viewBox="0 0 63.146 42.862" overflow="visible" enable-background="new 0 0 63.146 42.862"
	 xml:space="preserve">
		<g id="Layer_1">
			<path fill="#199698" stroke="#199698" stroke-width="2" d="M62.146,35c0,3.313-2.686,6-6,6h-48c-3.314,0-6-2.687-6-6V7
				c0-3.313,2.686-6,6-6h48c3.314,0,6,2.687,6,6V35z"/>
			<circle fill="#FFFFFF" cx="23.18" cy="14.031" r="5"/> 
			<circle fill="#FFFFFF" cx="16.186" cy="5.077" r="2.952"/> 
			<circle fill="#FFFFFF" cx="9.452" cy="17.182" r="2.952"/> 
			<circle fill="#FFFFFF" cx="34.684" cy="6.632" r="2.952"/> 
			<circle fill="#FFFFFF" cx="28.079" cy="24.168" r="2.952"/> 
			<line fill="none" stroke="#FFFFFF" stroke-width="2" x1="34.684" y1="6.632" x2="23.505" y2="13.474"/>
			<line fill="none" stroke="#FFFFFF" stroke-width="2" x1="28.079" y1="24.168" x2="23.18" y2="14.031"/>
			<path fill="#FFFFFF" d="M48.029,30.961c-0.876,0.634-1.947,1.014-3.113,1.014c-2.956,0-5.355-2.398-5.355-5.355
				c0-2.957,2.399-5.355,5.355-5.355c2.886,0,5.23,2.284,5.344,5.141H46.9l5.359,5.359l5.359-5.359h-3.58
				c-0.114-4.945-4.148-8.921-9.123-8.921c-5.044,0-9.135,4.09-9.135,9.135s4.09,9.135,9.135,9.135c2.214,0,4.236-0.795,5.814-2.107
				L48.029,30.961z"/>
			<line fill="none" stroke="#FFFFFF" stroke-width="2" x1="9.452" y1="17.182" x2="23.18" y2="14.031"/>
			<line fill="none" stroke="#FFFFFF" stroke-width="2" x1="16.186" y1="5.077" x2="23.18" y2="14.031"/>
			<path fill="#1B199A" d="M20,40.862c0,1.104-0.895,2-2,2H2c-1.104,0-2-0.896-2-2v-16c0-1.104,0.896-2,2-2h16c1.105,0,2,0.896,2,2
				V40.862z"/>
			<g>
				<ellipse fill="none" stroke="#FFFFFF" stroke-width="0.7" cx="10.122" cy="32.651" rx="6.879" ry="5.949"/> 
				<ellipse fill="none" stroke="#FFFFFF" stroke-width="0.7" cx="10.06" cy="32.623" rx="3.167" ry="5.967"/> 
				<line fill="none" stroke="#FFFFFF" stroke-width="0.7" x1="3.242" y1="32.651" x2="16.996" y2="32.651"/>
				<path fill="none" stroke="#FFFFFF" stroke-width="0.7" d="M15.42,28.857c-1.322,0.628-3.168,1.019-5.21,1.019
					c-2.156,0-4.093-0.435-5.426-1.126"/>
				<path fill="none" stroke="#FFFFFF" stroke-width="0.7" d="M4.808,36.429c1.327-0.648,3.203-1.053,5.282-1.053
					c2.103,0,3.997,0.413,5.326,1.074"/>
				<line fill="none" stroke="#FFFFFF" stroke-width="0.7" x1="9.921" y1="32.651" x2="9.921" y2="26.658"/>
				<line fill="none" stroke="#FFFFFF" stroke-width="0.7" x1="9.923" y1="38.653" x2="9.923" y2="32.66"/>
			</g>
		</g>
	</svg>
