<?xml version="1.0" encoding="utf-8"?>
<!-- Generator: Adobe Illustrator 11 Build 196, SVG Export Plug-In . SVG Version: 6.0.0 Build 78)  -->
<!DOCTYPE svg PUBLIC "-//W3C//DTD SVG 1.0//EN"    "http://www.w3.org/TR/2001/REC-SVG-20010904/DTD/svg10.dtd" [
	<!ENTITY ns_flows "http://ns.adobe.com/Flows/1.0/">
	<!ENTITY ns_svg "http://www.w3.org/2000/svg">
	<!ENTITY ns_xlink "http://www.w3.org/1999/xlink">
]>
<svg  xmlns="&ns_svg;" xmlns:xlink="&ns_xlink;" xmlns:a="http://ns.adobe.com/AdobeSVGViewerExtensions/3.0/"
	 width="62" height="42" viewBox="0 0 62 42" overflow="visible" enable-background="new 0 0 62 42" xml:space="preserve">
		<g id="Layer_1">
			<path fill="#199698" stroke="#199698" stroke-width="2" d="M61,35c0,3.313-2.686,6-6,6H7c-3.314,0-6-2.687-6-6V7
				c0-3.313,2.686-6,6-6h48c3.314,0,6,2.687,6,6V35z"/>
			<circle fill="#FFFFFF" cx="22.034" cy="14.031" r="5"/> 
			<circle fill="#FFFFFF" cx="15.041" cy="5.077" r="2.952"/> 
			<circle fill="#FFFFFF" cx="8.307" cy="17.182" r="2.952"/> 
			<circle fill="#FFFFFF" cx="33.538" cy="6.632" r="2.952"/> 
			<circle fill="#FFFFFF" cx="26.933" cy="24.168" r="2.952"/> 
			<line fill="none" stroke="#FFFFFF" stroke-width="2" x1="33.538" y1="6.632" x2="22.36" y2="13.474"/>
			<line fill="none" stroke="#FFFFFF" stroke-width="2" x1="26.933" y1="24.168" x2="22.034" y2="14.031"/>
			<path fill="#FFFFFF" d="M46.883,30.962c-0.876,0.634-1.947,1.014-3.113,1.014c-2.956,0-5.355-2.398-5.355-5.355
				s2.399-5.355,5.355-5.355c2.886,0,5.23,2.284,5.344,5.142h-3.359l5.359,5.359l5.359-5.359h-3.58
				c-0.114-4.945-4.148-8.921-9.123-8.921c-5.045,0-9.135,4.09-9.135,9.135s4.09,9.135,9.135,9.135c2.214,0,4.236-0.795,5.814-2.107
				L46.883,30.962z"/>
			<line fill="none" stroke="#FFFFFF" stroke-width="2" x1="8.307" y1="17.182" x2="22.034" y2="14.031"/>
			<line fill="none" stroke="#FFFFFF" stroke-width="2" x1="15.041" y1="5.077" x2="22.034" y2="14.031"/>
		</g>
	</svg>
