<?xml version="1.0" encoding="utf-8"?>
<!-- Generator: Adobe Illustrator 11 Build 196, SVG Export Plug-In . SVG Version: 6.0.0 Build 78)  -->
<!DOCTYPE svg PUBLIC "-//W3C//DTD SVG 1.0//EN"    "http://www.w3.org/TR/2001/REC-SVG-20010904/DTD/svg10.dtd" [
	<!ENTITY ns_flows "http://ns.adobe.com/Flows/1.0/">
	<!ENTITY ns_svg "http://www.w3.org/2000/svg">
	<!ENTITY ns_xlink "http://www.w3.org/1999/xlink">
]>
<svg  xmlns="&ns_svg;" xmlns:xlink="&ns_xlink;" xmlns:a="http://ns.adobe.com/AdobeSVGViewerExtensions/3.0/"
	 width="68.318" height="48.607" viewBox="0 0 68.318 48.607" overflow="visible" enable-background="new 0 0 68.318 48.607"
	 xml:space="preserve">
		<g id="Layer_1">
			<g>
				<path fill="#199698" stroke="#199698" stroke-width="2" d="M67.318,35c0,3.312-2.633,6-5.883,6H14.369
					c-3.25,0-5.883-2.688-5.883-6V7c0-3.314,2.633-6,5.883-6h47.066c3.25,0,5.883,2.686,5.883,6V35z"/>
				<path fill="none" stroke="#FFFFFF" stroke-width="4" d="M62,40.607c0,3.312-2.686,6-6,6H8c-3.314,0-6-2.688-6-6V12.605
					c0-3.312,2.686-6,6-6h48c3.314,0,6,2.688,6,6V40.607z"/>
				<path fill="#199698" stroke="#199698" stroke-width="2" d="M62,40.607c0,3.312-2.686,6-6,6H8c-3.314,0-6-2.688-6-6V12.605
					c0-3.312,2.686-6,6-6h48c3.314,0,6,2.688,6,6V40.607z"/>
			</g>
			<circle fill="#FFFFFF" cx="22.98" cy="19.69" r="5"/> 
			<circle fill="#FFFFFF" cx="15.987" cy="10.735" r="2.952"/> 
			<circle fill="#FFFFFF" cx="9.253" cy="22.84" r="2.952"/> 
			<circle fill="#FFFFFF" cx="34.484" cy="12.291" r="2.952"/> 
			<circle fill="#FFFFFF" cx="27.879" cy="29.827" r="2.952"/> 
			<line fill="none" stroke="#FFFFFF" stroke-width="2" x1="34.484" y1="12.291" x2="23.306" y2="19.133"/>
			<line fill="none" stroke="#FFFFFF" stroke-width="2" x1="27.879" y1="29.827" x2="22.98" y2="19.69"/>
			<path fill="#FFFFFF" d="M47.83,36.62c-0.876,0.634-1.947,1.014-3.113,1.014c-2.957,0-5.355-2.397-5.355-5.355
				c0-2.957,2.399-5.355,5.355-5.355c2.885,0,5.23,2.284,5.343,5.141H46.7l5.36,5.359l5.359-5.359h-3.58
				c-0.114-4.945-4.149-8.921-9.123-8.921c-5.045,0-9.135,4.09-9.135,9.135c0,5.045,4.09,9.135,9.135,9.135
				c2.213,0,4.235-0.795,5.814-2.107L47.83,36.62z"/>
			<line fill="none" stroke="#FFFFFF" stroke-width="2" x1="9.253" y1="22.84" x2="22.98" y2="19.69"/>
			<line fill="none" stroke="#FFFFFF" stroke-width="2" x1="15.987" y1="10.735" x2="22.98" y2="19.69"/>
		</g>
	</svg>
