<?xml version="1.0" encoding="utf-8"?>
<!-- Generator: Adobe Illustrator 11 Build 196, SVG Export Plug-In . SVG Version: 6.0.0 Build 78)  -->
<!DOCTYPE svg PUBLIC "-//W3C//DTD SVG 1.0//EN"    "http://www.w3.org/TR/2001/REC-SVG-20010904/DTD/svg10.dtd" [
	<!ENTITY ns_flows "http://ns.adobe.com/Flows/1.0/">
	<!ENTITY ns_svg "http://www.w3.org/2000/svg">
	<!ENTITY ns_xlink "http://www.w3.org/1999/xlink">
]>
<svg  xmlns="&ns_svg;" xmlns:xlink="&ns_xlink;" xmlns:a="http://ns.adobe.com/AdobeSVGViewerExtensions/3.0/"
	 width="68.517" height="48.609" viewBox="0 0 68.517 48.609" overflow="visible" enable-background="new 0 0 68.517 48.609"
	 xml:space="preserve">
		<g id="Layer_1">
			<path fill="#199698" d="M67.517,35.001c0,3.313-2.633,6-5.883,6H14.568c-3.25,0-5.883-2.687-5.883-6V7c0-3.314,2.633-6,5.883-6
				h47.066c3.25,0,5.883,2.686,5.883,6V35.001z"/>
			<path fill="none" stroke="#199698" stroke-width="2" d="M67.517,35.001c0,3.313-2.633,6-5.883,6H14.568
				c-3.25,0-5.883-2.687-5.883-6V7c0-3.314,2.633-6,5.883-6h47.066c3.25,0,5.883,2.686,5.883,6V35.001z"/>
			<path fill="none" stroke="#FFFFFF" stroke-width="4" d="M62.199,40.609c0,3.312-2.686,6-6,6h-48c-3.315,0-6-2.688-6-6V12.606
				c0-3.313,2.685-6,6-6h48c3.314,0,6,2.687,6,6V40.609z"/>
			<path fill="#199698" d="M62.199,40.609c0,3.312-2.686,6-6,6h-48c-3.315,0-6-2.688-6-6V12.606c0-3.313,2.685-6,6-6h48
				c3.314,0,6,2.687,6,6V40.609z"/>
			<path fill="none" stroke="#199698" stroke-width="2" d="M62.199,40.609c0,3.312-2.686,6-6,6h-48c-3.315,0-6-2.688-6-6V12.606
				c0-3.313,2.685-6,6-6h48c3.314,0,6,2.687,6,6V40.609z"/>
			<g id="XYPLOT_3_">
				<g>
					<line stroke="#FFFFFF" stroke-width="4" x1="10.147" y1="12.438" x2="10.147" y2="40.438"/>
					<line stroke="#FFFFFF" stroke-width="4" x1="54.815" y1="12.438" x2="54.815" y2="40.438"/>
				</g>
				<polyline fill="none" stroke="#FFFFFF" stroke-width="1.9694" points="17.731,13.214 17.731,39.665 17.891,39.712 
					48.069,39.712 "/>
				<polyline fill="none" stroke="#FFFFFF" stroke-width="3" points="17.627,34.844 24.877,29.094 29.794,33.094 34.461,22.094 
					41.127,25.428 46.627,17.844 "/>
			</g>
			<path fill="#1B199A" d="M20,46.468c0,1.105-0.895,2-2,2H2c-1.105,0-2-0.895-2-2v-16c0-1.104,0.895-2,2-2h16c1.105,0,2,0.896,2,2
				V46.468z"/>
			<g>
				<path fill="#FFFFFF" d="M13.63,43.683h-1.904l-1.553-4.109H7.639v4.109H5.837v-9.998h4.336c1.206,0,2.092,0.272,2.659,0.817
					c0.566,0.544,0.85,1.249,0.85,2.113c0,1.284-0.601,2.168-1.802,2.651L13.63,43.683z M7.639,38.131H9.88
					c0.649,0,1.133-0.137,1.45-0.41s0.476-0.649,0.476-1.128c0-0.439-0.156-0.795-0.469-1.065c-0.312-0.271-0.75-0.407-1.311-0.407
					H7.639V38.131z"/>
			</g>
		</g>
	</svg>
