<?xml version="1.0" encoding="utf-8"?>
<!-- Generator: Adobe Illustrator 11 Build 196, SVG Export Plug-In . SVG Version: 6.0.0 Build 78)  -->
<!DOCTYPE svg PUBLIC "-//W3C//DTD SVG 1.0//EN"    "http://www.w3.org/TR/2001/REC-SVG-20010904/DTD/svg10.dtd" [
	<!ENTITY ns_flows "http://ns.adobe.com/Flows/1.0/">
	<!ENTITY ns_svg "http://www.w3.org/2000/svg">
	<!ENTITY ns_xlink "http://www.w3.org/1999/xlink">
]>
<svg  xmlns="&ns_svg;" xmlns:xlink="&ns_xlink;" xmlns:a="http://ns.adobe.com/AdobeSVGViewerExtensions/3.0/"
	 width="68.46" height="48.607" viewBox="0 0 68.46 48.607" overflow="visible" enable-background="new 0 0 68.46 48.607"
	 xml:space="preserve">
		<g id="Layer_1">
			<g>
				<path fill="#199698" stroke="#199698" stroke-width="2" d="M67.46,35c0,3.312-2.633,6-5.883,6H14.511
					c-3.25,0-5.883-2.688-5.883-6V7c0-3.314,2.633-6,5.883-6h47.066c3.25,0,5.883,2.686,5.883,6V35z"/>
				<path fill="none" stroke="#FFFFFF" stroke-width="4" d="M62.142,40.607c0,3.312-2.686,6-6,6h-48c-3.314,0-6-2.688-6-6V12.605
					c0-3.312,2.686-6,6-6h48c3.314,0,6,2.688,6,6V40.607z"/>
				<path fill="#199698" stroke="#199698" stroke-width="2" d="M62.142,40.607c0,3.312-2.686,6-6,6h-48c-3.314,0-6-2.688-6-6V12.605
					c0-3.312,2.686-6,6-6h48c3.314,0,6,2.688,6,6V40.607z"/>
			</g>
			<path fill="#1B199A" d="M20,46.479c0,1.104-0.895,2-2,2H2c-1.104,0-2-0.896-2-2v-16c0-1.104,0.896-2,2-2h16c1.105,0,2,0.896,2,2
				V46.479z"/>
			<g>
				<g>
					<path fill="#FFFFFF" d="M41.583,18.399l-3.781,6.932c0.482,2.131,0.797,2.929,1.038,3.577c0.278,0.778,0.926,1.206,1.724,0.928
						c0.945-0.334,1.056-1.225,1.187-1.631h0.352c-0.055,0.538-0.296,2.465-1.315,3.058c-0.408,0.241-1.224,0.574-1.928-0.074
						c-0.426-0.389-0.667-0.871-0.853-1.538c-0.371-1.298-0.426-1.965-0.667-3.43h-0.038l-2.743,5.061h-1.891l4.059-7.432
						l-0.593-2.521c-0.13-0.538-0.316-1.168-0.834-1.539c-0.612-0.445-1.261-0.371-1.65,0.055c-0.5,0.52-0.556,1.057-0.667,1.484
						h-0.333c0.092-0.668,0.259-2.077,1-2.873c0.482-0.538,1.149-0.5,1.631-0.315c0.611,0.241,1.076,0.982,1.224,1.669l0.723,3.094
						l2.465-4.522L41.583,18.399z"/>
					<path fill="#FFFFFF" d="M48.085,22.279h-5.155v-0.157l2.02-2.164c1.286-1.364,2.007-2.716,2.007-3.818
						c0-0.616-0.289-1.797-1.797-1.797c-1.194,0-1.587,0.918-1.876,1.627l-0.275-0.065c0.394-1.981,1.626-2.611,2.78-2.611
						c1.377,0,2.349,0.892,2.349,2.479c0,1.391-1.286,2.887-3.857,5.51h3.109c0.512,0,0.761-0.039,1.272-0.865l0.17,0.064
						L48.085,22.279z"/>
				</g>
				<g>
					<path fill="#FFFFFF" d="M24.741,25.505v6.172c0,0.871,0.223,1.631,0.964,1.965c0.556,0.241,1.02,0.241,1.52,0.019
						c0.427-0.204,1.094-0.667,1.354-1.26v-6.896h1.594v7.118c0,0.482,0.148,1.02,0.426,1.298c0.296,0.297,0.612,0.352,0.983,0.147
						c0.5-0.296,0.444-0.852,0.574-1.167h0.37c-0.147,0.63-0.296,1.409-1.26,1.927c-0.889,0.482-1.649,0.186-1.91-0.018
						c-0.648-0.482-0.629-0.945-0.759-1.538c-0.167,0.241-0.427,0.648-1.298,1.278c-0.426,0.315-1.075,0.538-1.742,0.538
						c-0.871,0-1.482-0.705-1.742-0.89v0.426c0.056,1.094,0.371,1.428,0.557,2.465c0.203,1.223-0.353,1.816-0.854,1.816
						c-0.5,0-1.056-0.594-0.853-1.816c0.186-1.038,0.482-1.372,0.482-2.465v-9.12H24.741z"/>
					<path fill="#FFFFFF" d="M52.858,29.599h-4.022v0.036c1.001,0.316,2.335,1.762,2.724,2.67c0.297,0.667,0.39,1.501,0.057,2.502
						c-0.204,0.649-1.131,2.392-3.207,2.725c-0.63,0.093-1.909,0.408-3.3-0.445c-1.668-1-2.372-2.818-2.521-3.744
						c-0.259-1.687,0.241-2.466,0.667-3.151c0.537-0.853,1.687-1.428,2.113-1.613c0.704-0.315,1.687-0.574,2.688-0.574h4.8V29.599z
						 M47.853,29.599c-0.555,0-1.611-0.093-2.538,0.741c-0.89,0.815-0.909,2.206-0.871,2.632c0.129,1.65,0.871,2.799,1.594,3.374
						c0.482,0.371,1.038,0.779,2.242,0.445c0.798-0.242,1.242-1.113,1.427-1.65c0.353-1.039,0.278-2.428-0.092-3.299
						C49.263,30.988,48.817,30.433,47.853,29.599z"/>
				</g>
			</g>
			<g>
				<path fill="#FFFFFF" d="M13.688,43.483H11.91l-1.449-3.835H8.096v3.835H6.414v-9.331h4.047c1.125,0,1.953,0.254,2.481,0.762
					c0.528,0.508,0.793,1.166,0.793,1.972c0,1.199-0.561,2.023-1.682,2.475L13.688,43.483z M8.096,38.301h2.092
					c0.606,0,1.057-0.127,1.354-0.383c0.296-0.255,0.444-0.606,0.444-1.053c0-0.41-0.146-0.742-0.438-0.995
					c-0.292-0.253-0.7-0.379-1.224-0.379H8.096V38.301z"/>
			</g>
		</g>
	</svg>
