<?xml version="1.0" encoding="utf-8"?>
<!-- Generator: Adobe Illustrator 12.0.1, SVG Export Plug-In . SVG Version: 6.00 Build 51448)  -->
<!DOCTYPE svg PUBLIC "-//W3C//DTD SVG 1.0//EN" "http://www.w3.org/TR/2001/REC-SVG-20010904/DTD/svg10.dtd" [
	<!ENTITY ns_svg "http://www.w3.org/2000/svg">
	<!ENTITY ns_xlink "http://www.w3.org/1999/xlink">
]>
<svg  version="1.0" id="Layer_1" xmlns="&ns_svg;" xmlns:xlink="&ns_xlink;" width="68.318" height="48.607"
	 viewBox="0 0 68.318 48.607" overflow="visible" enable-background="new 0 0 68.318 48.607" xml:space="preserve">
<g>
	<g>
		<path fill="#199698" stroke="#199698" stroke-width="2" d="M67.317,35.004c0,3.312-2.633,6-5.883,6H14.368
			c-3.25,0-5.883-2.688-5.883-6v-28c0-3.314,2.633-6.001,5.883-6.001h47.066c3.25,0,5.883,2.687,5.883,6.001V35.004z"/>
		<path fill="none" stroke="#FFFFFF" stroke-width="4" d="M61.999,40.611c0,3.312-2.686,6-6,6h-48c-3.314,0-6-2.688-6-6V12.609
			c0-3.312,2.686-6,6-6h48c3.314,0,6,2.688,6,6V40.611z"/>
	</g>
	<g>
		<path fill="#199698" stroke="#199698" stroke-width="2" d="M61.63,40.971c0,3.314-2.686,6-6,6H7.629c-3.315,0-6.003-2.686-6.003-6
			v-28c0-3.312,2.688-6,6.003-6H55.63c3.314,0,6,2.688,6,6V40.971z"/>
		<g>
			<ellipse fill="#FFFFFF" cx="31.424" cy="26.976" rx="15.958" ry="15.833"/>
			<line fill="none" stroke="#199698" stroke-width="2" stroke-linecap="round" x1="31.124" y1="11.205" x2="31.124" y2="12.293"/>
			
				<line fill="none" stroke="#199698" stroke-width="2.0016" stroke-linecap="round" x1="46.04" y1="27.397" x2="47.54" y2="27.397"/>
			
				<line fill="none" stroke="#199698" stroke-width="2.0016" stroke-linecap="round" x1="15.29" y1="27.335" x2="16.79" y2="27.335"/>
			
				<line fill="none" stroke="#199698" stroke-width="2.0016" stroke-linecap="round" x1="31.167" y1="42.737" x2="31.167" y2="41.658"/>
			<g>
				
					<line fill="none" stroke="#199698" stroke-width="1.9828" stroke-linecap="round" x1="30.822" y1="28.206" x2="40.062" y2="20.68"/>
				
					<line fill="none" stroke="#199698" stroke-width="1.8211" stroke-linecap="round" x1="25.732" y1="22.601" x2="30.657" y2="27.505"/>
				<circle fill="none" stroke="#199698" stroke-width="1.9828" stroke-linecap="round" cx="31.155" cy="27.413" r="0.938"/>
			</g>
		</g>
	</g>
</g>
</svg>
