<?xml version="1.0" encoding="utf-8"?>
<!-- Generator: Adobe Illustrator 12.0.1, SVG Export Plug-In . SVG Version: 6.00 Build 51448)  -->
<!DOCTYPE svg PUBLIC "-//W3C//DTD SVG 1.0//EN" "http://www.w3.org/TR/2001/REC-SVG-20010904/DTD/svg10.dtd" [
	<!ENTITY ns_svg "http://www.w3.org/2000/svg">
	<!ENTITY ns_xlink "http://www.w3.org/1999/xlink">
]>
<svg  version="1.0" id="Layer_1" xmlns="&ns_svg;" xmlns:xlink="&ns_xlink;" width="68.318" height="48.607"
	 viewBox="0 0 68.318 48.607" overflow="visible" enable-background="new 0 0 68.318 48.607" xml:space="preserve">
<g>
	<path fill="#199698" stroke="#199698" stroke-width="2" d="M67.317,34.998c0,3.312-2.633,6-5.883,6H14.368
		c-3.25,0-5.883-2.688-5.883-6v-28c0-3.314,2.633-6,5.883-6h47.066c3.25,0,5.883,2.686,5.883,6V34.998z"/>
	<path fill="none" stroke="#FFFFFF" stroke-width="4" d="M61.999,40.605c0,3.312-2.686,6-6,6h-48c-3.314,0-6-2.688-6-6V12.604
		c0-3.312,2.686-6,6-6h48c3.314,0,6,2.688,6,6V40.605z"/>
</g>
<g>
	<path fill="#199698" stroke="#199698" stroke-width="2" d="M62.188,40.543c0,3.312-2.686,6-6,6H8.186c-3.312,0-6-2.688-6-6v-28
		c0-3.314,2.688-6,6-6h48.002c3.314,0,6,2.686,6,6V40.543z"/>
	<g>
		<line fill="none" stroke="#FFFFFF" x1="44.44" y1="18.898" x2="44.44" y2="42.67"/>
		<g>
			<line fill="none" stroke="#FFFFFF" x1="35.342" y1="10.514" x2="35.342" y2="20.202"/>
			<line fill="none" stroke="#FFFFFF" x1="34.85" y1="19.733" x2="44.276" y2="19.733"/>
			<line fill="none" stroke="#FFFFFF" x1="19.444" y1="42.504" x2="44.93" y2="42.504"/>
			<line fill="none" stroke="#FFFFFF" x1="19.745" y1="10.858" x2="35.692" y2="10.858"/>
			<g>
				<path fill="#FFFFFF" d="M32.64,33.986h-2.476v-1.714c0-0.576,0.116-1.028,0.35-1.358c0.232-0.33,0.742-0.8,1.529-1.409
					c1.201-0.923,1.803-1.9,1.803-2.933c0-0.779-0.234-1.396-0.705-1.854c-0.469-0.458-1.081-0.686-1.834-0.686
					c-1.744,0-2.771,1.207-3.085,3.619l-2.768-0.495c0.169-1.803,0.836-3.219,1.999-4.247c1.164-1.028,2.559-1.542,4.184-1.542
					c1.616,0,2.953,0.48,4.011,1.441c1.058,0.961,1.587,2.156,1.587,3.587c0,0.711-0.146,1.386-0.438,2.024
					c-0.291,0.64-0.624,1.135-0.996,1.485c-0.373,0.352-1.16,0.967-2.361,1.848c-0.339,0.245-0.555,0.484-0.647,0.717
					C32.699,32.702,32.648,33.207,32.64,33.986z M33.147,35.789v3.174h-2.983v-3.174H33.147z"/>
			</g>
			<line fill="none" stroke="#FFFFFF" x1="19.922" y1="10.352" x2="19.922" y2="42.961"/>
			<line fill="none" stroke="#FFFFFF" x1="35.362" y1="10.722" x2="44.594" y2="19.263"/>
		</g>
	</g>
</g>
</svg>
