<?xml version="1.0" encoding="utf-8"?>
<!-- Generator: Adobe Illustrator 12.0.1, SVG Export Plug-In . SVG Version: 6.00 Build 51448)  -->
<!DOCTYPE svg PUBLIC "-//W3C//DTD SVG 1.0//EN" "http://www.w3.org/TR/2001/REC-SVG-20010904/DTD/svg10.dtd" [
	<!ENTITY ns_svg "http://www.w3.org/2000/svg">
	<!ENTITY ns_xlink "http://www.w3.org/1999/xlink">
]>
<svg  version="1.0" id="Layer_1" xmlns="&ns_svg;" xmlns:xlink="&ns_xlink;" width="68.318" height="48.607"
	 viewBox="0 0 68.318 48.607" overflow="visible" enable-background="new 0 0 68.318 48.607" xml:space="preserve">
<g>
	<path fill="#199698" stroke="#199698" stroke-width="2" d="M67.317,35.004c0,3.312-2.633,6-5.883,6H14.368
		c-3.25,0-5.883-2.688-5.883-6v-28c0-3.314,2.633-6,5.883-6h47.066c3.25,0,5.883,2.686,5.883,6V35.004z"/>
	<path fill="none" stroke="#FFFFFF" stroke-width="4" d="M61.999,40.611c0,3.312-2.686,6-6,6h-48c-3.314,0-6-2.688-6-6V12.609
		c0-3.312,2.686-6,6-6h48c3.314,0,6,2.688,6,6V40.611z"/>
</g>
<path fill="#199698" stroke="#199698" stroke-width="2" d="M62.02,40.622c0,3.312-2.686,6-6,6H8.018c-3.312,0-6-2.688-6-6v-28
	c0-3.314,2.688-6,6-6H56.02c3.314,0,6,2.686,6,6V40.622z"/>
<g>
	<rect x="17.02" y="17.115" fill="#FFFFFF" width="30" height="19.015"/>
	<line fill="none" stroke="#199698" stroke-width="2.222" stroke-linecap="round" x1="17.393" y1="17.486" x2="32.44" y2="29.158"/>
	
		<line fill="none" stroke="#199698" stroke-width="2.1544" stroke-linecap="round" x1="32.502" y1="29.283" x2="47.02" y2="17.115"/>
</g>
</svg>
