<?xml version="1.0" encoding="utf-8"?>
<!-- Generator: Adobe Illustrator 12.0.1, SVG Export Plug-In . SVG Version: 6.00 Build 51448)  -->
<!DOCTYPE svg PUBLIC "-//W3C//DTD SVG 1.0//EN" "http://www.w3.org/TR/2001/REC-SVG-20010904/DTD/svg10.dtd" [
	<!ENTITY ns_svg "http://www.w3.org/2000/svg">
	<!ENTITY ns_xlink "http://www.w3.org/1999/xlink">
]>
<svg  version="1.0" id="Layer_1" xmlns="&ns_svg;" xmlns:xlink="&ns_xlink;" width="62" height="42.018" viewBox="0 0 62 42.018"
	 overflow="visible" enable-background="new 0 0 62 42.018" xml:space="preserve">
<g>
	<path fill="#199698" stroke="#199698" stroke-width="2" d="M61,35.016c0,3.316-2.686,6.002-6,6.002H7c-3.314,0-6-2.686-6-6.002
		V7.003C1,3.688,3.686,1,7,1h48c3.314,0,6,2.688,6,6.003V35.016z"/>
	<g>
		<g>
			<polyline fill="#FFFFFF" points="32.994,9.301 31.993,5.505 19.229,5.505 18.229,9.301 			"/>
			<path fill="#FFFFFF" d="M48.087,31.228c0,2.108-1.826,3.818-4.082,3.818H17.991c-2.254,0-4.08-1.71-4.08-3.818v-17.18
				c0-2.108,1.826-3.817,4.08-3.817h26.016c2.256,0,4.082,1.709,4.082,3.817v17.18H48.087z"/>
		</g>
		<g>
			<g>
				<path fill="#FFFFFF" stroke="#199698" stroke-width="1.2703" d="M25.186,22.56c-1.272,0-2.305-0.773-2.305-1.729v-6.19
					c0-0.956,1.033-1.729,2.305-1.729l0,0c1.272,0,2.303,0.772,2.303,1.729v6.19C27.489,21.786,26.458,22.56,25.186,22.56
					L25.186,22.56z"/>
				<rect x="22.403" y="11.569" fill="#199698" width="5.631" height="5.569"/>
				<rect x="23.311" y="12.358" fill="#FFFFFF" width="4.199" height="2.898"/>
			</g>
			<g>
				<line fill="none" stroke="#199698" stroke-width="1.0872" x1="25.331" y1="18.115" x2="25.331" y2="36.512"/>
				<rect x="23.326" y="34.726" fill="#199698" width="1.748" height="1.126"/>
				<rect x="25.608" y="33.598" fill="#199698" width="1.486" height="1.128"/>
				<rect x="23.326" y="30.328" fill="#199698" width="1.607" height="1.127"/>
				<rect x="23.326" y="32.583" fill="#199698" width="1.673" height="1.128"/>
				<rect x="25.516" y="31.455" fill="#199698" width="1.579" height="1.128"/>
				<rect x="25.516" y="29.239" fill="#199698" width="1.579" height="1.127"/>
				<rect x="23.326" y="28.073" fill="#199698" width="1.72" height="1.128"/>
				<rect x="25.516" y="26.946" fill="#199698" width="1.579" height="1.127"/>
				<rect x="23.326" y="25.819" fill="#199698" width="1.673" height="1.128"/>
				<rect x="25.516" y="24.617" fill="#199698" width="1.579" height="1.127"/>
				<rect x="23.326" y="23.545" fill="#199698" width="1.72" height="1.128"/>
			</g>
		</g>
	</g>
</g>
<rect x="55.359" y="37.304" fill="#199698" width="1.502" height="2.029"/>
</svg>
