<?xml version="1.0" encoding="utf-8"?>
<!-- Generator: Adobe Illustrator 12.0.1, SVG Export Plug-In . SVG Version: 6.00 Build 51448)  -->
<!DOCTYPE svg PUBLIC "-//W3C//DTD SVG 1.0//EN" "http://www.w3.org/TR/2001/REC-SVG-20010904/DTD/svg10.dtd" [
	<!ENTITY ns_svg "http://www.w3.org/2000/svg">
	<!ENTITY ns_xlink "http://www.w3.org/1999/xlink">
]>
<svg  version="1.0" id="Layer_1" xmlns="&ns_svg;" xmlns:xlink="&ns_xlink;" width="62" height="41.999" viewBox="0 0 62 41.999"
	 overflow="visible" enable-background="new 0 0 62 41.999" xml:space="preserve">
<g>
	<path fill="#199698" stroke="#199698" stroke-width="2" d="M61,34.999c0,3.314-2.686,6-6,6H7c-3.314,0-6-2.686-6-6V7
		c0-3.313,2.686-6,6-6h48c3.314,0,6,2.687,6,6V34.999z"/>
	<g>
		<g>
			<path fill="#FFFFFF" d="M7.747,21.505c1.453,0.715,2.18,2.104,2.18,4.166v5.203c0,1.359,0.258,2.183,0.773,2.47
				s1.424,0.431,2.725,0.431v2.689l-1.582,0.035c-1.793,0-3.1-0.387-3.92-1.16s-1.23-2.074-1.23-3.902v-5.607
				c0-1.148-0.193-1.931-0.58-2.347s-0.867-0.688-1.441-0.817v-2.549c1.348-0.281,2.021-1.26,2.021-2.936v-5.889
				c0-1.711,0.413-2.941,1.239-3.691s2.165-1.125,4.017-1.125c0.316,0,0.809,0.012,1.477,0.035V9.2
				c-1.477,0-2.429,0.188-2.856,0.562s-0.642,1.131-0.642,2.268v5.344c0,0.727-0.108,1.468-0.325,2.224S8.766,20.989,7.747,21.505z"
				/>
		</g>
		<g>
			<path fill="#FFFFFF" d="M54.253,21.47c-1.453-0.703-2.18-2.092-2.18-4.166v-5.203c0-1.359-0.255-2.183-0.765-2.47
				S49.888,9.2,48.575,9.2V6.511l1.564-0.035c1.852,0,3.173,0.404,3.964,1.213s1.187,2.092,1.187,3.85v5.607
				c0,1.137,0.19,1.916,0.571,2.338s0.87,0.697,1.468,0.826v2.549c-1.359,0.281-2.039,1.26-2.039,2.936v5.889
				c0,1.711-0.413,2.941-1.239,3.691s-2.159,1.125-3.999,1.125c-0.328,0-0.82-0.012-1.477-0.035v-2.689
				c1.477,0,2.429-0.188,2.856-0.562s0.642-1.131,0.642-2.268v-5.344c0-0.797,0.117-1.559,0.352-2.285S53.269,21.974,54.253,21.47z"
				/>
		</g>
	</g>
	<g>
		<path fill="#FFFFFF" d="M30.502,26.271h-2.334v-6.143c0-1.276-0.566-1.914-1.699-1.914c-0.658,0-1.184,0.241-1.577,0.723
			c-0.394,0.482-0.591,1.201-0.591,2.158v5.176h-2.363v-6.143c0-1.295-0.531-1.943-1.592-1.943c-0.645,0-1.187,0.261-1.626,0.781
			c-0.439,0.521-0.659,1.23-0.659,2.129v5.176h-2.295v-9.863h2.158v2.1c0.703-1.536,1.8-2.305,3.291-2.305
			c1.452,0,2.396,0.769,2.832,2.305c0.794-1.536,1.891-2.305,3.291-2.305c0.95,0,1.715,0.296,2.295,0.889
			c0.579,0.593,0.869,1.328,0.869,2.207V26.271z"/>
		<path fill="#FFFFFF" d="M35.395,15.255h-2.227V12.94h2.227V15.255z M35.395,26.271h-2.227v-9.863h2.227V26.271z"/>
		<path fill="#FFFFFF" d="M46.234,26.271h-2.227v-6.162c0-0.651-0.149-1.141-0.449-1.47c-0.3-0.329-0.661-0.493-1.084-0.493
			c-0.579,0-1.087,0.254-1.523,0.762s-0.654,1.273-0.654,2.295v5.068H38.07v-9.863h2.031v2.285c0.71-1.66,1.706-2.49,2.988-2.49
			c0.866,0,1.606,0.273,2.222,0.82s0.923,1.507,0.923,2.881V26.271z"/>
	</g>
</g>
</svg>
