<?xml version="1.0" encoding="utf-8"?>
<!-- Generator: Adobe Illustrator 12.0.1, SVG Export Plug-In . SVG Version: 6.00 Build 51448)  -->
<!DOCTYPE svg PUBLIC "-//W3C//DTD SVG 1.0//EN" "http://www.w3.org/TR/2001/REC-SVG-20010904/DTD/svg10.dtd" [
	<!ENTITY ns_svg "http://www.w3.org/2000/svg">
	<!ENTITY ns_xlink "http://www.w3.org/1999/xlink">
]>
<svg  version="1.0" id="Layer_1" xmlns="&ns_svg;" xmlns:xlink="&ns_xlink;" width="68.318" height="48.607"
	 viewBox="0 0 68.318 48.607" overflow="visible" enable-background="new 0 0 68.318 48.607" xml:space="preserve">
<g>
	<path fill="#199698" stroke="#199698" stroke-width="2" d="M67.318,34.999c0,3.312-2.633,6-5.883,6H14.37
		c-3.25,0-5.883-2.688-5.883-6v-28c0-3.314,2.633-6,5.883-6h47.066c3.25,0,5.883,2.686,5.883,6V34.999z"/>
	<path fill="none" stroke="#FFFFFF" stroke-width="4" d="M62,40.606c0,3.312-2.686,6-6,6H8c-3.314,0-6-2.688-6-6V12.604
		c0-3.312,2.686-6,6-6h48c3.314,0,6,2.688,6,6V40.606z"/>
</g>
<g>
	<g>
		<path fill="#199698" stroke="#199698" stroke-width="2" d="M61.984,40.581c0,3.314-2.686,6-6,6h-48c-3.314,0-6-2.686-6-6v-28
			c0-3.313,2.685-6,6-6h48c3.314,0,6,2.687,6,6V40.581z"/>
		<g>
			<g>
				<path fill="#FFFFFF" d="M8.527,27.089c1.453,0.715,2.18,2.104,2.18,4.166v5.203c0,1.359,0.258,2.183,0.773,2.47
					s1.424,0.431,2.725,0.431v2.689l-1.582,0.035c-1.793,0-3.1-0.387-3.92-1.16s-1.23-2.074-1.23-3.902v-5.607
					c0-1.148-0.193-1.931-0.58-2.347s-0.867-0.688-1.441-0.817V25.7c1.348-0.281,2.021-1.26,2.021-2.936v-5.889
					c0-1.711,0.413-2.941,1.239-3.691s2.165-1.125,4.017-1.125c0.316,0,0.809,0.012,1.477,0.035v2.689
					c-1.477,0-2.429,0.188-2.856,0.562s-0.642,1.131-0.642,2.268v5.344c0,0.727-0.108,1.468-0.325,2.224S9.546,26.573,8.527,27.089z
					"/>
			</g>
			<g>
				<path fill="#FFFFFF" d="M55.216,27.053c-1.453-0.703-2.18-2.092-2.18-4.166v-5.203c0-1.359-0.255-2.183-0.765-2.47
					s-1.421-0.431-2.733-0.431v-2.689l1.564-0.035c1.852,0,3.173,0.404,3.964,1.213s1.187,2.092,1.187,3.85v5.607
					c0,1.137,0.19,1.916,0.571,2.338s0.87,0.697,1.468,0.826v2.549c-1.359,0.281-2.039,1.26-2.039,2.936v5.889
					c0,1.711-0.413,2.941-1.239,3.691s-2.159,1.125-3.999,1.125c-0.328,0-0.82-0.012-1.477-0.035v-2.689
					c1.477,0,2.429-0.188,2.856-0.562s0.642-1.131,0.642-2.268v-5.344c0-0.797,0.117-1.559,0.352-2.285S54.231,27.557,55.216,27.053
					z"/>
			</g>
		</g>
	</g>
	<g>
		<path fill="#FFFFFF" d="M38.996,36.791h-3.554l-2.926-5.031l-3.199,5.031h-2.68l4.594-7.109l-3.979-6.699h3.568l2.27,4.061
			l2.584-4.061h2.611l-3.896,5.988L38.996,36.791z"/>
	</g>
	<line fill="none" stroke="#FFFFFF" stroke-width="2.1291" x1="26.805" y1="19.404" x2="39.055" y2="19.404"/>
</g>
</svg>
