<?xml version="1.0" encoding="utf-8"?>
<!-- Generator: Adobe Illustrator 11 Build 196, SVG Export Plug-In . SVG Version: 6.0.0 Build 78)  -->
<!DOCTYPE svg PUBLIC "-//W3C//DTD SVG 1.0//EN"    "http://www.w3.org/TR/2001/REC-SVG-20010904/DTD/svg10.dtd" [
	<!ENTITY ns_flows "http://ns.adobe.com/Flows/1.0/">
	<!ENTITY ns_svg "http://www.w3.org/2000/svg">
	<!ENTITY ns_xlink "http://www.w3.org/1999/xlink">
]>
<svg  xmlns="&ns_svg;" xmlns:xlink="&ns_xlink;" xmlns:a="http://ns.adobe.com/AdobeSVGViewerExtensions/3.0/"
	 width="39.121" height="44.915" viewBox="0 0 39.121 44.915" overflow="visible" enable-background="new 0 0 39.121 44.915"
	 xml:space="preserve">
		<g id="Layer_1">
			<line fill="none" stroke="#9A9B9B" stroke-linecap="round" x1="24.568" y1="32.249" x2="14.568" y2="22.333"/>
			<line fill="none" stroke="#9A9B9B" stroke-linecap="round" x1="14.568" y1="22.333" x2="24.485" y2="12.208"/>
			<line fill="none" stroke="#9A9B9B" stroke-linecap="round" x1="14.568" y1="22.333" x2="27.777" y2="16.833"/>
			<line fill="none" stroke="#9A9B9B" stroke-linecap="round" x1="14.568" y1="22.333" x2="28.902" y2="22.416"/>
			<line fill="none" stroke="#9A9B9B" stroke-linecap="round" x1="14.568" y1="22.333" x2="27.693" y2="27.749"/>
			<line fill="none" stroke="#199698" stroke-linecap="round" x1="19.443" y1="11.248" x2="19.443" y2="44.415"/>
			<g>
				<path fill="#199698" d="M26.73,44.583h-1.359v-7.332h4.636v1.133H26.73v2.003h2.578v1.101H26.73V44.583z"/>
			</g>
			<g>
				<path fill="#199698" d="M28.391,7.332h-1.418V1.133h-1.949V0h5.317v1.133h-1.95V7.332z"/>
			</g>
			<line fill="none" stroke="#000000" stroke-linecap="round" x1="2.568" y1="22.377" x2="14.568" y2="22.377"/>
			<g>
				<line fill="none" stroke="#000000" stroke-linecap="round" x1="24.652" y1="12.249" x2="35.735" y2="12.249"/>
				<line fill="none" stroke="#000000" stroke-linecap="round" x1="27.208" y1="12.249" x2="38.291" y2="12.249"/>
			</g>
			<g>
				<line fill="none" stroke="#000000" stroke-linecap="round" x1="24.568" y1="32.333" x2="35.735" y2="32.333"/>
				<line fill="none" stroke="#000000" stroke-linecap="round" x1="27.538" y1="32.333" x2="38.621" y2="32.333"/>
			</g>
			<line fill="none" stroke="#000000" stroke-linecap="round" x1="0.5" y1="22.377" x2="12.5" y2="22.377"/>
		</g>
	</svg>
