<?xml version="1.0" encoding="utf-8"?>
<!-- Generator: Adobe Illustrator 12.0.1, SVG Export Plug-In . SVG Version: 6.00 Build 51448)  -->
<!DOCTYPE svg PUBLIC "-//W3C//DTD SVG 1.0//EN" "http://www.w3.org/TR/2001/REC-SVG-20010904/DTD/svg10.dtd" [
	<!ENTITY ns_svg "http://www.w3.org/2000/svg">
	<!ENTITY ns_xlink "http://www.w3.org/1999/xlink">
]>
<svg  version="1.0" id="Layer_1" xmlns="&ns_svg;" xmlns:xlink="&ns_xlink;" width="62.002" height="42" viewBox="0 0 62.002 42"
	 overflow="visible" enable-background="new 0 0 62.002 42" xml:space="preserve">
<path fill="#199698" stroke="#199698" stroke-width="2" d="M61.002,35c0,3.312-2.686,6-6,6H7c-3.312,0-6-2.688-6-6V7
	c0-3.314,2.688-6,6-6h48.002c3.314,0,6,2.686,6,6V35z"/>
<path fill="none" stroke="#FFFFFF" stroke-width="5.6693" d="M45.901,27.953c0,1.645-1.334,2.98-2.98,2.98H19.08
	c-1.645,0-2.98-1.336-2.98-2.98V14.047c0-1.646,1.336-2.98,2.98-2.98h23.84c1.646,0,2.98,1.334,2.98,2.98V27.953z"/>
</svg>
