<?xml version="1.0" encoding="utf-8"?>
<!-- Generator: Adobe Illustrator 12.0.1, SVG Export Plug-In . SVG Version: 6.00 Build 51448)  -->
<!DOCTYPE svg PUBLIC "-//W3C//DTD SVG 1.0//EN" "http://www.w3.org/TR/2001/REC-SVG-20010904/DTD/svg10.dtd" [
	<!ENTITY ns_svg "http://www.w3.org/2000/svg">
	<!ENTITY ns_xlink "http://www.w3.org/1999/xlink">
]>
<svg  version="1.0" id="Layer_1" xmlns="&ns_svg;" xmlns:xlink="&ns_xlink;" width="68.318" height="48.609"
	 viewBox="0 0 68.318 48.609" overflow="visible" enable-background="new 0 0 68.318 48.609" xml:space="preserve">
<g>
	<path fill="#199698" stroke="#199698" stroke-width="2" d="M67.317,35c0,3.312-2.633,6-5.883,6H14.368c-3.25,0-5.883-2.688-5.883-6
		V6.999c0-3.314,2.633-6,5.883-6h47.066c3.25,0,5.883,2.686,5.883,6V35z"/>
	<path fill="none" stroke="#FFFFFF" stroke-width="4" d="M61.999,40.607c0,3.312-2.686,6-6,6h-48c-3.314,0-6-2.688-6-6V12.604
		c0-3.312,2.686-6,6-6h48c3.314,0,6,2.688,6,6V40.607z"/>
	<path fill="#199698" stroke="#199698" stroke-width="2" d="M61.999,40.607c0,3.312-2.686,6-6,6h-48c-3.314,0-6-2.688-6-6V12.604
		c0-3.312,2.686-6,6-6h48c3.314,0,6,2.688,6,6V40.607z"/>
</g>
<path fill="none" stroke="#FFFFFF" stroke-width="5.6693" d="M47.237,33.056c0,1.645-1.334,2.98-2.98,2.98H20.415
	c-1.645,0-2.979-1.336-2.979-2.98V19.15c0-1.646,1.334-2.98,2.979-2.98h23.842c1.646,0,2.98,1.334,2.98,2.98V33.056z"/>
</svg>
