<?xml version="1.0" encoding="utf-8"?>
<!-- Generator: Adobe Illustrator 12.0.1, SVG Export Plug-In . SVG Version: 6.00 Build 51448)  -->
<!DOCTYPE svg PUBLIC "-//W3C//DTD SVG 1.0//EN" "http://www.w3.org/TR/2001/REC-SVG-20010904/DTD/svg10.dtd" [
	<!ENTITY ns_svg "http://www.w3.org/2000/svg">
	<!ENTITY ns_xlink "http://www.w3.org/1999/xlink">
]>
<svg  version="1.0" id="Layer_1" xmlns="&ns_svg;" xmlns:xlink="&ns_xlink;" width="68.318" height="48.607"
	 viewBox="0 0 68.318 48.607" overflow="visible" enable-background="new 0 0 68.318 48.607" xml:space="preserve">
<g>
	<path fill="#199698" stroke="#199698" stroke-width="2" d="M67.317,34.999c0,3.312-2.633,6-5.883,6H14.368
		c-3.25,0-5.883-2.688-5.883-6v-28c0-3.314,2.633-6,5.883-6h47.066c3.25,0,5.883,2.686,5.883,6V34.999z"/>
	<path fill="none" stroke="#FFFFFF" stroke-width="4" d="M61.999,40.606c0,3.312-2.686,6-6,6h-48c-3.314,0-6-2.688-6-6V12.604
		c0-3.312,2.686-6,6-6h48c3.314,0,6,2.688,6,6V40.606z"/>
	<path fill="#199698" stroke="#199698" stroke-width="2" d="M61.999,40.606c0,3.312-2.686,6-6,6h-48c-3.314,0-6-2.688-6-6V12.604
		c0-3.312,2.686-6,6-6h48c3.314,0,6,2.688,6,6V40.606z"/>
</g>
<g>
	<g>
		<path fill="#199698" stroke="#FFFFFF" stroke-width="2" d="M16.782,16.382v23.093c0,2.186,7.09,3.959,15.836,3.959
			c8.748,0,15.838-1.773,15.838-3.959V16.382H16.782z"/>
		<ellipse fill="#199698" stroke="#FFFFFF" stroke-width="2" cx="32.619" cy="15.847" rx="15.837" ry="3.959"/>
	</g>
	<g>
		
			<ellipse transform="matrix(0.9476 0.3194 -0.3194 0.9476 10.6161 -6.5701)" fill="#FFFFFF" cx="25.341" cy="29.085" rx="6.611" ry="6.531"/>
		
			<rect x="18.726" y="25.403" transform="matrix(0.9477 0.3191 -0.3191 0.9477 10.1897 -5.5627)" fill="#199698" width="6.69" height="5.824"/>
		<path fill="#FFFFFF" d="M46.073,36.071c-0.43,1.275-1.463,2.08-2.307,1.795l-13.351-4.498c-0.844-0.283-1.179-1.549-0.749-2.824
			l0,0c0.431-1.279,1.463-2.082,2.307-1.799l13.352,4.498C46.168,33.528,46.504,34.792,46.073,36.071L46.073,36.071z"/>
	</g>
</g>
</svg>
