<?xml version="1.0" encoding="utf-8"?>
<!-- Generator: Adobe Illustrator 12.0.1, SVG Export Plug-In . SVG Version: 6.00 Build 51448)  -->
<!DOCTYPE svg PUBLIC "-//W3C//DTD SVG 1.0//EN" "http://www.w3.org/TR/2001/REC-SVG-20010904/DTD/svg10.dtd" [
	<!ENTITY ns_svg "http://www.w3.org/2000/svg">
	<!ENTITY ns_xlink "http://www.w3.org/1999/xlink">
]>
<svg  version="1.0" id="Layer_1" xmlns="&ns_svg;" xmlns:xlink="&ns_xlink;" width="62.001" height="42" viewBox="0 0 62.001 42"
	 overflow="visible" enable-background="new 0 0 62.001 42" xml:space="preserve">
<path fill="#199698" stroke="#199698" stroke-width="2" d="M61.001,35c0,3.313-2.686,6-6,6H7c-3.314,0-6-2.687-6-6V7
	c0-3.313,2.686-6,6-6h48.001c3.314,0,6,2.687,6,6V35z"/>
<g>
	<path fill="#199698" stroke="#FFFFFF" stroke-width="2" d="M15.162,9.721v23.094c0,2.186,7.09,3.959,15.836,3.959
		c8.749,0,15.839-1.773,15.839-3.959V9.721H15.162z"/>
	<ellipse fill="#199698" stroke="#FFFFFF" stroke-width="2" cx="31" cy="9.186" rx="15.837" ry="3.959"/>
</g>
<path fill="#FFFFFF" d="M34.171,28.954c-0.877,0.634-1.947,1.014-3.113,1.014c-2.957,0-5.355-2.398-5.355-5.355
	s2.399-5.355,5.355-5.355c2.885,0,5.23,2.284,5.344,5.142h-3.359l5.359,5.359l5.359-5.359h-3.58
	c-0.115-4.945-4.148-8.921-9.123-8.921c-5.045,0-9.135,4.09-9.135,9.135s4.09,9.135,9.135,9.135c2.213,0,4.236-0.795,5.814-2.107
	L34.171,28.954z"/>
</svg>
