<?xml version="1.0" encoding="utf-8"?>
<!-- Generator: Adobe Illustrator 11.0, SVG Export Plug-In . SVG Version: 6.0.0 Build 78)  -->
<!DOCTYPE svg PUBLIC "-//W3C//DTD SVG 1.0//EN"    "http://www.w3.org/TR/2001/REC-SVG-20010904/DTD/svg10.dtd" [
	<!ENTITY ns_flows "http://ns.adobe.com/Flows/1.0/">
	<!ENTITY ns_svg "http://www.w3.org/2000/svg">
	<!ENTITY ns_xlink "http://www.w3.org/1999/xlink">
]>
<svg  xmlns="&ns_svg;" xmlns:xlink="&ns_xlink;" xmlns:a="http://ns.adobe.com/AdobeSVGViewerExtensions/3.0/"
	 width="110" height="20" viewBox="0 0 110 20" overflow="visible" enable-background="new 0 0 110 20" xml:space="preserve">
		<g id="Documentation">
			<path fill="#9D8871" d="M110,13c0,3.866-3.134,7-7,7H7c-3.866,0-7-3.134-7-7V7c0-3.866,3.134-7,7-7h96c3.866,0,7,3.134,7,7V13z"
				/>
			<g enable-background="new    ">
				<path fill="#FFFFFF" d="M10.344,5.982c0-1.135,0-1.498-1.316-1.498V4.232h4.368c4.144,0,4.97,2.939,4.97,4.634
					c0,2.226-1.19,4.634-5.11,4.634H9.027v-0.252c1.316,0,1.316-0.364,1.316-1.498V5.982z M12.569,12.324
					c0,0.518,0.252,0.644,0.742,0.644c2.226,0,2.59-2.268,2.59-4.032c0-3.247-1.386-4.172-2.758-4.172h-0.574V12.324z"/>
				<path fill="#FFFFFF" d="M19.359,10.308c0-1.792,1.078-3.388,2.996-3.388s2.996,1.596,2.996,3.388s-1.078,3.389-2.996,3.389
					S19.359,12.1,19.359,10.308z M23.35,10.308c0-2.044-0.126-2.911-0.994-2.911s-0.994,0.867-0.994,2.911s0.126,2.912,0.994,2.912
					S23.35,12.352,23.35,10.308z"/>
				<path fill="#FFFFFF" d="M31.721,12.016c-0.462,0.967-1.428,1.681-2.534,1.681c-1.806,0-2.828-1.526-2.828-3.389
					c0-1.792,1.078-3.388,2.996-3.388c0.952,0,2.184,0.504,2.184,1.624c0,0.49-0.364,0.84-0.854,0.84
					c-0.756,0-0.938-0.574-0.994-1.218c-0.042-0.336-0.154-0.77-0.574-0.77c-0.77,0-0.91,1.371-0.91,1.918
					c0,1.218,0.434,3.289,1.974,3.289c0.56,0,0.98-0.363,1.33-0.756L31.721,12.016z"/>
				<path fill="#FFFFFF" d="M38.735,12.03c0,0.77,0,1.218,0.756,1.218V13.5h-2.674v-0.812l-0.028,0.027
					c-0.434,0.532-1.078,0.98-1.876,0.98c-1.106,0-1.694-0.868-1.694-2.044V8.614c0-0.742,0-1.246-0.77-1.246V7.116h2.688v4.494
					c0,0.489,0,1.162,0.588,1.162c0.518,0,0.826-0.477,1.092-0.854V8.614c0-0.742,0-1.246-0.77-1.246V7.116h2.688V12.03z"/>
				<path fill="#FFFFFF" d="M42.977,7.928c0.532-0.588,1.106-1.008,1.96-1.008c0.784,0,1.428,0.406,1.666,1.162
					c0.532-0.63,1.232-1.162,2.1-1.162c1.414,0,1.75,1.064,1.75,2.548v2.563c0,0.63,0,1.218,0.7,1.218V13.5h-3.318v-0.252
					c0.7,0,0.7-0.588,0.7-1.218V9.426c0-0.896,0-1.609-0.616-1.609c-0.532,0-0.924,0.462-1.204,0.867v3.347
					c0,0.63,0,1.218,0.7,1.218V13.5h-3.318v-0.252c0.7,0,0.7-0.588,0.7-1.218V9.426c0-0.896,0-1.609-0.616-1.609
					c-0.532,0-0.924,0.462-1.204,0.867v3.347c0,0.63,0,1.218,0.7,1.218V13.5h-3.318v-0.252c0.7,0,0.7-0.588,0.7-1.218V8.614
					c0-0.742,0-1.246-0.77-1.246V7.116h2.688V7.928z"/>
				<path fill="#FFFFFF" d="M53.869,10.098c0,1.022,0.56,2.549,1.834,2.549c0.686,0,1.105-0.519,1.441-1.051l0.225,0.154
					c-0.561,1.134-1.26,1.946-2.618,1.946c-1.918,0-2.73-1.61-2.73-3.389c0-1.792,1.078-3.388,2.996-3.388
					c1.54,0,2.379,1.68,2.352,3.178H53.869z M55.689,9.622c0-0.714,0-2.226-0.868-2.226c-0.812,0-0.994,1.203-0.994,2.226H55.689z"
					/>
				<path fill="#FFFFFF" d="M60.855,7.928c0.476-0.531,1.092-1.008,1.848-1.008c1.414,0,1.75,1.064,1.75,2.548v2.563
					c0,0.63,0,1.218,0.699,1.218V13.5h-3.248v-0.252c0.631,0,0.631-0.588,0.631-1.218V9.426c0-0.938,0-1.582-0.616-1.582
					c-0.435,0-0.84,0.462-1.063,0.84v3.347c0,0.63,0,1.218,0.629,1.218V13.5h-3.248v-0.252c0.701,0,0.701-0.588,0.701-1.218V8.614
					c0-0.742,0-1.246-0.771-1.246V7.116h2.688V7.928z"/>
				<path fill="#FFFFFF" d="M68.498,7.116h1.526v0.672h-1.526v3.78c0,0.672,0,1.246,0.504,1.246c0.351,0,0.658-0.393,0.813-0.687
					l0.21,0.154c-0.308,0.784-0.952,1.302-1.819,1.302c-1.022,0-1.625-0.84-1.625-1.484V7.788h-0.84V7.55
					c1.051-0.714,1.946-1.651,2.534-2.771h0.224V7.116z"/>
				<path fill="#FFFFFF" d="M74.168,8.32c0-0.672-0.504-0.868-0.867-0.868c-0.294,0-0.896,0.112-0.896,0.49
					c0,0.266,0.448,0.434,0.448,0.882c0,0.532-0.42,0.826-0.924,0.826c-0.49,0-0.994-0.351-0.994-0.883
					c0-1.287,1.778-1.848,2.828-1.848c1.597,0,2.324,0.784,2.324,2.156v3.107c0,0.336,0,0.645,0.294,0.645
					c0.168,0,0.266-0.126,0.363-0.252l0.197,0.154c-0.351,0.56-0.841,0.966-1.527,0.966c-0.672,0-1.189-0.322-1.246-1.022
					c-0.545,0.504-1.301,1.022-2.086,1.022c-0.728,0-1.273-0.519-1.273-1.316c0-1.147,0.77-1.708,3.359-2.926V8.32z M74.168,10.028
					c-0.602,0.336-1.512,1.021-1.512,1.777c0,0.435,0.309,0.742,0.742,0.742c0.322,0,0.532-0.182,0.77-0.378V10.028z"/>
				<path fill="#FFFFFF" d="M80.16,7.116h1.526v0.672H80.16v3.78c0,0.672,0,1.246,0.504,1.246c0.351,0,0.658-0.393,0.813-0.687
					l0.21,0.154c-0.308,0.784-0.952,1.302-1.819,1.302c-1.022,0-1.625-0.84-1.625-1.484V7.788h-0.84V7.55
					c1.051-0.714,1.946-1.651,2.534-2.771h0.224V7.116z"/>
				<path fill="#FFFFFF" d="M84.795,12.03c0,0.77,0,1.218,0.756,1.218V13.5h-3.443v-0.252c0.77,0,0.77-0.448,0.77-1.218V8.614
					c0-0.742,0-1.246-0.77-1.246V7.116h2.688V12.03z M83.828,4.022c0.574,0,1.051,0.476,1.051,1.05s-0.477,1.05-1.051,1.05
					c-0.573,0-1.049-0.476-1.049-1.05S83.255,4.022,83.828,4.022z"/>
				<path fill="#FFFFFF" d="M86.236,10.308c0-1.792,1.078-3.388,2.996-3.388s2.996,1.596,2.996,3.388s-1.078,3.389-2.996,3.389
					S86.236,12.1,86.236,10.308z M90.227,10.308c0-2.044-0.126-2.911-0.994-2.911s-0.994,0.867-0.994,2.911s0.126,2.912,0.994,2.912
					S90.227,12.352,90.227,10.308z"/>
				<path fill="#FFFFFF" d="M95.854,7.928c0.476-0.531,1.092-1.008,1.849-1.008c1.413,0,1.75,1.064,1.75,2.548v2.563
					c0,0.63,0,1.218,0.699,1.218V13.5h-3.248v-0.252c0.63,0,0.63-0.588,0.63-1.218V9.426c0-0.938,0-1.582-0.616-1.582
					c-0.434,0-0.84,0.462-1.063,0.84v3.347c0,0.63,0,1.218,0.63,1.218V13.5h-3.248v-0.252c0.7,0,0.7-0.588,0.7-1.218V8.614
					c0-0.742,0-1.246-0.771-1.246V7.116h2.688V7.928z"/>
			</g>
		</g>
	</svg>
