<?xml version="1.0" encoding="utf-8"?>
<!-- Generator: Adobe Illustrator 12.0.1, SVG Export Plug-In . SVG Version: 6.00 Build 51448)  -->
<!DOCTYPE svg PUBLIC "-//W3C//DTD SVG 1.0//EN" "http://www.w3.org/TR/2001/REC-SVG-20010904/DTD/svg10.dtd" [
	<!ENTITY ns_svg "http://www.w3.org/2000/svg">
	<!ENTITY ns_xlink "http://www.w3.org/1999/xlink">
]>
<svg  version="1.0" id="Layer_1" xmlns="&ns_svg;" xmlns:xlink="&ns_xlink;" width="68.517" height="48.608"
	 viewBox="0 0 68.517 48.608" overflow="visible" enable-background="new 0 0 68.517 48.608" xml:space="preserve">
<g>
	<path fill="#199698" stroke="#199698" stroke-width="2" d="M67.516,35.003c0,3.313-2.633,6.001-5.883,6.001H14.567
		c-3.25,0-5.883-2.688-5.883-6.001V6.999c0-3.314,2.633-6,5.883-6h47.066c3.25,0,5.883,2.686,5.883,6V35.003z"/>
	<path fill="none" stroke="#FFFFFF" stroke-width="4" d="M62.198,40.612c0,3.312-2.686,6-6,6h-48c-3.314,0-6-2.688-6-6V12.604
		c0-3.312,2.686-6,6-6h48c3.314,0,6,2.688,6,6V40.612z"/>
	<path fill="#199698" stroke="#199698" stroke-width="2" d="M62.198,40.612c0,3.312-2.686,6-6,6h-48c-3.314,0-6-2.688-6-6V12.604
		c0-3.312,2.686-6,6-6h48c3.314,0,6,2.688,6,6V40.612z"/>
</g>
<path fill="#1B199A" d="M19.999,46.471c0,1.105-0.896,2-2,2h-16c-1.104,0-2-0.895-2-2V30.468c0-1.104,0.896-2.001,2-2.001h16
	c1.104,0,2,0.896,2,2.001V46.471z"/>
<g>
	<path fill="#FFFFFF" d="M13.631,43.683h-1.904l-1.553-4.108H7.64v4.108H5.838v-9.997h4.336c1.206,0,2.092,0.271,2.659,0.816
		c0.566,0.544,0.85,1.248,0.85,2.113c0,1.283-0.601,2.168-1.802,2.65L13.631,43.683z M7.64,38.131h2.241
		c0.649,0,1.133-0.137,1.45-0.41s0.476-0.649,0.476-1.128c0-0.439-0.156-0.795-0.469-1.065c-0.312-0.271-0.75-0.406-1.311-0.406
		H7.64V38.131z"/>
</g>
</svg>
