<?xml version="1.0" encoding="utf-8"?>
<!-- Generator: Adobe Illustrator 12.0.1, SVG Export Plug-In . SVG Version: 6.00 Build 51448)  -->
<!DOCTYPE svg PUBLIC "-//W3C//DTD SVG 1.0//EN" "http://www.w3.org/TR/2001/REC-SVG-20010904/DTD/svg10.dtd" [
	<!ENTITY ns_svg "http://www.w3.org/2000/svg">
	<!ENTITY ns_xlink "http://www.w3.org/1999/xlink">
]>
<svg  version="1.0" id="Layer_1" xmlns="&ns_svg;" xmlns:xlink="&ns_xlink;" width="68.517" height="48.607"
	 viewBox="0 0 68.517 48.607" overflow="visible" enable-background="new 0 0 68.517 48.607" xml:space="preserve">
<g>
	<path fill="#199698" stroke="#199698" stroke-width="2" d="M67.516,35.004c0,3.312-2.633,6-5.883,6H14.567
		c-3.25,0-5.883-2.688-5.883-6v-28c0-3.314,2.633-6,5.883-6h47.066c3.25,0,5.883,2.686,5.883,6V35.004z"/>
	<path fill="none" stroke="#FFFFFF" stroke-width="4" d="M62.198,40.611c0,3.312-2.686,6-6,6h-48c-3.314,0-6-2.688-6-6V12.609
		c0-3.312,2.686-6,6-6h48c3.314,0,6,2.688,6,6V40.611z"/>
	<path fill="#199698" stroke="#199698" stroke-width="2" d="M62.198,40.611c0,3.312-2.686,6-6,6h-48c-3.314,0-6-2.688-6-6V12.609
		c0-3.312,2.686-6,6-6h48c3.314,0,6,2.688,6,6V40.611z"/>
</g>
<path fill="#1B199A" d="M19.999,46.471c0,1.105-0.896,2-2,2h-16c-1.104,0-2-0.895-2-2v-16c0-1.104,0.896-2,2-2h16
	c1.104,0,2,0.896,2,2V46.471z"/>
<g>
	<path fill="#FFFFFF" d="M5.671,41.385l1.75-0.374c0.21,0.991,1.016,1.487,2.417,1.487c0.64,0,1.132-0.127,1.476-0.381
		c0.345-0.254,0.517-0.569,0.517-0.945c0-0.273-0.078-0.526-0.234-0.758c-0.156-0.232-0.491-0.414-1.003-0.546L8.681,39.37
		c-0.654-0.171-1.138-0.365-1.45-0.582c-0.312-0.218-0.562-0.524-0.751-0.919c-0.188-0.396-0.282-0.818-0.282-1.268
		c0-0.894,0.332-1.61,0.996-2.149c0.664-0.54,1.514-0.81,2.549-0.81c0.859,0,1.627,0.188,2.303,0.564
		c0.677,0.375,1.107,0.908,1.293,1.596l-1.714,0.426c-0.264-0.758-0.879-1.136-1.846-1.136c-0.562,0-0.99,0.117-1.285,0.352
		c-0.296,0.234-0.443,0.532-0.443,0.894c0,0.571,0.464,0.972,1.392,1.201l1.699,0.425c1.03,0.259,1.721,0.641,2.073,1.146
		c0.352,0.505,0.527,1.063,0.527,1.673c0,0.982-0.37,1.755-1.11,2.318c-0.739,0.564-1.698,0.846-2.875,0.846
		c-0.991,0-1.859-0.207-2.604-0.622C6.41,42.91,5.915,42.264,5.671,41.385z"/>
</g>
</svg>
