<?xml version="1.0" encoding="utf-8"?>
<!-- Generator: Adobe Illustrator 12.0.1, SVG Export Plug-In . SVG Version: 6.00 Build 51448)  -->
<!DOCTYPE svg PUBLIC "-//W3C//DTD SVG 1.0//EN" "http://www.w3.org/TR/2001/REC-SVG-20010904/DTD/svg10.dtd" [
	<!ENTITY ns_svg "http://www.w3.org/2000/svg">
	<!ENTITY ns_xlink "http://www.w3.org/1999/xlink">
]>
<svg  version="1.0" id="Layer_1" xmlns="&ns_svg;" xmlns:xlink="&ns_xlink;" width="68.516" height="48.607"
	 viewBox="0 0 68.516 48.607" overflow="visible" enable-background="new 0 0 68.516 48.607" xml:space="preserve">
<g>
	<path fill="#199698" stroke="#199698" stroke-width="2" d="M67.515,35.004c0,3.312-2.633,6-5.883,6H14.566
		c-3.25,0-5.883-2.688-5.883-6v-28c0-3.314,2.633-6,5.883-6h47.066c3.25,0,5.883,2.686,5.883,6V35.004z"/>
	<path fill="none" stroke="#FFFFFF" stroke-width="4" d="M62.197,40.611c0,3.312-2.686,6-6,6h-48c-3.314,0-6-2.688-6-6V12.609
		c0-3.312,2.686-6,6-6h48c3.314,0,6,2.688,6,6V40.611z"/>
	<path fill="#199698" stroke="#199698" stroke-width="2" d="M62.197,40.611c0,3.312-2.686,6-6,6h-48c-3.314,0-6-2.688-6-6V12.609
		c0-3.312,2.686-6,6-6h48c3.314,0,6,2.688,6,6V40.611z"/>
</g>
<path fill="#1B199A" d="M19.998,46.471c0,1.105-0.895,2-2,2h-16c-1.104,0-1.999-0.895-1.999-2v-16c0-1.104,0.895-2,1.999-2h16
	c1.105,0,2,0.896,2,2V46.471z"/>
<g>
	<path fill="#FFFFFF" d="M7.63,33.749c0.313,0.041,0.611,0.132,0.892,0.273c0.159-0.084,0.3-0.125,0.423-0.125
		c0.168,0,0.304,0.051,0.409,0.153c0.104,0.104,0.157,0.223,0.157,0.36c0,0.1-0.019,0.241-0.055,0.424l-0.103,0.452
		c-0.073,0.338-0.189,0.579-0.349,0.723S8.66,36.226,8.45,36.226c-0.16,0-0.292-0.051-0.397-0.151s-0.157-0.222-0.157-0.363
		c0-0.05,0.004-0.121,0.014-0.212c-0.274-0.261-0.658-0.391-1.151-0.391c-0.562,0-0.984,0.109-1.268,0.328s-0.425,0.446-0.425,0.684
		c0,0.15,0.053,0.273,0.158,0.369c0.137,0.127,0.407,0.234,0.809,0.319l0.898,0.196c0.731,0.152,1.236,0.378,1.515,0.674
		c0.273,0.302,0.41,0.679,0.41,1.13c0,0.686-0.261,1.311-0.784,1.877c-0.522,0.565-1.242,0.934-2.159,1.103l-0.253,1.188
		c-0.073,0.337-0.19,0.578-0.35,0.722s-0.348,0.216-0.562,0.216c-0.155,0-0.287-0.052-0.394-0.154S4.191,43.537,4.191,43.4
		c0-0.092,0.021-0.232,0.062-0.424l0.253-1.188c-0.347-0.077-0.688-0.197-1.022-0.359c-0.228,0.161-0.429,0.242-0.602,0.242
		s-0.313-0.051-0.421-0.15C2.354,41.42,2.3,41.299,2.3,41.157c0-0.091,0.021-0.229,0.062-0.417l0.185-0.883
		c0.073-0.337,0.189-0.577,0.349-0.722c0.16-0.144,0.344-0.215,0.554-0.215c0.169,0,0.301,0.045,0.397,0.137
		c0.096,0.091,0.148,0.231,0.158,0.421c0.009,0.189,0.048,0.33,0.116,0.422c0.105,0.146,0.287,0.27,0.545,0.369
		c0.258,0.101,0.54,0.151,0.847,0.151c0.585,0,1.078-0.157,1.48-0.472c0.283-0.224,0.425-0.495,0.425-0.814
		c0-0.173-0.055-0.308-0.165-0.403c-0.155-0.146-0.445-0.262-0.87-0.349l-1.007-0.212c-0.621-0.128-1.066-0.342-1.336-0.643
		c-0.274-0.296-0.411-0.661-0.411-1.094c0-0.615,0.241-1.185,0.724-1.708c0.483-0.524,1.106-0.851,1.871-0.978l0.083-0.383
		c0.069-0.333,0.184-0.571,0.347-0.715s0.349-0.215,0.56-0.215c0.16,0,0.294,0.05,0.401,0.15c0.107,0.1,0.161,0.221,0.161,0.362
		c0,0.091-0.021,0.229-0.062,0.417L7.63,33.749z"/>
	<path fill="#FFFFFF" d="M16.522,46.366h-7.7c-0.31,0-0.521-0.048-0.633-0.144s-0.167-0.232-0.167-0.409
		c0-0.277,0.132-0.51,0.396-0.696c0.146-0.1,0.381-0.149,0.705-0.149h7.7c0.31,0,0.521,0.049,0.633,0.146s0.167,0.233,0.167,0.406
		c0,0.286-0.137,0.521-0.41,0.702C17.076,46.318,16.846,46.366,16.522,46.366z"/>
</g>
</svg>
