<?xml version="1.0" encoding="utf-8"?>
<!-- Generator: Adobe Illustrator 12.0.1, SVG Export Plug-In . SVG Version: 6.00 Build 51448)  -->
<!DOCTYPE svg PUBLIC "-//W3C//DTD SVG 1.0//EN" "http://www.w3.org/TR/2001/REC-SVG-20010904/DTD/svg10.dtd" [
	<!ENTITY ns_svg "http://www.w3.org/2000/svg">
	<!ENTITY ns_xlink "http://www.w3.org/1999/xlink">
]>
<svg  version="1.0" id="Layer_1" xmlns="&ns_svg;" xmlns:xlink="&ns_xlink;" width="62" height="42" viewBox="0 0 62 42"
	 overflow="visible" enable-background="new 0 0 62 42" xml:space="preserve">
<g>
	<path fill="#199698" stroke="#199698" stroke-width="2" d="M61,35c0,3.312-2.686,6-6,6H7c-3.312,0-6-2.688-6-6V7
		c0-3.314,2.688-6,6-6h48c3.314,0,6,2.686,6,6V35z"/>
	<line fill="none" stroke="#FFFFFF" stroke-width="4" x1="8.666" y1="7.199" x2="8.666" y2="35.2"/>
	<line fill="none" stroke="#FFFFFF" stroke-width="4" x1="53.334" y1="7.199" x2="53.334" y2="35.2"/>
	<path fill="#FFFFFF" d="M34.166,30.075c-0.212-0.53,0.67-1.371-0.285-1.346c-0.371,0.011-1.064,0.444-1.398,0.135
		c-0.428-0.397-0.739-0.906-1.078-1.377c-0.527-0.732-1.059-0.485-1.885-0.74c-0.47-0.145-0.851-0.227-1.356-0.15
		c-0.561,0.086-0.749,0.557-1.253,0.602c-0.569,0.053-1.106-0.181-1.69,0.018c-0.517,0.176-1.033,0.773-1.487,1.105
		c-0.353,0.258-0.636,0.743-1.021,0.939c-0.325,0.166-0.673,0.084-1.043,0.09c-0.86,0.016-1.801,0.105-2.53,0.606
		c-0.476,0.326-0.559,0.874-1.2,0.878c-0.584,0.004-1.216-0.442-1.559-0.889c-0.547-0.713,0.533-1.087,0.327-2
		c-0.128-0.569-0.698-0.83-0.89-1.359c-0.176-0.489-0.027-1.043-0.278-1.559c-0.286-0.59-1.039-0.835-1.378-1.422
		c-0.303-0.523-0.354-1.2-0.319-1.793c0.053-0.894-0.422-1.597-0.493-2.464c-0.039-0.485-0.018-0.72,0.413-0.933
		c0.669-0.332,1.207-0.349,1.701-1.038c0.392-0.545,0.713-0.684,1.33-0.845c0.663-0.172,1.172-0.521,1.775-0.875
		c0.385-0.226,1.162-0.134,1.448-0.466c0.181-0.211,0.18-0.869,0.24-1.141c0.171-0.764,0.406-1.677,1.076-2.16
		c0.29-0.209,0.804-0.223,1.012-0.436c0.21-0.214,0.165-0.509,0.476-0.749c0.435-0.335,0.544-0.808,0.962-1.077
		c0.248-0.16,1.013-0.395,1.296-0.397c0.411-0.003,0.523,0.266,0.789,0.497c0.209,0.182,0.562,0.383,0.848,0.377
		c0.536-0.01,0.343-0.143,0.487-0.48c0.221-0.519,0.626-0.923,0.913-1.403c0.193-0.326,0.305-0.725,0.581-0.997
		c0.704-0.695,1.819-0.73,2.745-0.712c0.507,0.01,1.012,0.057,1.518,0.086c0.584,0.034,0.685,0.325,0.917,0.775
		c0.364,0.706-0.05,1.335-0.31,1.987c-0.306,0.762,0.23,0.982,0.816,1.254c0.828,0.384,1.537,1.066,2.229,1.623
		c1.279,1.027,1.708-0.947,1.886-1.857c0.234-1.213,0.129-2.727,1.011-3.708c1.144-1.272,1.535,0.409,1.697,1.384
		c0.112,0.675,0.147,1.377,0.315,2.042c0.217,0.859,0.789,1.52,1.09,2.333c0.316,0.856,0.588,1.788,1.172,2.51
		c0.568,0.703,1.273,1.152,1.701,2.003c0.337,0.669,0.074,0.959,0.9,1.019c0.109,0.008,0.375,1.579,0.482,1.764
		c0.268,0.463,0.867,0.826,0.883,1.416c0.646-0.072,0.622,0.561,0.617,1.024c-0.007,0.607,0.149,1.359,0.037,1.943
		c-0.047,0.24-0.278,0.476-0.371,0.7c-0.227,0.556-0.375,1.14-0.598,1.697c-0.273,0.681-0.007,1.665-0.812,1.978
		c-0.52,0.202-0.797-0.047-1.145,0.482c-0.266,0.404-0.292,0.885-0.445,1.33c-0.293,0.846-0.709,1.574-0.941,2.44
		c-0.216,0.812-0.58,0.452-1.297,0.586c-0.543,0.103-0.98,0.427-1.451,0.69c-0.646,0.362-0.893-0.346-1.438-0.447
		c-0.396-0.074-0.483,0.222-0.819,0.321c-0.74,0.222-1.84-0.294-2.338-0.829c-0.365-0.393-0.876-0.793-1.043-1.324
		c-0.118-0.373,0.105-0.816-0.068-1.174c-0.182-0.372-1.088-1.003-1.416-0.49"/>
</g>
</svg>
