<?xml version="1.0" encoding="utf-8"?>
<!-- Generator: Adobe Illustrator 11 Build 196, SVG Export Plug-In . SVG Version: 6.0.0 Build 78)  -->
<!DOCTYPE svg PUBLIC "-//W3C//DTD SVG 1.0//EN"    "http://www.w3.org/TR/2001/REC-SVG-20010904/DTD/svg10.dtd" [
	<!ENTITY ns_flows "http://ns.adobe.com/Flows/1.0/">
	<!ENTITY ns_svg "http://www.w3.org/2000/svg">
	<!ENTITY ns_xlink "http://www.w3.org/1999/xlink">
]>
<svg  xmlns="&ns_svg;" xmlns:xlink="&ns_xlink;" xmlns:a="http://ns.adobe.com/AdobeSVGViewerExtensions/3.0/"
	 width="68.318" height="48.607" viewBox="0 0 68.318 48.607" overflow="visible" enable-background="new 0 0 68.318 48.607"
	 xml:space="preserve">
		<g id="Layer_1">
			<g>
				<path fill="#199698" stroke="#199698" stroke-width="2" d="M67.318,35c0,3.312-2.633,6-5.883,6H14.369
					c-3.25,0-5.883-2.688-5.883-6V7c0-3.314,2.633-6,5.883-6h47.066c3.25,0,5.883,2.686,5.883,6V35z"/>
				<path fill="none" stroke="#FFFFFF" stroke-width="4" d="M62,40.607c0,3.312-2.686,6-6,6H8c-3.314,0-6-2.688-6-6V12.605
					c0-3.312,2.686-6,6-6h48c3.314,0,6,2.688,6,6V40.607z"/>
				<path fill="#199698" stroke="#199698" stroke-width="2" d="M62,40.607c0,3.312-2.686,6-6,6H8c-3.314,0-6-2.688-6-6V12.605
					c0-3.312,2.686-6,6-6h48c3.314,0,6,2.688,6,6V40.607z"/>
			</g>
			<g>
				<polygon fill="none" stroke="#FFFFFF" stroke-width="2" points="12.993,38.68 25.993,12.264 33.827,30.429 39.158,22.93 
					46.492,38.68 "/>
				<path fill="#FFFFFF" d="M44.041,24.81c-0.779,0.563-1.732,0.9-2.768,0.9c-2.629,0-4.76-2.131-4.76-4.76
					c0-2.628,2.131-4.76,4.76-4.76c2.564,0,4.649,2.03,4.749,4.57h-2.985l4.764,4.764l4.765-4.764h-3.183
					c-0.102-4.396-3.688-7.93-8.109-7.93c-4.484,0-8.12,3.635-8.12,8.12s3.636,8.12,8.12,8.12c1.968,0,3.765-0.707,5.168-1.874
					L44.041,24.81z"/>
			</g>
		</g>
	</svg>
