<?xml version="1.0" encoding="utf-8"?>
<!-- Generator: Adobe Illustrator 11 Build 196, SVG Export Plug-In . SVG Version: 6.0.0 Build 78)  -->
<!DOCTYPE svg PUBLIC "-//W3C//DTD SVG 1.0//EN"    "http://www.w3.org/TR/2001/REC-SVG-20010904/DTD/svg10.dtd" [
	<!ENTITY ns_flows "http://ns.adobe.com/Flows/1.0/">
	<!ENTITY ns_svg "http://www.w3.org/2000/svg">
	<!ENTITY ns_xlink "http://www.w3.org/1999/xlink">
]>
<svg  xmlns="&ns_svg;" xmlns:xlink="&ns_xlink;" xmlns:a="http://ns.adobe.com/AdobeSVGViewerExtensions/3.0/"
	 width="62" height="42" viewBox="0 0 62 42" overflow="visible" enable-background="new 0 0 62 42" xml:space="preserve">
		<g id="Layer_1">
			<path fill="#199698" stroke="#199698" stroke-width="2" d="M61,35c0,3.312-2.686,6-6,6H7c-3.314,0-6-2.688-6-6V7
				c0-3.313,2.686-6,6-6h48c3.314,0,6,2.687,6,6V35z"/>
			<polygon fill="none" stroke="#FFFFFF" stroke-width="2" points="10.89,33.301 23.89,6.885 31.724,25.051 37.056,17.551 
				44.39,33.301 "/>
			<path fill="#FFFFFF" d="M41.938,19.431c-0.778,0.564-1.731,0.901-2.767,0.901c-2.629,0-4.76-2.131-4.76-4.76
				c0-2.628,2.131-4.76,4.76-4.76c2.564,0,4.648,2.03,4.748,4.57h-2.985l4.765,4.764l4.764-4.764h-3.182
				c-0.103-4.396-3.689-7.93-8.109-7.93c-4.484,0-8.121,3.635-8.121,8.12c0,4.485,3.636,8.12,8.121,8.12
				c1.967,0,3.764-0.707,5.168-1.873L41.938,19.431z"/>
		</g>
	</svg>
