<?xml version="1.0" encoding="utf-8"?>
<!-- Generator: Adobe Illustrator 12.0.1, SVG Export Plug-In . SVG Version: 6.00 Build 51448)  -->
<!DOCTYPE svg PUBLIC "-//W3C//DTD SVG 1.0//EN" "http://www.w3.org/TR/2001/REC-SVG-20010904/DTD/svg10.dtd" [
	<!ENTITY ns_svg "http://www.w3.org/2000/svg">
	<!ENTITY ns_xlink "http://www.w3.org/1999/xlink">
]>
<svg  version="1.0" id="Layer_1" xmlns="&ns_svg;" xmlns:xlink="&ns_xlink;" width="68.318" height="48.606"
	 viewBox="0 0 68.318 48.606" overflow="visible" enable-background="new 0 0 68.318 48.606" xml:space="preserve">
<g>
	<path fill="#199698" stroke="#199698" stroke-width="2" d="M67.318,35.003c0,3.312-2.633,6-5.883,6H14.37
		c-3.25,0-5.883-2.688-5.883-6V7.004c0-3.314,2.633-6,5.883-6h47.066c3.25,0,5.883,2.686,5.883,6V35.003z"/>
	<path fill="none" stroke="#FFFFFF" stroke-width="4" d="M62,40.61c0,3.312-2.686,6-6,6H8c-3.314,0-6-2.688-6-6V12.609
		c0-3.312,2.686-6,6-6h48c3.314,0,6,2.688,6,6V40.61z"/>
</g>
<g>
	<path fill="#199698" stroke="#199698" stroke-width="2" d="M61.93,40.663c0,3.312-2.686,6-6,6H7.928c-3.312,0-6-2.688-6-6V12.662
		c0-3.314,2.688-6,6-6H55.93c3.314,0,6,2.686,6,6V40.663z"/>
	<g>
		<g>
			<path fill="#FFFFFF" d="M12.951,24.243h-2.285l-1.881-3.234l-2.057,3.234H5.006l2.953-4.57l-2.558-4.307h2.294l1.459,2.61
				l1.661-2.61h1.679l-2.505,3.85L12.951,24.243z"/>
			<path fill="#FFFFFF" d="M22.506,17.774l1.602,0.281c-0.229,1.521-0.862,2.865-1.898,4.031c0.364,0.396,0.634,0.637,0.809,0.723
				c0.174,0.086,0.381,0.129,0.621,0.129c0.109,0,0.266-0.013,0.469-0.039v1.492l-0.742,0.016c-0.484,0-0.882-0.07-1.191-0.211
				c-0.31-0.141-0.71-0.45-1.199-0.93c-1.068,0.761-2.229,1.141-3.484,1.141c-1.193,0-2.163-0.321-2.91-0.965
				c-0.748-0.643-1.121-1.436-1.121-2.379c0-0.599,0.174-1.169,0.523-1.711c0.349-0.541,1.099-1.067,2.25-1.578
				c-0.62-0.729-0.93-1.403-0.93-2.023c0-0.692,0.26-1.255,0.781-1.688c0.521-0.432,1.188-0.648,2-0.648
				c0.833,0,1.516,0.209,2.047,0.625c0.531,0.417,0.797,0.984,0.797,1.703c0,0.506-0.18,0.992-0.539,1.461s-0.873,0.839-1.539,1.109
				l2.312,2.641C21.891,20.017,22.339,18.957,22.506,17.774z M17.162,18.946c-1.062,0.479-1.594,1.146-1.594,2
				c0,0.573,0.207,1.033,0.621,1.379c0.414,0.347,0.936,0.52,1.566,0.52c0.776,0,1.508-0.252,2.195-0.758L17.162,18.946z
				 M17.975,17.149c0.906-0.38,1.359-0.849,1.359-1.406c0-0.302-0.109-0.539-0.328-0.711s-0.477-0.258-0.773-0.258
				c-0.302,0-0.566,0.088-0.793,0.262c-0.227,0.175-0.34,0.402-0.34,0.684C17.1,16.179,17.391,16.655,17.975,17.149z"/>
			<path fill="#FFFFFF" d="M32.251,15.366l-3.454,10.107c-0.211,0.621-0.5,1.104-0.866,1.445c-0.366,0.344-0.883,0.515-1.551,0.515
				c-0.264,0-0.647-0.021-1.151-0.062v-1.591l0.958,0.018c0.422,0,0.734-0.069,0.936-0.206c0.202-0.139,0.362-0.383,0.479-0.734
				s0.176-0.557,0.176-0.615c0-0.035-0.062-0.217-0.185-0.545l-3.05-8.332h2.101l2.153,5.854l1.854-5.854H32.251z"/>
		</g>
		<line fill="none" stroke="#FFFFFF" x1="38.471" y1="18.086" x2="23.97" y2="40.087"/>
		<g>
			<path fill="#FFFFFF" d="M41.284,39.576h-2.285l-1.881-3.234l-2.057,3.234h-1.723l2.953-4.57l-2.558-4.307h2.294l1.459,2.61
				l1.661-2.61h1.679l-2.505,3.85L41.284,39.576z"/>
			<path fill="#FFFFFF" d="M43.622,33.397h-2.145l2.971-5.88h2.681l2.971,5.88h-2.145l-2.171-4.254L43.622,33.397z"/>
			<path fill="#FFFFFF" d="M58.115,30.699l-3.454,10.107c-0.211,0.621-0.5,1.104-0.866,1.445c-0.366,0.344-0.883,0.515-1.551,0.515
				c-0.264,0-0.647-0.021-1.151-0.062v-1.591l0.958,0.018c0.422,0,0.733-0.069,0.936-0.206c0.202-0.139,0.362-0.383,0.479-0.734
				s0.176-0.557,0.176-0.615c0-0.035-0.062-0.217-0.185-0.545l-3.05-8.332h2.101l2.153,5.854l1.854-5.854H58.115z"/>
		</g>
	</g>
</g>
</svg>
