<?xml version="1.0" encoding="utf-8"?>
<!-- Generator: Adobe Illustrator 12.0.1, SVG Export Plug-In . SVG Version: 6.00 Build 51448)  -->
<!DOCTYPE svg PUBLIC "-//W3C//DTD SVG 1.0//EN" "http://www.w3.org/TR/2001/REC-SVG-20010904/DTD/svg10.dtd" [
	<!ENTITY ns_svg "http://www.w3.org/2000/svg">
	<!ENTITY ns_xlink "http://www.w3.org/1999/xlink">
]>
<svg  version="1.0" id="Layer_1" xmlns="&ns_svg;" xmlns:xlink="&ns_xlink;" width="62.002" height="42" viewBox="0 0 62.002 42"
	 overflow="visible" enable-background="new 0 0 62.002 42" xml:space="preserve">
<path fill="#199698" stroke="#199698" stroke-width="2" d="M61.002,35c0,3.312-2.686,6-6,6H7c-3.312,0-6-2.688-6-6V7
	c0-3.314,2.688-6,6-6h48.002c3.314,0,6,2.686,6,6V35z"/>
<g>
	<path fill="#FFFFFF" d="M12.025,18.584H9.74L7.859,15.35l-2.057,3.234H4.08l2.953-4.57L4.475,9.707h2.294l1.459,2.61l1.661-2.61
		h1.679l-2.505,3.85L12.025,18.584z"/>
	<path fill="#FFFFFF" d="M21.58,12.115l1.602,0.281c-0.229,1.521-0.862,2.865-1.898,4.031c0.364,0.396,0.634,0.637,0.809,0.723
		c0.174,0.086,0.381,0.129,0.621,0.129c0.109,0,0.266-0.013,0.469-0.039v1.492l-0.742,0.016c-0.484,0-0.882-0.07-1.191-0.211
		c-0.31-0.141-0.71-0.45-1.199-0.93c-1.068,0.761-2.229,1.141-3.484,1.141c-1.193,0-2.163-0.321-2.91-0.965
		c-0.748-0.643-1.121-1.436-1.121-2.379c0-0.599,0.174-1.169,0.523-1.711c0.349-0.541,1.099-1.067,2.25-1.578
		c-0.62-0.729-0.93-1.403-0.93-2.023c0-0.692,0.26-1.255,0.781-1.688c0.521-0.432,1.188-0.648,2-0.648
		c0.833,0,1.516,0.209,2.047,0.625c0.531,0.417,0.797,0.984,0.797,1.703c0,0.506-0.18,0.992-0.539,1.461s-0.873,0.839-1.539,1.109
		l2.312,2.641C20.965,14.357,21.413,13.298,21.58,12.115z M16.236,13.287c-1.062,0.479-1.594,1.146-1.594,2
		c0,0.573,0.207,1.033,0.621,1.379c0.414,0.347,0.936,0.52,1.566,0.52c0.776,0,1.508-0.252,2.195-0.758L16.236,13.287z
		 M17.048,11.49c0.906-0.38,1.359-0.849,1.359-1.406c0-0.302-0.109-0.539-0.328-0.711s-0.477-0.258-0.773-0.258
		c-0.302,0-0.566,0.088-0.793,0.262c-0.227,0.175-0.34,0.402-0.34,0.684C16.173,10.52,16.465,10.996,17.048,11.49z"/>
	<path fill="#FFFFFF" d="M31.325,9.707l-3.454,10.107c-0.211,0.621-0.5,1.104-0.866,1.445c-0.366,0.344-0.883,0.515-1.551,0.515
		c-0.264,0-0.647-0.021-1.151-0.062v-1.591l0.958,0.018c0.422,0,0.734-0.069,0.936-0.206c0.202-0.139,0.362-0.383,0.479-0.734
		s0.176-0.557,0.176-0.615c0-0.035-0.062-0.217-0.185-0.545l-3.05-8.332h2.101l2.153,5.854l1.854-5.854H31.325z"/>
</g>
<g>
	<path fill="#FFFFFF" d="M40.358,33.918h-2.285l-1.881-3.234l-2.057,3.234h-1.723l2.953-4.57l-2.558-4.307h2.294l1.459,2.61
		l1.661-2.61h1.679l-2.505,3.85L40.358,33.918z"/>
	<path fill="#FFFFFF" d="M42.696,27.739h-2.145l2.971-5.88h2.681l2.971,5.88h-2.145l-2.171-4.254L42.696,27.739z"/>
	<path fill="#FFFFFF" d="M57.189,25.041l-3.454,10.107c-0.211,0.621-0.5,1.104-0.865,1.445c-0.367,0.344-0.884,0.515-1.552,0.515
		c-0.264,0-0.647-0.021-1.151-0.062v-1.591l0.958,0.018c0.422,0,0.733-0.069,0.937-0.206c0.201-0.139,0.361-0.383,0.479-0.734
		s0.176-0.557,0.176-0.615c0-0.035-0.062-0.217-0.185-0.545l-3.05-8.332h2.101l2.153,5.854l1.854-5.854H57.189z"/>
</g>
<line fill="none" stroke="#FFFFFF" stroke-width="1.7008" x1="37.588" y1="12.673" x2="23.089" y2="34.674"/>
</svg>
