<?xml version="1.0" encoding="utf-8"?>
<!-- Generator: Adobe Illustrator 12.0.1, SVG Export Plug-In . SVG Version: 6.00 Build 51448)  -->
<!DOCTYPE svg PUBLIC "-//W3C//DTD SVG 1.0//EN" "http://www.w3.org/TR/2001/REC-SVG-20010904/DTD/svg10.dtd" [
	<!ENTITY ns_svg "http://www.w3.org/2000/svg">
	<!ENTITY ns_xlink "http://www.w3.org/1999/xlink">
]>
<svg  version="1.0" id="Layer_1" xmlns="&ns_svg;" xmlns:xlink="&ns_xlink;" width="68.318" height="48.607"
	 viewBox="0 0 68.318 48.607" overflow="visible" enable-background="new 0 0 68.318 48.607" xml:space="preserve">
<g>
	<path fill="#199698" stroke="#199698" stroke-width="2" d="M67.319,35.004c0,3.312-2.633,6-5.883,6H14.37
		c-3.25,0-5.883-2.688-5.883-6v-28c0-3.314,2.633-6,5.883-6h47.067c3.25,0,5.883,2.686,5.883,6V35.004z"/>
	<path fill="none" stroke="#FFFFFF" stroke-width="4" d="M62.001,40.611c0,3.312-2.686,6-6,6H8c-3.314,0-6-2.688-6-6V12.609
		c0-3.312,2.686-6,6-6h48c3.314,0,6,2.688,6,6V40.611z"/>
	<path fill="#199698" stroke="#199698" stroke-width="2" d="M62.001,40.611c0,3.312-2.686,6-6,6H8c-3.314,0-6-2.688-6-6V12.609
		c0-3.312,2.686-6,6-6h48c3.314,0,6,2.688,6,6V40.611z"/>
</g>
<g>
	<g>
		<path fill="#FFFFFF" d="M9.843,15.456h16.695l0.322,4.867H26.25c-0.322-1.225-0.871-3.385-4.061-3.385h-7.092l6.479,8.316
			l-7.605,8.863h9.443c2.062,0,3.254-0.451,4.221-3.578h0.645l-1.191,6.607H9.457l9.057-10.539L9.843,15.456z"/>
	</g>
	<g>
		<path fill="#FFFFFF" d="M38.694,28.337h-2.578v-11.27h-3.544v-2.061h9.667v2.061h-3.545V28.337z"/>
	</g>
	<line fill="none" stroke="#FFFFFF" x1="50.575" y1="15.842" x2="36.075" y2="37.842"/>
	<g>
		<path fill="#FFFFFF" d="M50.113,37.337H47.89V25.34h7.585v1.854h-5.361v3.278h4.219v1.802h-4.219V37.337z"/>
	</g>
</g>
</svg>
