<?xml version="1.0" encoding="utf-8"?>
<!-- Generator: Adobe Illustrator 12.0.1, SVG Export Plug-In . SVG Version: 6.00 Build 51448)  -->
<!DOCTYPE svg PUBLIC "-//W3C//DTD SVG 1.0//EN" "http://www.w3.org/TR/2001/REC-SVG-20010904/DTD/svg10.dtd" [
	<!ENTITY ns_svg "http://www.w3.org/2000/svg">
	<!ENTITY ns_xlink "http://www.w3.org/1999/xlink">
]>
<svg  version="1.0" id="Layer_1" xmlns="&ns_svg;" xmlns:xlink="&ns_xlink;" width="62" height="42" viewBox="0 0 62 42"
	 overflow="visible" enable-background="new 0 0 62 42" xml:space="preserve">
<path fill="#199698" stroke="#199698" stroke-width="2" d="M61,35c0,3.314-2.686,6-6,6H7c-3.314,0-6-2.686-6-6V7
	c0-3.312,2.686-6,6-6h48c3.314,0,6,2.688,6,6V35z"/>
<g>
	<path fill="#FFFFFF" d="M18.678,27.853h-3.301l-2.717-4.672L9.69,27.853H7.202l4.266-6.602L7.773,15.03h3.313l2.107,3.771
		l2.399-3.771h2.425L14.4,20.591L18.678,27.853z"/>
	<path fill="#FFFFFF" d="M30.029,18.378v1.958H19.652v-1.958H30.029z M30.029,21.444v1.958H19.652v-1.958H30.029z"/>
	<path fill="#FFFFFF" d="M42.344,18.378v1.958H31.967v-1.958H42.344z M42.344,21.444v1.958H31.967v-1.958H42.344z"/>
	<path fill="#FFFFFF" d="M54.62,15.03l-4.989,14.6c-0.305,0.897-0.722,1.593-1.25,2.089c-0.529,0.494-1.276,0.742-2.241,0.742
		c-0.381,0-0.936-0.029-1.663-0.089v-2.298L45.86,30.1c0.609,0,1.06-0.1,1.353-0.299c0.291-0.198,0.521-0.552,0.691-1.06
		c0.169-0.508,0.254-0.804,0.254-0.889c0-0.051-0.089-0.313-0.267-0.787L43.486,15.03h3.034l3.11,8.455l2.679-8.455H54.62z"/>
</g>
</svg>
