<?xml version="1.0" encoding="utf-8"?>
<!-- Generator: Adobe Illustrator 12.0.1, SVG Export Plug-In . SVG Version: 6.00 Build 51448)  -->
<!DOCTYPE svg PUBLIC "-//W3C//DTD SVG 1.0//EN" "http://www.w3.org/TR/2001/REC-SVG-20010904/DTD/svg10.dtd" [
	<!ENTITY ns_svg "http://www.w3.org/2000/svg">
	<!ENTITY ns_xlink "http://www.w3.org/1999/xlink">
]>
<svg  version="1.0" id="Layer_1" xmlns="&ns_svg;" xmlns:xlink="&ns_xlink;" width="68.318" height="48.608"
	 viewBox="0 0 68.318 48.608" overflow="visible" enable-background="new 0 0 68.318 48.608" xml:space="preserve">
<g>
	<path fill="#199698" stroke="#199698" stroke-width="2" d="M67.318,34.999c0,3.312-2.633,6-5.883,6H14.37
		c-3.25,0-5.883-2.688-5.883-6v-28c0-3.314,2.633-6,5.883-6h47.066c3.25,0,5.883,2.686,5.883,6V34.999z"/>
	<path fill="none" stroke="#FFFFFF" stroke-width="4" d="M62,40.606c0,3.312-2.686,6-6,6H8c-3.314,0-6-2.688-6-6V12.604
		c0-3.312,2.686-6,6-6h48c3.314,0,6,2.688,6,6V40.606z"/>
</g>
<g>
	<path fill="#199698" stroke="#199698" stroke-width="2" d="M62.037,40.606c0,3.314-2.686,6-6,6h-48c-3.314,0-6-2.686-6-6v-28
		c0-3.312,2.686-6,6-6h48c3.314,0,6,2.688,6,6V40.606z"/>
	<g>
		<path fill="#FFFFFF" d="M24.313,33.987h-3.301l-2.717-4.672l-2.971,4.672h-2.488l4.266-6.602l-3.694-6.221h3.313l2.107,3.771
			l2.399-3.771h2.425l-3.618,5.561L24.313,33.987z"/>
		<path fill="#FFFFFF" d="M28.043,27.961c-0.938,0-1.688-0.366-2.251-1.099c-0.563-0.732-0.845-1.626-0.845-2.681
			c0-1.035,0.283-1.902,0.85-2.603c0.566-0.7,1.325-1.05,2.275-1.05c1.061,0,1.847,0.368,2.358,1.104
			c0.511,0.736,0.767,1.576,0.767,2.52c0,1.172-0.306,2.1-0.918,2.783C29.667,27.62,28.922,27.961,28.043,27.961z M28.053,26.516
			c0.898,0,1.348-0.781,1.348-2.344c0-1.484-0.433-2.227-1.299-2.227c-0.879,0-1.318,0.739-1.318,2.217
			C26.784,25.732,27.207,26.516,28.053,26.516z M36.9,20.657l-8.251,13.33h-1.475l8.281-13.33H36.9z M35.924,34.104
			c-0.879,0-1.606-0.34-2.182-1.021c-0.576-0.68-0.864-1.538-0.864-2.573c0-1.191,0.32-2.13,0.962-2.817
			c0.641-0.687,1.378-1.03,2.211-1.03c0.788,0,1.494,0.319,2.119,0.957c0.625,0.639,0.938,1.602,0.938,2.891
			c0,1.081-0.301,1.95-0.903,2.607C37.602,33.776,36.842,34.104,35.924,34.104z M36.002,32.688c0.462,0,0.799-0.223,1.011-0.669
			c0.212-0.445,0.317-0.958,0.317-1.538c0-0.84-0.103-1.44-0.308-1.802s-0.52-0.542-0.942-0.542c-0.925,0-1.387,0.759-1.387,2.275
			C34.693,31.93,35.13,32.688,36.002,32.688z"/>
		<path fill="#FFFFFF" d="M51.054,21.165l-4.989,14.6c-0.305,0.897-0.722,1.594-1.25,2.089c-0.529,0.495-1.276,0.742-2.241,0.742
			c-0.381,0-0.936-0.029-1.663-0.089v-2.298l1.384,0.025c0.609,0,1.061-0.1,1.353-0.298c0.292-0.199,0.522-0.553,0.691-1.061
			s0.254-0.804,0.254-0.889c0-0.051-0.089-0.312-0.267-0.787L39.92,21.165h3.034l3.11,8.455l2.679-8.455H51.054z"/>
	</g>
</g>
</svg>
