<?xml version="1.0" encoding="utf-8"?>
<!-- Generator: Adobe Illustrator 12.0.1, SVG Export Plug-In . SVG Version: 6.00 Build 51448)  -->
<!DOCTYPE svg PUBLIC "-//W3C//DTD SVG 1.0//EN" "http://www.w3.org/TR/2001/REC-SVG-20010904/DTD/svg10.dtd" [
	<!ENTITY ns_svg "http://www.w3.org/2000/svg">
	<!ENTITY ns_xlink "http://www.w3.org/1999/xlink">
]>
<svg  version="1.0" id="Layer_1" xmlns="&ns_svg;" xmlns:xlink="&ns_xlink;" width="68.318" height="48.607"
	 viewBox="0 0 68.318 48.607" overflow="visible" enable-background="new 0 0 68.318 48.607" xml:space="preserve">
<g>
	<path fill="#199698" stroke="#199698" stroke-width="2" d="M67.318,35.004c0,3.312-2.633,6-5.883,6H14.37
		c-3.25,0-5.883-2.688-5.883-6v-28c0-3.314,2.633-6,5.883-6h47.066c3.25,0,5.883,2.686,5.883,6V35.004z"/>
	<path fill="none" stroke="#FFFFFF" stroke-width="4" d="M62,40.611c0,3.312-2.686,6-6,6H8c-3.314,0-6-2.688-6-6V12.609
		c0-3.312,2.686-6,6-6h48c3.314,0,6,2.688,6,6V40.611z"/>
</g>
<g>
	<path fill="#199698" stroke="#199698" stroke-width="2" d="M61.846,40.795c0,3.312-2.686,6-6,6h-48c-3.314,0-6-2.688-6-6V12.793
		c0-3.312,2.686-6,6-6h48c3.314,0,6,2.688,6,6V40.795z"/>
	<g>
		<path fill="#FFFFFF" d="M18.459,16.09h2.945v21.658h-2.945V16.09z"/>
		<path fill="#FFFFFF" d="M37.908,33.419h-3.3l-2.717-4.672l-2.971,4.672h-2.488l4.266-6.602l-3.694-6.221h3.313l2.107,3.771
			l2.399-3.771h2.425l-3.618,5.561L37.908,33.419z"/>
		<path fill="#FFFFFF" d="M42.936,16.09h2.945v21.658h-2.945V16.09z"/>
	</g>
</g>
</svg>
