<?xml version="1.0" encoding="utf-8"?>
<!-- Generator: Adobe Illustrator 12.0.1, SVG Export Plug-In . SVG Version: 6.00 Build 51448)  -->
<!DOCTYPE svg PUBLIC "-//W3C//DTD SVG 1.0//EN" "http://www.w3.org/TR/2001/REC-SVG-20010904/DTD/svg10.dtd" [
	<!ENTITY ns_svg "http://www.w3.org/2000/svg">
	<!ENTITY ns_xlink "http://www.w3.org/1999/xlink">
]>
<svg  version="1.0" id="Layer_1" xmlns="&ns_svg;" xmlns:xlink="&ns_xlink;" width="68.4" height="48.481"
	 viewBox="0 0 68.4 48.481" overflow="visible" enable-background="new 0 0 68.4 48.481" xml:space="preserve">
<path fill="#199698" stroke="#199698" stroke-width="2" d="M67.399,35.004c0,3.312-2.633,6-5.883,6H14.45
	c-3.25,0-5.883-2.688-5.883-6v-28c0-3.314,2.633-6,5.883-6h47.066c3.25,0,5.883,2.686,5.883,6V35.004z"/>
<path fill="none" stroke="#FFFFFF" stroke-width="4" d="M61.999,40.485c0,3.312-2.686,6-6,6h-48c-3.314,0-6-2.688-6-6V12.483
	c0-3.312,2.686-6,6-6h48c3.314,0,6,2.688,6,6V40.485z"/>
<path fill="#199698" stroke="#199698" stroke-width="2" d="M61.997,40.485c0,3.312-2.686,6-6,6H7.995c-3.314,0-6-2.688-6-6V12.483
	c0-3.312,2.686-6,6-6h48.002c3.314,0,6,2.688,6,6V40.485z"/>
<g>
	<polygon fill="#FFFFFF" stroke="#FFFFFF" stroke-linecap="round" points="47.756,37.776 11.819,37.776 47.756,14.734 	"/>
</g>
</svg>
