<?xml version="1.0" encoding="utf-8"?>
<!-- Generator: Adobe Illustrator 12.0.1, SVG Export Plug-In . SVG Version: 6.00 Build 51448)  -->
<!DOCTYPE svg PUBLIC "-//W3C//DTD SVG 1.0//EN" "http://www.w3.org/TR/2001/REC-SVG-20010904/DTD/svg10.dtd" [
	<!ENTITY ns_svg "http://www.w3.org/2000/svg">
	<!ENTITY ns_xlink "http://www.w3.org/1999/xlink">
]>
<svg  version="1.0" id="Layer_1" xmlns="&ns_svg;" xmlns:xlink="&ns_xlink;" width="62" height="42" viewBox="0 0 62 42"
	 overflow="visible" enable-background="new 0 0 62 42" xml:space="preserve">
<path fill="#199698" stroke="#199698" stroke-width="2" d="M61,35c0,3.314-2.686,6-6,6H7c-3.314,0-6-2.686-6-6V7
	c0-3.312,2.686-6,6-6h48c3.314,0,6,2.688,6,6V35z"/>
<g>
	<path fill="#FFFFFF" d="M6.659,25.742H4.655v-8.877h1.811v2.118c0.258-0.826,0.612-1.43,1.063-1.811s0.914-0.571,1.389-0.571
		c0.064,0,0.152,0.003,0.264,0.009v2.153c-1.02,0-1.695,0.325-2.026,0.976s-0.497,1.28-0.497,1.89V25.742z"/>
	<path fill="#FFFFFF" d="M13.989,25.926c-1.312,0-2.314-0.472-3.006-1.415s-1.037-2.024-1.037-3.243
		c0-1.312,0.382-2.405,1.147-3.278s1.774-1.31,3.028-1.31c1.189,0,2.167,0.425,2.931,1.274s1.147,1.954,1.147,3.313
		c0,1.4-0.397,2.526-1.191,3.38C16.214,25.5,15.208,25.926,13.989,25.926z M14.059,24.274c1.348,0,2.021-1.005,2.021-3.015
		c0-0.908-0.161-1.625-0.483-2.149s-0.817-0.787-1.485-0.787c-0.691,0-1.204,0.271-1.538,0.813s-0.501,1.261-0.501,2.158
		c0,0.967,0.177,1.705,0.532,2.215S13.444,24.274,14.059,24.274z"/>
	<path fill="#FFFFFF" d="M27.339,25.742h-1.863v-1.916c-0.504,1.4-1.438,2.101-2.804,2.101c-0.809,0-1.45-0.251-1.925-0.751
		c-0.475-0.502-0.712-1.2-0.712-2.097v-6.214h2.048v5.783c0,0.639,0.141,1.058,0.422,1.257s0.557,0.299,0.826,0.299
		c0.434,0,0.876-0.194,1.327-0.585c0.451-0.389,0.677-1.22,0.677-2.491v-4.263h2.004V25.742z"/>
	<path fill="#FFFFFF" d="M37.095,25.742h-2.004v-5.546c0-0.586-0.135-1.027-0.404-1.323s-0.594-0.444-0.975-0.444
		c-0.521,0-0.979,0.229-1.372,0.686s-0.589,1.146-0.589,2.065v4.562h-2.004v-8.877h1.828v2.057c0.639-1.494,1.535-2.241,2.689-2.241
		c0.779,0,1.446,0.246,2,0.738s0.83,1.356,0.83,2.593V25.742z"/>
	<path fill="#FFFFFF" d="M46.79,25.742h-1.873v-1.793c-0.516,1.318-1.389,1.978-2.619,1.978c-1.09,0-1.924-0.454-2.504-1.362
		s-0.871-2.036-0.871-3.384c0-1.254,0.303-2.347,0.906-3.278s1.461-1.397,2.574-1.397c1.143,0,1.938,0.521,2.383,1.564v-4.324h2.004
		V25.742z M44.786,20.503c0-0.721-0.172-1.282-0.515-1.683s-0.786-0.602-1.331-0.602c-0.592,0-1.055,0.258-1.389,0.773
		s-0.502,1.286-0.502,2.312c0,1.98,0.621,2.971,1.863,2.971c0.492,0,0.928-0.212,1.306-0.638c0.378-0.424,0.567-0.968,0.567-1.63
		V20.503z"/>
	<path fill="#FFFFFF" d="M52.774,28.739h-1.186c-2.016-2.203-3.023-4.755-3.023-7.655c0-1.582,0.336-3.056,1.01-4.421
		s1.346-2.338,2.014-2.918h1.186c-0.961,1.342-1.623,2.597-1.986,3.766s-0.545,2.421-0.545,3.757c0,1.354,0.23,2.683,0.69,3.985
		C51.394,26.558,52.007,27.719,52.774,28.739z"/>
	<path fill="#FFFFFF" d="M53.751,13.745h1.186c2.027,2.215,3.041,4.767,3.041,7.655c0,1.588-0.341,3.064-1.023,4.43
		s-1.355,2.335-2.018,2.909h-1.186c0.961-1.336,1.623-2.589,1.986-3.757c0.363-1.17,0.545-2.425,0.545-3.767
		C56.282,18.526,55.438,16.036,53.751,13.745z"/>
</g>
</svg>
