<?xml version="1.0" encoding="utf-8"?>
<!-- Generator: Adobe Illustrator 12.0.1, SVG Export Plug-In . SVG Version: 6.00 Build 51448)  -->
<!DOCTYPE svg PUBLIC "-//W3C//DTD SVG 1.0//EN" "http://www.w3.org/TR/2001/REC-SVG-20010904/DTD/svg10.dtd" [
	<!ENTITY ns_svg "http://www.w3.org/2000/svg">
	<!ENTITY ns_xlink "http://www.w3.org/1999/xlink">
]>
<svg  version="1.0" id="Layer_1" xmlns="&ns_svg;" xmlns:xlink="&ns_xlink;" width="68.318" height="48.608"
	 viewBox="0 0 68.318 48.608" overflow="visible" enable-background="new 0 0 68.318 48.608" xml:space="preserve">
<g>
	<path fill="#199698" stroke="#199698" stroke-width="2" d="M67.317,34.999c0,3.312-2.633,6-5.883,6H14.368
		c-3.25,0-5.883-2.688-5.883-6v-28c0-3.314,2.633-6,5.883-6h47.066c3.25,0,5.883,2.686,5.883,6V34.999z"/>
	<path fill="none" stroke="#FFFFFF" stroke-width="4" d="M61.999,40.606c0,3.312-2.686,6-6,6h-48c-3.314,0-6-2.688-6-6V12.604
		c0-3.312,2.686-6,6-6h48c3.314,0,6,2.688,6,6V40.606z"/>
	<path fill="#199698" stroke="#199698" stroke-width="2" d="M61.999,40.606c0,3.312-2.686,6-6,6h-48c-3.314,0-6-2.688-6-6V12.604
		c0-3.312,2.686-6,6-6h48c3.314,0,6,2.688,6,6V40.606z"/>
</g>
<g>
	<g>
		<g>
			<line fill="none" stroke="#FFFFFF" stroke-width="1.0345" x1="6.799" y1="40.307" x2="57.2" y2="40.307"/>
		</g>
		<g>
			<line fill="none" stroke="#FFFFFF" stroke-width="0.8551" x1="30.991" y1="40.85" x2="30.991" y2="10.872"/>
		</g>
	</g>
</g>
<path fill="none" stroke="#FFFFFF" stroke-width="2" d="M51.403,39.929h-6.738c-4.939,0-6.574-4.378-7.8-8.056
	c-1.215-3.646-3.687-16.243-5.874-16.243c-2.186,0-4.658,12.598-5.873,16.243c-1.227,3.678-2.859,8.056-7.8,8.056H10.58"/>
</svg>
