<?xml version="1.0" encoding="utf-8"?>
<!-- Generator: Adobe Illustrator 12.0.1, SVG Export Plug-In . SVG Version: 6.00 Build 51448)  -->
<!DOCTYPE svg PUBLIC "-//W3C//DTD SVG 1.0//EN" "http://www.w3.org/TR/2001/REC-SVG-20010904/DTD/svg10.dtd" [
	<!ENTITY ns_svg "http://www.w3.org/2000/svg">
	<!ENTITY ns_xlink "http://www.w3.org/1999/xlink">
]>
<svg  version="1.0" id="Layer_1" xmlns="&ns_svg;" xmlns:xlink="&ns_xlink;" width="62.001" height="42.001"
	 viewBox="0 0 62.001 42.001" overflow="visible" enable-background="new 0 0 62.001 42.001" xml:space="preserve">
<g>
	<path fill="#199698" stroke="#199698" stroke-width="2" d="M61.001,35.001c0,3.312-2.686,6-6,6H7c-3.314,0-6-2.688-6-6V7
		c0-3.312,2.686-6,6-6h48.001c3.314,0,6,2.688,6,6V35.001z"/>
	<g>
		<path fill="#FFFFFF" d="M17.616,10.3h2.945v21.658h-2.945V10.3z"/>
		<path fill="#FFFFFF" d="M37.065,27.629h-3.301l-2.717-4.672l-2.971,4.672h-2.488l4.266-6.602l-3.694-6.221h3.313l2.107,3.771
			l2.399-3.771h2.425l-3.618,5.561L37.065,27.629z"/>
		<path fill="#FFFFFF" d="M42.093,10.3h2.945v21.658h-2.945V10.3z"/>
	</g>
</g>
</svg>
