<?xml version="1.0" encoding="utf-8"?>
<!-- Generator: Adobe Illustrator 12.0.1, SVG Export Plug-In . SVG Version: 6.00 Build 51448)  -->
<!DOCTYPE svg PUBLIC "-//W3C//DTD SVG 1.0//EN" "http://www.w3.org/TR/2001/REC-SVG-20010904/DTD/svg10.dtd" [
	<!ENTITY ns_svg "http://www.w3.org/2000/svg">
	<!ENTITY ns_xlink "http://www.w3.org/1999/xlink">
]>
<svg  version="1.0" id="Layer_1" xmlns="&ns_svg;" xmlns:xlink="&ns_xlink;" width="68.318" height="48.607"
	 viewBox="0 0 68.318 48.607" overflow="visible" enable-background="new 0 0 68.318 48.607" xml:space="preserve">
<g>
	<path fill="#199698" stroke="#199698" stroke-width="2" d="M67.318,34.999c0,3.312-2.633,6-5.883,6H14.37
		c-3.25,0-5.883-2.688-5.883-6v-28c0-3.314,2.633-6,5.883-6h47.066c3.25,0,5.883,2.686,5.883,6V34.999z"/>
	<path fill="none" stroke="#FFFFFF" stroke-width="4" d="M62,40.606c0,3.312-2.686,6-6,6H8c-3.314,0-6-2.688-6-6V12.604
		c0-3.313,2.686-6,6-6h48c3.314,0,6,2.688,6,6V40.606z"/>
	<path fill="#199698" stroke="#199698" stroke-width="2" d="M62,40.606c0,3.312-2.686,6-6,6H8c-3.314,0-6-2.688-6-6V12.604
		c0-3.313,2.686-6,6-6h48c3.314,0,6,2.688,6,6V40.606z"/>
</g>
<g>
	<path fill="#FFFFFF" d="M8.667,30.683H6.663v-8.877h1.811v2.118c0.258-0.826,0.612-1.43,1.063-1.811s0.914-0.571,1.389-0.571
		c0.064,0,0.152,0.003,0.264,0.009v2.153c-1.02,0-1.695,0.325-2.026,0.976s-0.497,1.28-0.497,1.89V30.683z"/>
	<path fill="#FFFFFF" d="M15.997,30.868c-1.312,0-2.314-0.472-3.006-1.415s-1.037-2.024-1.037-3.243
		c0-1.312,0.382-2.405,1.147-3.278s1.774-1.31,3.028-1.31c1.189,0,2.167,0.425,2.931,1.274s1.147,1.954,1.147,3.313
		c0,1.4-0.397,2.527-1.191,3.38S17.216,30.868,15.997,30.868z M16.067,29.215c1.348,0,2.021-1.005,2.021-3.015
		c0-0.908-0.161-1.624-0.483-2.149c-0.322-0.524-0.817-0.787-1.485-0.787c-0.691,0-1.204,0.271-1.538,0.813
		c-0.334,0.542-0.501,1.261-0.501,2.158c0,0.967,0.177,1.705,0.532,2.215S15.452,29.215,16.067,29.215z"/>
	<path fill="#FFFFFF" d="M29.348,30.683h-1.863v-1.916c-0.504,1.4-1.438,2.101-2.804,2.101c-0.809,0-1.45-0.25-1.925-0.751
		s-0.712-1.2-0.712-2.097v-6.214h2.048v5.783c0,0.639,0.141,1.058,0.422,1.257s0.557,0.299,0.826,0.299
		c0.434,0,0.876-0.194,1.327-0.584s0.677-1.221,0.677-2.492v-4.263h2.004V30.683z"/>
	<path fill="#FFFFFF" d="M39.104,30.683H37.1v-5.546c0-0.586-0.135-1.027-0.404-1.323s-0.595-0.444-0.976-0.444
		c-0.521,0-0.979,0.229-1.371,0.686s-0.589,1.146-0.589,2.065v4.562h-2.004v-8.877h1.828v2.057c0.639-1.494,1.535-2.241,2.689-2.241
		c0.779,0,1.445,0.246,1.999,0.738s0.831,1.356,0.831,2.593V30.683z"/>
	<path fill="#FFFFFF" d="M48.798,30.683h-1.872V28.89c-0.516,1.318-1.389,1.978-2.619,1.978c-1.09,0-1.925-0.454-2.505-1.362
		s-0.87-2.036-0.87-3.384c0-1.254,0.302-2.347,0.905-3.278s1.462-1.397,2.575-1.397c1.143,0,1.937,0.521,2.382,1.564v-4.324h2.004
		V30.683z M46.794,25.445c0-0.721-0.172-1.282-0.515-1.683s-0.786-0.602-1.331-0.602c-0.592,0-1.055,0.258-1.389,0.773
		s-0.501,1.286-0.501,2.312c0,1.98,0.621,2.971,1.863,2.971c0.492,0,0.927-0.212,1.305-0.637s0.567-0.969,0.567-1.631V25.445z"/>
	<path fill="#FFFFFF" d="M54.783,33.68h-1.187c-2.016-2.203-3.023-4.755-3.023-7.655c0-1.582,0.337-3.056,1.011-4.421
		s1.345-2.338,2.013-2.918h1.187c-0.961,1.342-1.623,2.597-1.986,3.766s-0.545,2.421-0.545,3.757c0,1.354,0.229,2.683,0.689,3.986
		S54.016,32.661,54.783,33.68z"/>
	<path fill="#FFFFFF" d="M55.759,18.686h1.187c2.027,2.215,3.041,4.767,3.041,7.655c0,1.588-0.342,3.064-1.024,4.43
		s-1.354,2.335-2.017,2.909h-1.187c0.961-1.336,1.623-2.588,1.986-3.757s0.545-2.425,0.545-3.767
		C58.29,23.467,57.446,20.977,55.759,18.686z"/>
</g>
</svg>
