<?xml version="1.0" encoding="utf-8"?>
<!-- Generator: Adobe Illustrator 12.0.1, SVG Export Plug-In . SVG Version: 6.00 Build 51448)  -->
<!DOCTYPE svg PUBLIC "-//W3C//DTD SVG 1.0//EN" "http://www.w3.org/TR/2001/REC-SVG-20010904/DTD/svg10.dtd" [
	<!ENTITY ns_svg "http://www.w3.org/2000/svg">
	<!ENTITY ns_xlink "http://www.w3.org/1999/xlink">
]>
<svg  version="1.0" id="Layer_1" xmlns="&ns_svg;" xmlns:xlink="&ns_xlink;" width="62.001" height="42.002"
	 viewBox="0 0 62.001 42.002" overflow="visible" enable-background="new 0 0 62.001 42.002" xml:space="preserve">
<path fill="#199698" stroke="#199698" stroke-width="2" d="M61.001,35.002c0,3.312-2.686,6-6,6H7c-3.314,0-6-2.688-6-6V7
	c0-3.312,2.686-6,6-6h48.001c3.314,0,6,2.688,6,6V35.002z"/>
<g>
	<g>
		<g>
			<line fill="none" stroke="#FFFFFF" stroke-width="1.0345" x1="6.807" y1="34.703" x2="57.207" y2="34.703"/>
		</g>
		<g>
			<line fill="none" stroke="#FFFFFF" stroke-width="0.8551" x1="30.998" y1="35.246" x2="30.998" y2="5.268"/>
		</g>
	</g>
</g>
<path fill="none" stroke="#FFFFFF" stroke-width="2" d="M51.41,34.325h-6.738c-4.939,0-6.574-4.378-7.8-8.056
	c-1.215-3.646-3.687-16.243-5.874-16.243c-2.186,0-4.658,12.598-5.873,16.243c-1.227,3.678-2.859,8.056-7.8,8.056h-6.738"/>
</svg>
