<?xml version="1.0" encoding="utf-8"?>
<!-- Generator: Adobe Illustrator 12.0.1, SVG Export Plug-In . SVG Version: 6.00 Build 51448)  -->
<!DOCTYPE svg PUBLIC "-//W3C//DTD SVG 1.0//EN" "http://www.w3.org/TR/2001/REC-SVG-20010904/DTD/svg10.dtd" [
	<!ENTITY ns_svg "http://www.w3.org/2000/svg">
	<!ENTITY ns_xlink "http://www.w3.org/1999/xlink">
]>
<svg  version="1.0" id="Layer_1" xmlns="&ns_svg;" xmlns:xlink="&ns_xlink;" width="68.318" height="48.608"
	 viewBox="0 0 68.318 48.608" overflow="visible" enable-background="new 0 0 68.318 48.608" xml:space="preserve">
<g>
	<path fill="#199698" stroke="#199698" stroke-width="2" d="M67.318,34.999c0,3.312-2.633,6-5.883,6H14.37
		c-3.25,0-5.883-2.688-5.883-6v-28c0-3.314,2.633-6,5.883-6h47.066c3.25,0,5.883,2.686,5.883,6V34.999z"/>
	<path fill="none" stroke="#FFFFFF" stroke-width="4" d="M62,40.606c0,3.312-2.686,6-6,6H8c-3.314,0-6-2.688-6-6V12.604
		c0-3.312,2.686-6,6-6h48c3.314,0,6,2.688,6,6V40.606z"/>
</g>
<g>
	<path fill="#199698" stroke="#199698" stroke-width="2" d="M62.238,40.643c0,3.314-2.686,6-6,6h-48c-3.314,0-6-2.686-6-6v-28
		c0-3.312,2.686-6,6-6h48c3.314,0,6,2.688,6,6V40.643z"/>
	<g>
		<g>
			<path fill="#FFFFFF" d="M20.393,16.822l-0.305,4.342l3.936-1.498l0.622,2.285l-4.012,0.889l2.577,3.187l-2.006,1.333
				l-2.006-3.479l-2.019,3.479l-1.993-1.333l2.564-3.187l-4.012-0.889l0.622-2.285l3.936,1.498l-0.292-4.342H20.393z"/>
			<path fill="#FFFFFF" d="M38.483,17L27.146,38.659h-1.803L36.63,17H38.483z"/>
		</g>
		<g>
			<path fill="#FFFFFF" d="M51.452,30.21v2.425H38.604V30.21H51.452z M46.564,27.023c0,0.432-0.152,0.8-0.457,1.104
				s-0.669,0.457-1.092,0.457c-0.432,0-0.8-0.15-1.104-0.451c-0.305-0.3-0.457-0.67-0.457-1.11c0-0.423,0.152-0.787,0.457-1.092
				s0.673-0.457,1.104-0.457c0.423,0,0.787,0.152,1.092,0.457S46.564,26.601,46.564,27.023z M46.564,35.86
				c0,0.423-0.152,0.787-0.457,1.092s-0.669,0.457-1.092,0.457c-0.432,0-0.8-0.152-1.104-0.457s-0.457-0.669-0.457-1.092
				c0-0.432,0.152-0.8,0.457-1.104s0.673-0.457,1.104-0.457c0.423,0,0.787,0.152,1.092,0.457S46.564,35.428,46.564,35.86z"/>
		</g>
	</g>
</g>
</svg>
