<?xml version="1.0" encoding="utf-8"?>
<!-- Generator: Adobe Illustrator 12.0.1, SVG Export Plug-In . SVG Version: 6.00 Build 51448)  -->
<!DOCTYPE svg PUBLIC "-//W3C//DTD SVG 1.0//EN" "http://www.w3.org/TR/2001/REC-SVG-20010904/DTD/svg10.dtd" [
	<!ENTITY ns_svg "http://www.w3.org/2000/svg">
	<!ENTITY ns_xlink "http://www.w3.org/1999/xlink">
]>
<svg  version="1.0" id="Layer_1" xmlns="&ns_svg;" xmlns:xlink="&ns_xlink;" width="62" height="42" viewBox="0 0 62 42"
	 overflow="visible" enable-background="new 0 0 62 42" xml:space="preserve">
<line fill="none" x1="43.16" y1="22.594" x2="59.16" y2="22.594"/>
<path fill="#199698" stroke="#199698" stroke-width="2" d="M61,35c0,3.314-2.686,6-6,6H7c-3.314,0-6-2.686-6-6V7
	c0-3.312,2.686-6,6-6h48c3.314,0,6,2.688,6,6V35z"/>
<g>
	<path fill="#FFFFFF" d="M18.82,11.511l-0.305,4.342l3.936-1.498l0.622,2.285l-4.012,0.889l2.577,3.187l-2.006,1.333l-2.006-3.479
		l-2.019,3.479l-1.993-1.333l2.564-3.187l-4.012-0.889l0.622-2.285l3.936,1.498l-0.292-4.342H18.82z"/>
</g>
<g>
	<path fill="#FFFFFF" d="M49.88,24.898v2.425H37.032v-2.425H49.88z M44.992,21.712c0,0.432-0.152,0.8-0.457,1.104
		s-0.669,0.457-1.092,0.457c-0.432,0-0.8-0.15-1.104-0.451c-0.305-0.3-0.457-0.67-0.457-1.11c0-0.423,0.152-0.787,0.457-1.092
		s0.673-0.457,1.104-0.457c0.423,0,0.787,0.152,1.092,0.457S44.992,21.289,44.992,21.712z M44.992,30.548
		c0,0.423-0.152,0.787-0.457,1.092s-0.669,0.457-1.092,0.457c-0.432,0-0.8-0.152-1.104-0.457s-0.457-0.669-0.457-1.092
		c0-0.432,0.152-0.8,0.457-1.104s0.673-0.457,1.104-0.457c0.423,0,0.787,0.152,1.092,0.457S44.992,30.116,44.992,30.548z"/>
</g>
<line fill="none" stroke="#FFFFFF" stroke-width="1.7008" x1="37.168" y1="11.343" x2="22.669" y2="33.344"/>
</svg>
