<?xml version="1.0" encoding="utf-8"?>
<!-- Generator: Adobe Illustrator 12.0.1, SVG Export Plug-In . SVG Version: 6.00 Build 51448)  -->
<!DOCTYPE svg PUBLIC "-//W3C//DTD SVG 1.0//EN" "http://www.w3.org/TR/2001/REC-SVG-20010904/DTD/svg10.dtd" [
	<!ENTITY ns_svg "http://www.w3.org/2000/svg">
	<!ENTITY ns_xlink "http://www.w3.org/1999/xlink">
]>
<svg  version="1.0" id="Layer_1" xmlns="&ns_svg;" xmlns:xlink="&ns_xlink;" width="62.002" height="42.002"
	 viewBox="0 0 62.002 42.002" overflow="visible" enable-background="new 0 0 62.002 42.002" xml:space="preserve">
<path fill="#199698" stroke="#199698" stroke-width="2" d="M61.002,35.002c0,3.312-2.686,6-6,6H7c-3.314,0-6-2.688-6-6V7
	c0-3.312,2.686-6,6-6h48.002c3.314,0,6,2.688,6,6V35.002z"/>
<g>
	<path fill="#FFFFFF" d="M16.326,11.411l-1.187-0.527c0.375-0.879,0.854-1.527,1.438-1.947c0.582-0.418,1.158-0.628,1.727-0.628
		c0.867,0,1.556,0.409,2.065,1.226c0.51,0.818,0.765,2.064,0.765,3.74c0,2.561-0.531,4.598-1.596,6.113
		c-1.062,1.514-2.321,2.271-3.774,2.271c-0.791,0-1.437-0.27-1.938-0.809c-0.5-0.539-0.751-1.289-0.751-2.25
		c0-1.512,0.577-2.766,1.731-3.762s2.927-1.512,5.317-1.547c-0.012-1.465-0.179-2.475-0.501-3.027
		C19.3,9.71,18.866,9.434,18.321,9.434C17.483,9.434,16.818,10.093,16.326,11.411z M20.088,14.417
		c-1.441,0.07-2.502,0.275-3.182,0.615s-1.225,0.869-1.635,1.586c-0.41,0.719-0.615,1.429-0.615,2.132
		c0,0.516,0.157,0.925,0.47,1.226c0.314,0.303,0.655,0.453,1.024,0.453c0.844,0,1.661-0.496,2.452-1.49
		C19.394,17.946,19.889,16.438,20.088,14.417z"/>
	<path fill="#FFFFFF" d="M29.308,12.536l-3.454,10.107c-0.211,0.621-0.499,1.104-0.866,1.445c-0.365,0.344-0.883,0.515-1.551,0.515
		c-0.264,0-0.647-0.021-1.151-0.062v-1.591l0.958,0.018c0.422,0,0.734-0.069,0.936-0.206c0.203-0.139,0.362-0.383,0.479-0.734
		s0.176-0.557,0.176-0.615c0-0.035-0.062-0.217-0.185-0.545l-3.05-8.332H23.7l2.153,5.854l1.854-5.854H29.308z"/>
</g>
<g>
	<path fill="#FFFFFF" d="M36.324,20.075l-1.188-0.527c0.375-0.879,0.854-1.527,1.438-1.947c0.582-0.418,1.158-0.628,1.727-0.628
		c0.867,0,1.557,0.409,2.066,1.226c0.51,0.818,0.764,2.064,0.764,3.74c0,2.561-0.531,4.598-1.596,6.113
		c-1.062,1.514-2.32,2.271-3.773,2.271c-0.791,0-1.438-0.27-1.939-0.809c-0.5-0.539-0.75-1.289-0.75-2.25
		c0-1.512,0.576-2.766,1.73-3.762s2.928-1.512,5.318-1.547c-0.012-1.465-0.18-2.475-0.502-3.027
		c-0.322-0.555-0.756-0.831-1.301-0.831C37.48,18.098,36.816,18.757,36.324,20.075z M40.086,23.081
		c-1.441,0.07-2.502,0.275-3.182,0.615s-1.225,0.869-1.635,1.586c-0.41,0.719-0.615,1.429-0.615,2.132
		c0,0.516,0.156,0.925,0.469,1.226c0.314,0.303,0.656,0.453,1.025,0.453c0.844,0,1.66-0.496,2.451-1.49
		C39.391,26.61,39.887,25.103,40.086,23.081z"/>
	<path fill="#FFFFFF" d="M49.42,30.077h-2.285l-1.881-3.234l-2.057,3.234h-1.723l2.953-4.57L41.869,21.2h2.295l1.459,2.61l1.66-2.61
		h1.68l-2.506,3.85L49.42,30.077z"/>
</g>
<line fill="none" stroke="#FFFFFF" stroke-width="1.7008" x1="37.473" y1="10.66" x2="22.974" y2="32.661"/>
</svg>
