<?xml version="1.0" encoding="utf-8"?>
<!-- Generator: Adobe Illustrator 12.0.1, SVG Export Plug-In . SVG Version: 6.00 Build 51448)  -->
<!DOCTYPE svg PUBLIC "-//W3C//DTD SVG 1.0//EN" "http://www.w3.org/TR/2001/REC-SVG-20010904/DTD/svg10.dtd" [
	<!ENTITY ns_svg "http://www.w3.org/2000/svg">
	<!ENTITY ns_xlink "http://www.w3.org/1999/xlink">
]>
<svg  version="1.0" id="Layer_1" xmlns="&ns_svg;" xmlns:xlink="&ns_xlink;" width="62" height="42" viewBox="0 0 62 42"
	 overflow="visible" enable-background="new 0 0 62 42" xml:space="preserve">
<g>
	<path fill="#199698" stroke="#199698" stroke-width="2" d="M61,35c0,3.314-2.686,6-6,6H7c-3.314,0-6-2.686-6-6V7
		c0-3.312,2.686-6,6-6h48c3.314,0,6,2.688,6,6V35z"/>
	<g>
		<path fill="#FFFFFF" d="M34.797,9.173l-1.469,6.312h-0.516c-0.069-1.718-0.497-2.999-1.282-3.843
			c-0.786-0.845-1.811-1.267-3.076-1.267c-1.364,0-2.723,0.576-4.077,1.728c-1.354,1.152-2.5,2.913-3.439,5.285
			c-0.761,1.923-1.142,3.821-1.142,5.694c0,1.679,0.417,2.96,1.25,3.844c0.833,0.883,1.975,1.324,3.424,1.324
			c1.174,0,2.244-0.254,3.21-0.761c0.966-0.508,1.942-1.332,2.929-2.474h0.703c-1.212,1.816-2.437,3.091-3.673,3.823
			c-1.237,0.732-2.75,1.099-4.538,1.099c-2.395,0-4.323-0.725-5.785-2.175c-1.461-1.449-2.192-3.341-2.192-5.675
			c0-2.187,0.581-4.273,1.744-6.26c1.162-1.987,2.836-3.593,5.02-4.818c2.184-1.225,4.354-1.838,6.514-1.838
			c0.821,0,1.842,0.176,3.063,0.528c0.625,0.176,1.06,0.264,1.304,0.264c0.489,0,0.982-0.264,1.48-0.792H34.797z"/>
		<path fill="#FFFFFF" d="M46.893,29.486h-3.301l-2.717-4.672l-2.971,4.672h-2.488l4.266-6.602l-3.694-6.221h3.313l2.107,3.771
			l2.399-3.771h2.425l-3.618,5.561L46.893,29.486z"/>
	</g>
</g>
</svg>
