<?xml version="1.0" encoding="utf-8"?>
<!-- Generator: Adobe Illustrator 13.0.0, SVG Export Plug-In . SVG Version: 6.00 Build 14948)  -->
<!DOCTYPE svg PUBLIC "-//W3C//DTD SVG 1.0//EN" "http://www.w3.org/TR/2001/REC-SVG-20010904/DTD/svg10.dtd">
<svg version="1.0" id="Layer_1" xmlns="http://www.w3.org/2000/svg" xmlns:xlink="http://www.w3.org/1999/xlink" x="0px" y="0px"
	 width="63.199px" height="42.861px" viewBox="0 0 63.199 42.861" enable-background="new 0 0 63.199 42.861" xml:space="preserve">
<path fill="#199698" stroke="#199698" stroke-width="2" d="M62.199,35.003c0,3.312-2.686,6-6,6h-48c-3.314,0-6-2.688-6-6V7
	c0-3.312,2.686-6,6-6h48c3.314,0,6,2.688,6,6V35.003z"/>
<path fill="#1B199A" d="M20,40.862c0,1.105-0.895,2-2,2H2c-1.104,0-2-0.895-2-2v-16c0-1.104,0.896-2,2-2h16c1.105,0,2,0.896,2,2
	V40.862z"/>
<text transform="matrix(1 0 0 1 1.9746 39.3684)" fill="#FFFFFF" stroke="#FFFFFF" font-family="'MyriadPro-Regular'" font-size="20">M</text>
</svg>
