<?xml version="1.0" encoding="utf-8"?>
<!-- Generator: Adobe Illustrator 11 Build 196, SVG Export Plug-In . SVG Version: 6.0.0 Build 78)  -->
<!DOCTYPE svg PUBLIC "-//W3C//DTD SVG 1.0//EN"    "http://www.w3.org/TR/2001/REC-SVG-20010904/DTD/svg10.dtd" [
	<!ENTITY ns_flows "http://ns.adobe.com/Flows/1.0/">
	<!ENTITY ns_svg "http://www.w3.org/2000/svg">
	<!ENTITY ns_xlink "http://www.w3.org/1999/xlink">
]>
<svg  xmlns="&ns_svg;" xmlns:xlink="&ns_xlink;" xmlns:a="http://ns.adobe.com/AdobeSVGViewerExtensions/3.0/"
	 width="68.517" height="48.607" viewBox="0 0 68.517 48.607" overflow="visible" enable-background="new 0 0 68.517 48.607"
	 xml:space="preserve">
		<g id="Layer_1">
			<g>
				<path fill="#199698" stroke="#199698" stroke-width="2" d="M67.517,35c0,3.312-2.633,6-5.883,6H14.568
					c-3.25,0-5.883-2.688-5.883-6V7c0-3.314,2.633-6,5.883-6h47.066c3.25,0,5.883,2.686,5.883,6V35z"/>
				<path fill="none" stroke="#FFFFFF" stroke-width="4" d="M62.199,40.607c0,3.312-2.686,6-6,6h-48c-3.314,0-6-2.688-6-6V12.605
					c0-3.312,2.686-6,6-6h48c3.314,0,6,2.688,6,6V40.607z"/>
				<path fill="#199698" stroke="#199698" stroke-width="2" d="M62.199,40.607c0,3.312-2.686,6-6,6h-48c-3.314,0-6-2.688-6-6V12.605
					c0-3.312,2.686-6,6-6h48c3.314,0,6,2.688,6,6V40.607z"/>
			</g>
			<circle fill="#FFFFFF" cx="23.18" cy="19.69" r="5"/> 
			<circle fill="#FFFFFF" cx="16.186" cy="10.735" r="2.952"/> 
			<circle fill="#FFFFFF" cx="9.452" cy="22.84" r="2.952"/> 
			<circle fill="#FFFFFF" cx="34.684" cy="12.291" r="2.952"/> 
			<circle fill="#FFFFFF" cx="28.079" cy="29.827" r="2.952"/> 
			<line fill="none" stroke="#FFFFFF" stroke-width="2" x1="34.684" y1="12.291" x2="23.505" y2="19.133"/>
			<line fill="none" stroke="#FFFFFF" stroke-width="2" x1="28.079" y1="29.827" x2="23.18" y2="19.69"/>
			<path fill="#FFFFFF" d="M48.029,36.621c-0.876,0.634-1.947,1.014-3.113,1.014c-2.957,0-5.355-2.398-5.355-5.355
				s2.399-5.355,5.355-5.355c2.885,0,5.23,2.284,5.343,5.141H46.9l5.359,5.359l5.359-5.359h-3.58
				c-0.114-4.945-4.148-8.921-9.123-8.921c-5.045,0-9.135,4.09-9.135,9.135s4.09,9.135,9.135,9.135c2.213,0,4.236-0.795,5.814-2.107
				L48.029,36.621z"/>
			<line fill="none" stroke="#FFFFFF" stroke-width="2" x1="9.452" y1="22.84" x2="23.18" y2="19.69"/>
			<line fill="none" stroke="#FFFFFF" stroke-width="2" x1="16.186" y1="10.735" x2="23.18" y2="19.69"/>
			<path fill="#1B199A" d="M20,46.468c0,1.104-0.895,2-2,2H2c-1.104,0-2-0.896-2-2v-16c0-1.104,0.896-2,2-2h16c1.105,0,2,0.896,2,2
				V46.468z"/>
			<g>
				<ellipse fill="none" stroke="#FFFFFF" stroke-width="0.7" cx="10.199" cy="38.544" rx="6.879" ry="5.948"/> 
				<ellipse fill="none" stroke="#FFFFFF" stroke-width="0.7" cx="10.137" cy="38.515" rx="3.167" ry="5.967"/> 
				<line fill="none" stroke="#FFFFFF" stroke-width="0.7" x1="3.319" y1="38.544" x2="17.073" y2="38.544"/>
				<path fill="none" stroke="#FFFFFF" stroke-width="0.7" d="M15.497,34.75c-1.322,0.629-3.168,1.019-5.21,1.019
					c-2.156,0-4.093-0.435-5.426-1.126"/>
				<path fill="none" stroke="#FFFFFF" stroke-width="0.7" d="M4.885,42.322c1.327-0.648,3.203-1.054,5.282-1.054
					c2.103,0,3.997,0.413,5.326,1.075"/>
				<line fill="none" stroke="#FFFFFF" stroke-width="0.7" x1="9.999" y1="38.544" x2="9.999" y2="32.551"/>
				<line fill="none" stroke="#FFFFFF" stroke-width="0.7" x1="10" y1="44.546" x2="10" y2="38.552"/>
			</g>
		</g>
	</svg>
