<?xml version="1.0" encoding="utf-8"?>
<!-- Generator: Adobe Illustrator 11 Build 196, SVG Export Plug-In . SVG Version: 6.0.0 Build 78)  -->
<!DOCTYPE svg PUBLIC "-//W3C//DTD SVG 1.0//EN"    "http://www.w3.org/TR/2001/REC-SVG-20010904/DTD/svg10.dtd" [
	<!ENTITY ns_flows "http://ns.adobe.com/Flows/1.0/">
	<!ENTITY ns_svg "http://www.w3.org/2000/svg">
	<!ENTITY ns_xlink "http://www.w3.org/1999/xlink">
]>
<svg  xmlns="&ns_svg;" xmlns:xlink="&ns_xlink;" xmlns:a="http://ns.adobe.com/AdobeSVGViewerExtensions/3.0/"
	 width="68.46" height="48.607" viewBox="0 0 68.46 48.607" overflow="visible" enable-background="new 0 0 68.46 48.607"
	 xml:space="preserve">
		<g id="Layer_1">
			<g>
				<path fill="#199698" stroke="#199698" stroke-width="2" d="M67.46,35c0,3.312-2.633,6-5.883,6H14.511
					c-3.25,0-5.883-2.688-5.883-6V7c0-3.314,2.633-6,5.883-6h47.066c3.25,0,5.883,2.686,5.883,6V35z"/>
				<path fill="none" stroke="#FFFFFF" stroke-width="4" d="M62.142,40.607c0,3.312-2.686,6-6,6h-48c-3.314,0-6-2.688-6-6V12.605
					c0-3.312,2.686-6,6-6h48c3.314,0,6,2.688,6,6V40.607z"/>
				<path fill="#199698" stroke="#199698" stroke-width="2" d="M62.142,40.607c0,3.312-2.686,6-6,6h-48c-3.314,0-6-2.688-6-6V12.605
					c0-3.312,2.686-6,6-6h48c3.314,0,6,2.688,6,6V40.607z"/>
			</g>
			<path fill="#1B199A" d="M20,46.479c0,1.104-0.895,2-2,2H2c-1.104,0-2-0.896-2-2v-16c0-1.104,0.896-2,2-2h16c1.105,0,2,0.896,2,2
				V46.479z"/>
			<g>
				<path fill="#FFFFFF" d="M13.688,43.483H11.91l-1.449-3.835H8.096v3.835H6.414v-9.331h4.047c1.125,0,1.953,0.254,2.481,0.762
					c0.528,0.508,0.793,1.166,0.793,1.972c0,1.199-0.561,2.023-1.682,2.475L13.688,43.483z M8.096,38.301h2.092
					c0.606,0,1.057-0.127,1.354-0.383c0.296-0.255,0.444-0.606,0.444-1.053c0-0.41-0.146-0.742-0.438-0.995
					c-0.292-0.253-0.7-0.379-1.224-0.379H8.096V38.301z"/>
			</g>
		</g>
	</svg>
