<?xml version="1.0" encoding="utf-8"?>
<!-- Generator: Adobe Illustrator 11 Build 196, SVG Export Plug-In . SVG Version: 6.0.0 Build 78)  -->
<!DOCTYPE svg PUBLIC "-//W3C//DTD SVG 1.0//EN"    "http://www.w3.org/TR/2001/REC-SVG-20010904/DTD/svg10.dtd" [
	<!ENTITY ns_flows "http://ns.adobe.com/Flows/1.0/">
	<!ENTITY ns_svg "http://www.w3.org/2000/svg">
	<!ENTITY ns_xlink "http://www.w3.org/1999/xlink">
]>
<svg  xmlns="&ns_svg;" xmlns:xlink="&ns_xlink;" xmlns:a="http://ns.adobe.com/AdobeSVGViewerExtensions/3.0/"
	 width="64.199" height="44.003" viewBox="0 0 64.199 44.003" overflow="visible" enable-background="new 0 0 64.199 44.003"
	 xml:space="preserve">
		<g id="Layer_1">
			<path fill="none" stroke="#FFFFFF" stroke-width="4" d="M62.199,36.003c0,3.312-2.686,6-6,6h-48c-3.315,0-6-2.688-6-6V8
				c0-3.313,2.685-6,6-6h48c3.314,0,6,2.687,6,6V36.003z"/>
			<path fill="#199698" d="M62.199,36.003c0,3.312-2.686,6-6,6h-48c-3.315,0-6-2.688-6-6V8c0-3.313,2.685-6,6-6h48
				c3.314,0,6,2.687,6,6V36.003z"/>
			<path fill="none" stroke="#199698" stroke-width="2" d="M62.199,36.003c0,3.312-2.686,6-6,6h-48c-3.315,0-6-2.688-6-6V8
				c0-3.313,2.685-6,6-6h48c3.314,0,6,2.687,6,6V36.003z"/>
			<g id="XYPLOT">
				<g>
					<line stroke="#FFFFFF" stroke-width="4" x1="10.107" y1="7.999" x2="10.107" y2="35.999"/>
					<line stroke="#FFFFFF" stroke-width="4" x1="54.775" y1="7.999" x2="54.775" y2="35.999"/>
				</g>
				<polyline fill="none" stroke="#FFFFFF" stroke-width="1.9694" points="17.691,8.774 17.691,35.225 17.851,35.272 48.029,35.272 
					"/>
				<polyline fill="none" stroke="#FFFFFF" stroke-width="3" points="17.587,30.404 24.837,24.654 29.754,28.654 34.421,17.654 
					41.087,20.988 46.587,13.404 "/>
			</g>
			<path fill="#1B199A" d="M20,41.862c0,1.105-0.895,2-2,2H2c-1.105,0-2-0.895-2-2v-16c0-1.104,0.895-2,2-2h16c1.105,0,2,0.896,2,2
				V41.862z"/>
			<g>
				<path fill="#FFFFFF" d="M13.702,39.449h-1.904l-1.553-4.109H7.711v4.109H5.909v-9.998h4.336c1.206,0,2.092,0.272,2.659,0.817
					c0.566,0.544,0.85,1.249,0.85,2.113c0,1.284-0.601,2.168-1.802,2.651L13.702,39.449z M7.711,33.897h2.241
					c0.649,0,1.133-0.137,1.45-0.41s0.476-0.649,0.476-1.128c0-0.439-0.156-0.795-0.469-1.065c-0.312-0.271-0.75-0.407-1.311-0.407
					H7.711V33.897z"/>
			</g>
		</g>
	</svg>
