<?xml version="1.0" encoding="utf-8"?>
<!-- Generator: Adobe Illustrator 12.0.1, SVG Export Plug-In . SVG Version: 6.00 Build 51448)  -->
<!DOCTYPE svg PUBLIC "-//W3C//DTD SVG 1.0//EN" "http://www.w3.org/TR/2001/REC-SVG-20010904/DTD/svg10.dtd" [
	<!ENTITY ns_svg "http://www.w3.org/2000/svg">
	<!ENTITY ns_xlink "http://www.w3.org/1999/xlink">
]>
<svg  version="1.0" id="Layer_1" xmlns="&ns_svg;" xmlns:xlink="&ns_xlink;" width="68.318" height="48.607"
	 viewBox="0 0 68.318 48.607" overflow="visible" enable-background="new 0 0 68.318 48.607" xml:space="preserve">
<path fill="#199698" stroke="#199698" stroke-width="2" d="M67.318,35c0,3.312-2.633,6-5.883,6H14.369c-3.25,0-5.883-2.688-5.883-6
	V7c0-3.314,2.633-6,5.883-6h47.066c3.25,0,5.883,2.686,5.883,6V35z"/>
<path fill="none" stroke="#FFFFFF" stroke-width="4" d="M62,40.607c0,3.312-2.686,6-6,6H8c-3.314,0-6-2.688-6-6V12.605
	c0-3.312,2.686-6,6-6h48c3.314,0,6,2.688,6,6V40.607z"/>
<path fill="#199698" stroke="#199698" stroke-width="2" d="M61.805,40.607c0,3.312-2.686,6-6,6h-48c-3.314,0-6-2.688-6-6V12.605
	c0-3.312,2.686-6,6-6h48c3.314,0,6,2.688,6,6V40.607z"/>
<path fill="none" stroke="#FFFFFF" stroke-width="2" stroke-linecap="round" d="M54.303,26.215c-2.55,5.1-7.05,13.5-11.25,13.5
	c-4.199,0-8.699-8.4-11.249-13.5c-2.55-5.099-7.05-13.499-11.25-13.499c-4.199,0-8.699,8.399-11.249,13.499"/>
</svg>
