<?xml version="1.0" encoding="utf-8"?>
<!-- Generator: Adobe Illustrator 12.0.1, SVG Export Plug-In . SVG Version: 6.00 Build 51448)  -->
<!DOCTYPE svg PUBLIC "-//W3C//DTD SVG 1.0//EN" "http://www.w3.org/TR/2001/REC-SVG-20010904/DTD/svg10.dtd" [
	<!ENTITY ns_svg "http://www.w3.org/2000/svg">
	<!ENTITY ns_xlink "http://www.w3.org/1999/xlink">
]>
<svg  version="1.0" id="Layer_1" xmlns="&ns_svg;" xmlns:xlink="&ns_xlink;" width="68.318" height="48.608"
	 viewBox="0 0 68.318 48.608" overflow="visible" enable-background="new 0 0 68.318 48.608" xml:space="preserve">
<g>
	<path fill="#199698" stroke="#199698" stroke-width="2" d="M67.317,35.005c0,3.312-2.633,6-5.883,6H14.368
		c-3.25,0-5.883-2.688-5.883-6V7.004c0-3.314,2.633-6,5.883-6h47.066c3.25,0,5.883,2.686,5.883,6V35.005z"/>
	<path fill="none" stroke="#FFFFFF" stroke-width="4" d="M61.999,40.612c0,3.312-2.686,6-6,6h-48c-3.314,0-6-2.688-6-6V12.609
		c0-3.312,2.686-6,6-6h48c3.314,0,6,2.688,6,6V40.612z"/>
</g>
<g>
	<path fill="#199698" stroke="#199698" stroke-width="2" d="M61.638,40.951c0,3.314-2.686,6-6,6h-48c-3.314,0-6-2.686-6-6v-28
		c0-3.312,2.686-6,6-6h48c3.314,0,6,2.688,6,6V40.951z"/>
	<g>
		<path fill="#FFFFFF" d="M6.264,29.46l1.776-0.34c0.271,0.681,0.869,1.021,1.793,1.021c1.173,0,1.76-0.346,1.76-1.037
			c0-0.222-0.091-0.404-0.274-0.548c-0.183-0.145-0.398-0.241-0.647-0.291l-1.527-0.29c-1.693-0.327-2.54-1.154-2.54-2.482
			c0-0.741,0.268-1.371,0.805-1.889c0.537-0.517,1.336-0.776,2.399-0.776c1.771,0,2.853,0.65,3.246,1.951l-1.685,0.341
			c-0.177-0.631-0.681-0.947-1.511-0.947c-1.007,0-1.511,0.315-1.511,0.947c0,0.437,0.407,0.738,1.22,0.904l1.801,0.374
			c1.4,0.287,2.1,1.09,2.1,2.407c0,0.924-0.36,1.614-1.079,2.07c-0.72,0.457-1.574,0.686-2.565,0.686
			c-0.858,0-1.616-0.174-2.274-0.52S6.463,30.169,6.264,29.46z"/>
		<path fill="#FFFFFF" d="M18.889,29.908v1.478c-0.564,0.122-1.001,0.183-1.312,0.183c-0.509,0-0.946-0.101-1.312-0.303
			s-0.632-0.479-0.801-0.83s-0.253-0.893-0.253-1.623v-4.341h-1.046v-1.469h1.154l0.174-2.183l1.552-0.141v2.324h1.685v1.469h-1.685
			v4.092c0,0.526,0.095,0.884,0.287,1.075c0.19,0.19,0.552,0.286,1.083,0.286C18.565,29.925,18.723,29.92,18.889,29.908z"/>
		<path fill="#FFFFFF" d="M22.375,31.37h-1.893v-8.384h1.71v2.001c0.244-0.781,0.578-1.351,1.004-1.71
			c0.426-0.36,0.863-0.54,1.312-0.54c0.061,0,0.144,0.003,0.249,0.008v2.034c-0.963,0-1.601,0.308-1.913,0.922
			c-0.313,0.614-0.469,1.209-0.469,1.784V31.37z"/>
		<path fill="#FFFFFF" d="M28.003,22.022h-1.893v-1.967h1.893V22.022z M28.003,31.386h-1.893v-8.384h1.893V31.386z"/>
		<path fill="#FFFFFF" d="M37.217,31.386h-1.893v-5.237c0-0.554-0.128-0.97-0.382-1.25c-0.254-0.279-0.562-0.419-0.921-0.419
			c-0.493,0-0.924,0.216-1.295,0.647c-0.371,0.432-0.556,1.082-0.556,1.951v4.308h-1.893v-8.384h1.727v1.942
			c0.603-1.411,1.45-2.117,2.54-2.117c0.735,0,1.365,0.232,1.888,0.697c0.523,0.465,0.785,1.281,0.785,2.449V31.386z"/>
		<path fill="#FFFFFF" d="M47.128,21.4v1.453h-0.581c-0.255,0-0.478,0.03-0.669,0.091c-0.19,0.061-0.377,0.257-0.56,0.589
			c0.664,0.542,0.996,1.146,0.996,1.81c0,0.742-0.312,1.356-0.935,1.843c-0.622,0.487-1.445,0.73-2.469,0.73
			c-0.443,0-0.961-0.071-1.553-0.216c-0.388,0.178-0.581,0.451-0.581,0.822c0,0.204,0.094,0.393,0.282,0.564
			c0.188,0.171,0.474,0.257,0.855,0.257h2.49c0.852,0,1.52,0.22,2.004,0.66c0.484,0.439,0.727,0.986,0.727,1.64
			c0,0.791-0.366,1.446-1.1,1.967s-1.819,0.78-3.258,0.78c-2.706,0-4.06-0.755-4.06-2.266c0-0.747,0.407-1.314,1.221-1.702
			c-0.521-0.442-0.78-0.904-0.78-1.386c0-0.73,0.445-1.312,1.336-1.743c-0.774-0.471-1.162-1.118-1.162-1.942
			c0-0.698,0.285-1.292,0.855-1.785c0.569-0.492,1.436-0.739,2.598-0.739c0.531,0,1.071,0.058,1.619,0.174
			c0.254-1.068,0.927-1.602,2.017-1.602H47.128z M40.753,30.93c-0.271,0.249-0.407,0.489-0.407,0.722
			c0,0.382,0.227,0.718,0.681,1.009c0.454,0.29,1.176,0.436,2.167,0.436c1.455,0,2.183-0.373,2.183-1.12
			c0-0.277-0.127-0.486-0.382-0.627c-0.255-0.142-0.545-0.212-0.871-0.212h-2.009C41.733,31.137,41.279,31.067,40.753,30.93z
			 M42.829,26.796c1.029,0,1.544-0.484,1.544-1.453c0-0.37-0.129-0.684-0.387-0.938c-0.257-0.254-0.632-0.382-1.124-0.382
			c-0.498,0-0.885,0.133-1.158,0.398c-0.274,0.266-0.411,0.598-0.411,0.997c0,0.409,0.136,0.741,0.407,0.996
			C41.97,26.668,42.347,26.796,42.829,26.796z"/>
		<path fill="#FFFFFF" d="M51.677,34.217h-1.121c-1.903-2.081-2.855-4.491-2.855-7.23c0-1.494,0.318-2.886,0.955-4.175
			c0.636-1.29,1.27-2.208,1.9-2.756h1.121c-0.908,1.267-1.533,2.453-1.876,3.557c-0.344,1.104-0.515,2.287-0.515,3.549
			c0,1.278,0.217,2.533,0.651,3.764C50.373,32.156,50.952,33.254,51.677,34.217z"/>
		<path fill="#FFFFFF" d="M52.598,20.055h1.121c1.914,2.092,2.872,4.502,2.872,7.23c0,1.5-0.323,2.895-0.968,4.184
			s-1.279,2.205-1.904,2.748h-1.121c0.907-1.262,1.533-2.445,1.876-3.549c0.343-1.104,0.515-2.29,0.515-3.557
			C54.989,24.571,54.192,22.219,52.598,20.055z"/>
	</g>
</g>
</svg>
