<?xml version="1.0" encoding="utf-8"?>
<!-- Generator: Adobe Illustrator 12.0.1, SVG Export Plug-In . SVG Version: 6.00 Build 51448)  -->
<!DOCTYPE svg PUBLIC "-//W3C//DTD SVG 1.0//EN" "http://www.w3.org/TR/2001/REC-SVG-20010904/DTD/svg10.dtd" [
	<!ENTITY ns_svg "http://www.w3.org/2000/svg">
	<!ENTITY ns_xlink "http://www.w3.org/1999/xlink">
]>
<svg  version="1.0" id="Layer_1" xmlns="&ns_svg;" xmlns:xlink="&ns_xlink;" width="62" height="42" viewBox="0 0 62 42"
	 overflow="visible" enable-background="new 0 0 62 42" xml:space="preserve">
<g>
	<path fill="#199698" stroke="#199698" stroke-width="2" d="M61,35c0,3.314-2.686,6-6,6H7c-3.314,0-6-2.686-6-6V7
		c0-3.313,2.686-6,6-6h48c3.314,0,6,2.687,6,6V35z"/>
	<g>
		<path fill="#FFFFFF" d="M5.625,23.513l1.776-0.341c0.271,0.682,0.869,1.021,1.793,1.021c1.173,0,1.76-0.346,1.76-1.037
			c0-0.222-0.091-0.404-0.274-0.549c-0.183-0.144-0.398-0.24-0.647-0.29l-1.527-0.29c-1.693-0.327-2.54-1.154-2.54-2.482
			c0-0.741,0.268-1.371,0.805-1.889c0.537-0.517,1.336-0.776,2.399-0.776c1.771,0,2.853,0.65,3.246,1.951l-1.685,0.34
			c-0.177-0.631-0.681-0.946-1.511-0.946c-1.007,0-1.511,0.315-1.511,0.946c0,0.437,0.407,0.739,1.22,0.905l1.801,0.374
			c1.4,0.288,2.1,1.09,2.1,2.408c0,0.924-0.36,1.614-1.079,2.07c-0.72,0.457-1.574,0.686-2.565,0.686
			c-0.858,0-1.616-0.174-2.274-0.52S5.824,24.221,5.625,23.513z"/>
		<path fill="#FFFFFF" d="M18.25,23.961v1.478c-0.564,0.122-1.001,0.183-1.312,0.183c-0.509,0-0.946-0.102-1.312-0.303
			c-0.365-0.202-0.632-0.479-0.801-0.83s-0.253-0.893-0.253-1.623v-4.341h-1.046v-1.469h1.154l0.174-2.183l1.552-0.141v2.324h1.685
			v1.469h-1.685v4.092c0,0.526,0.095,0.884,0.287,1.075c0.19,0.19,0.552,0.286,1.083,0.286
			C17.926,23.978,18.084,23.973,18.25,23.961z"/>
		<path fill="#FFFFFF" d="M21.736,25.423h-1.893v-8.384h1.71v2c0.244-0.78,0.578-1.35,1.004-1.71c0.426-0.36,0.863-0.54,1.312-0.54
			c0.061,0,0.144,0.003,0.249,0.008v2.034c-0.963,0-1.601,0.307-1.913,0.921c-0.313,0.614-0.469,1.209-0.469,1.785V25.423z"/>
		<path fill="#FFFFFF" d="M27.364,16.075h-1.893v-1.967h1.893V16.075z M27.364,25.438h-1.893v-8.384h1.893V25.438z"/>
		<path fill="#FFFFFF" d="M36.578,25.438h-1.893v-5.238c0-0.553-0.128-0.97-0.382-1.25c-0.254-0.279-0.562-0.419-0.922-0.419
			c-0.492,0-0.924,0.216-1.294,0.647c-0.371,0.432-0.556,1.082-0.556,1.951v4.308h-1.893v-8.384h1.727v1.942
			c0.603-1.411,1.45-2.117,2.54-2.117c0.736,0,1.365,0.232,1.889,0.697s0.784,1.281,0.784,2.449V25.438z"/>
		<path fill="#FFFFFF" d="M46.489,15.453v1.453h-0.581c-0.255,0-0.478,0.03-0.669,0.091c-0.189,0.061-0.377,0.257-0.56,0.589
			c0.664,0.542,0.996,1.146,0.996,1.81c0,0.742-0.312,1.356-0.935,1.843c-0.621,0.487-1.445,0.73-2.469,0.73
			c-0.443,0-0.961-0.072-1.553-0.216c-0.387,0.177-0.58,0.451-0.58,0.821c0,0.205,0.094,0.394,0.281,0.564
			c0.188,0.172,0.474,0.258,0.855,0.258h2.49c0.852,0,1.52,0.22,2.004,0.66c0.484,0.439,0.727,0.986,0.727,1.639
			c0,0.792-0.366,1.447-1.1,1.968c-0.732,0.521-1.818,0.78-3.258,0.78c-2.706,0-4.059-0.756-4.059-2.266
			c0-0.748,0.406-1.314,1.22-1.702c-0.521-0.442-0.78-0.905-0.78-1.386c0-0.73,0.445-1.312,1.336-1.744
			c-0.774-0.47-1.162-1.117-1.162-1.942c0-0.697,0.285-1.292,0.855-1.785c0.57-0.492,1.436-0.739,2.598-0.739
			c0.531,0,1.071,0.058,1.619,0.174c0.254-1.068,0.927-1.602,2.018-1.602H46.489z M40.114,24.982
			c-0.271,0.248-0.406,0.489-0.406,0.722c0,0.382,0.227,0.718,0.68,1.009c0.454,0.29,1.176,0.436,2.167,0.436
			c1.456,0,2.183-0.373,2.183-1.121c0-0.276-0.127-0.485-0.381-0.626c-0.256-0.142-0.545-0.212-0.872-0.212h-2.009
			C41.094,25.189,40.64,25.12,40.114,24.982z M42.189,20.848c1.029,0,1.544-0.484,1.544-1.453c0-0.371-0.129-0.684-0.387-0.938
			c-0.256-0.254-0.631-0.382-1.124-0.382c-0.498,0-0.884,0.133-1.157,0.398c-0.275,0.266-0.412,0.598-0.412,0.996
			c0,0.41,0.137,0.742,0.407,0.996S41.708,20.848,42.189,20.848z"/>
		<path fill="#FFFFFF" d="M51.038,28.27h-1.121c-1.903-2.081-2.855-4.491-2.855-7.23c0-1.494,0.318-2.886,0.955-4.175
			s1.27-2.208,1.9-2.756h1.121c-0.908,1.267-1.533,2.453-1.876,3.557c-0.343,1.104-0.515,2.287-0.515,3.548
			c0,1.279,0.217,2.533,0.652,3.765C49.733,26.209,50.313,27.307,51.038,28.27z"/>
		<path fill="#FFFFFF" d="M51.96,14.108h1.12c1.915,2.092,2.872,4.502,2.872,7.23c0,1.5-0.322,2.895-0.967,4.184
			s-1.279,2.205-1.905,2.748h-1.12c0.906-1.262,1.532-2.445,1.875-3.549c0.344-1.104,0.516-2.29,0.516-3.557
			C54.351,18.624,53.554,16.271,51.96,14.108z"/>
	</g>
</g>
</svg>
