<?xml version="1.0" encoding="utf-8"?>
<!-- Generator: Adobe Illustrator 12.0.1, SVG Export Plug-In . SVG Version: 6.00 Build 51448)  -->
<!DOCTYPE svg PUBLIC "-//W3C//DTD SVG 1.0//EN" "http://www.w3.org/TR/2001/REC-SVG-20010904/DTD/svg10.dtd" [
	<!ENTITY ns_svg "http://www.w3.org/2000/svg">
	<!ENTITY ns_xlink "http://www.w3.org/1999/xlink">
]>
<svg  version="1.0" id="Layer_1" xmlns="&ns_svg;" xmlns:xlink="&ns_xlink;" width="62" height="42" viewBox="0 0 62 42"
	 overflow="visible" enable-background="new 0 0 62 42" xml:space="preserve">
<g>
	<path fill="#199698" stroke="#199698" stroke-width="2" d="M61,35c0,3.314-2.686,6-6,6H7c-3.314,0-6-2.686-6-6V7
		c0-3.312,2.686-6,6-6h48c3.314,0,6,2.688,6,6V35z"/>
	<ellipse fill="#FFFFFF" cx="30.794" cy="21.005" rx="15.958" ry="15.833"/>
	<line fill="none" stroke="#199698" stroke-width="2" stroke-linecap="round" x1="30.493" y1="5.234" x2="30.493" y2="6.322"/>
	
		<line fill="none" stroke="#199698" stroke-width="2.0016" stroke-linecap="round" x1="45.409" y1="21.427" x2="46.909" y2="21.427"/>
	
		<line fill="none" stroke="#199698" stroke-width="2.0016" stroke-linecap="round" x1="14.659" y1="21.364" x2="16.159" y2="21.364"/>
	
		<line fill="none" stroke="#199698" stroke-width="2.0016" stroke-linecap="round" x1="30.536" y1="36.767" x2="30.536" y2="35.688"/>
	<g>
		
			<line fill="none" stroke="#199698" stroke-width="1.9828" stroke-linecap="round" x1="30.191" y1="22.235" x2="39.432" y2="14.709"/>
		
			<line fill="none" stroke="#199698" stroke-width="1.8211" stroke-linecap="round" x1="25.102" y1="16.63" x2="30.026" y2="21.534"/>
		<circle fill="none" stroke="#199698" stroke-width="1.9828" stroke-linecap="round" cx="30.524" cy="21.442" r="0.938"/>
	</g>
</g>
</svg>
