<?xml version="1.0" encoding="utf-8"?>
<!-- Generator: Adobe Illustrator 12.0.1, SVG Export Plug-In . SVG Version: 6.00 Build 51448)  -->
<!DOCTYPE svg PUBLIC "-//W3C//DTD SVG 1.0//EN" "http://www.w3.org/TR/2001/REC-SVG-20010904/DTD/svg10.dtd" [
	<!ENTITY ns_svg "http://www.w3.org/2000/svg">
	<!ENTITY ns_xlink "http://www.w3.org/1999/xlink">
]>
<svg  version="1.0" id="Layer_1" xmlns="&ns_svg;" xmlns:xlink="&ns_xlink;" width="69.922" height="39.912"
	 viewBox="0 0 69.922 39.912" overflow="visible" enable-background="new 0 0 69.922 39.912" xml:space="preserve">
<ellipse fill="#55ABD7" cx="34.961" cy="19.955" rx="34.961" ry="19.957"/>
<g>
	<path fill="#FFFFFF" d="M39.629,12.563v8.564c0,1.159-0.13,2.051-0.391,2.676c-0.26,0.625-0.764,1.164-1.508,1.616
		c-0.746,0.452-1.656,0.679-2.73,0.679c-1.087,0-1.981-0.195-2.681-0.586c-0.7-0.391-1.203-0.926-1.509-1.606
		c-0.306-0.681-0.459-1.548-0.459-2.603v-8.74h2.451v8.564c0,1.172,0.246,1.941,0.737,2.31c0.491,0.368,1.062,0.552,1.714,0.552
		c0.749,0,1.347-0.197,1.796-0.591s0.674-1.15,0.674-2.271v-8.564H39.629z"/>
</g>
</svg>
