<?xml version="1.0" encoding="utf-8"?>
<!-- Generator: Adobe Illustrator 12.0.1, SVG Export Plug-In . SVG Version: 6.00 Build 51448)  -->
<!DOCTYPE svg PUBLIC "-//W3C//DTD SVG 1.0//EN" "http://www.w3.org/TR/2001/REC-SVG-20010904/DTD/svg10.dtd" [
	<!ENTITY ns_svg "http://www.w3.org/2000/svg">
	<!ENTITY ns_xlink "http://www.w3.org/1999/xlink">
]>
<svg  version="1.0" id="Layer_1" xmlns="&ns_svg;" xmlns:xlink="&ns_xlink;" width="68.317" height="48.607"
	 viewBox="0 0 68.317 48.607" overflow="visible" enable-background="new 0 0 68.317 48.607" xml:space="preserve">
<g>
	<path fill="#199698" stroke="#199698" stroke-width="2" d="M67.317,35c0,3.312-2.633,6-5.883,6H14.369c-3.25,0-5.883-2.688-5.883-6
		V7c0-3.314,2.633-6,5.883-6h47.065c3.25,0,5.883,2.686,5.883,6V35z"/>
	<path fill="none" stroke="#FFFFFF" stroke-width="4" d="M61.999,40.607c0,3.312-2.686,6-6,6H8c-3.314,0-6-2.688-6-6V12.605
		c0-3.312,2.686-6,6-6h47.999c3.314,0,6,2.688,6,6V40.607z"/>
	<path fill="#199698" stroke="#199698" stroke-width="2" d="M61.999,40.607c0,3.312-2.686,6-6,6H8c-3.314,0-6-2.688-6-6V12.605
		c0-3.312,2.686-6,6-6h47.999c3.314,0,6,2.688,6,6V40.607z"/>
</g>
<g>
	<path fill="#FFFFFF" d="M30.31,28.225c-1.936,5.742-8.217,8.812-14.033,6.854c-5.81-1.959-8.956-8.203-7.019-13.945
		c1.935-5.744,8.217-8.812,14.029-6.854C29.099,16.238,32.243,22.48,30.31,28.225z"/>
	
		<rect x="8.668" y="18.493" transform="matrix(0.9477 0.3192 -0.3192 0.9477 8.2118 -3.3374)" fill="#199698" width="11.24" height="9.783"/>
	<path fill="#FFFFFF" d="M54.618,36.414c-0.723,2.145-2.459,3.496-3.877,3.018l-22.433-7.557c-1.416-0.477-1.979-2.602-1.256-4.748
		l0,0c0.721-2.146,2.454-3.498,3.875-3.02l22.431,7.559C54.776,32.141,55.34,34.268,54.618,36.414L54.618,36.414z"/>
</g>
</svg>
