<?xml version="1.0" encoding="utf-8"?>
<!-- Generator: Adobe Illustrator 12.0.1, SVG Export Plug-In . SVG Version: 6.00 Build 51448)  -->
<!DOCTYPE svg PUBLIC "-//W3C//DTD SVG 1.0//EN" "http://www.w3.org/TR/2001/REC-SVG-20010904/DTD/svg10.dtd" [
	<!ENTITY ns_svg "http://www.w3.org/2000/svg">
	<!ENTITY ns_xlink "http://www.w3.org/1999/xlink">
]>
<svg  version="1.0" id="Layer_1" xmlns="&ns_svg;" xmlns:xlink="&ns_xlink;" width="62" height="42" viewBox="0 0 62 42"
	 overflow="visible" enable-background="new 0 0 62 42" xml:space="preserve">
<path fill="#199698" stroke="#199698" stroke-width="2" d="M61,35c0,3.314-2.686,6-6,6H7c-3.314,0-6-2.686-6-6V7
	c0-3.312,2.686-6,6-6h48c3.314,0,6,2.688,6,6V35z"/>
<g>
	<path fill="#FFFFFF" d="M30.144,22.617c-1.936,5.742-8.217,8.812-14.033,6.854c-5.81-1.959-8.956-8.203-7.019-13.945
		c1.935-5.744,8.217-8.812,14.029-6.854C28.933,10.631,32.077,16.873,30.144,22.617z"/>
	
		<rect x="8.502" y="12.886" transform="matrix(0.9477 0.3192 -0.3192 0.9477 6.4132 -3.5778)" fill="#199698" width="11.24" height="9.783"/>
	<path fill="#FFFFFF" d="M54.452,30.807c-0.723,2.145-2.459,3.496-3.877,3.018l-22.433-7.557c-1.416-0.477-1.979-2.602-1.256-4.748
		l0,0c0.721-2.146,2.454-3.498,3.875-3.02l22.431,7.559C54.61,26.533,55.174,28.66,54.452,30.807L54.452,30.807z"/>
</g>
</svg>
