<?xml version="1.0" encoding="utf-8"?>
<!-- Generator: Adobe Illustrator 12.0.1, SVG Export Plug-In . SVG Version: 6.00 Build 51448)  -->
<!DOCTYPE svg PUBLIC "-//W3C//DTD SVG 1.0//EN" "http://www.w3.org/TR/2001/REC-SVG-20010904/DTD/svg10.dtd" [
	<!ENTITY ns_svg "http://www.w3.org/2000/svg">
	<!ENTITY ns_xlink "http://www.w3.org/1999/xlink">
]>
<svg  version="1.0" id="Layer_1" xmlns="&ns_svg;" xmlns:xlink="&ns_xlink;" width="62.002" height="42" viewBox="0 0 62.002 42"
	 overflow="visible" enable-background="new 0 0 62.002 42" xml:space="preserve">
<g>
	<path fill="#199698" stroke="#199698" stroke-width="2" d="M61.002,35c0,3.312-2.686,6-6,6H7c-3.312,0-6-2.688-6-6V7
		c0-3.314,2.688-6,6-6h48.002c3.314,0,6,2.686,6,6V35z"/>
	<g>
		<line fill="none" stroke="#FFFFFF" x1="43.254" y1="13.354" x2="43.254" y2="37.126"/>
		<g>
			<line fill="none" stroke="#FFFFFF" x1="34.156" y1="4.971" x2="34.156" y2="14.658"/>
			<line fill="none" stroke="#FFFFFF" x1="33.664" y1="14.189" x2="43.09" y2="14.189"/>
			<line fill="none" stroke="#FFFFFF" x1="18.258" y1="36.96" x2="43.744" y2="36.96"/>
			<line fill="none" stroke="#FFFFFF" x1="18.559" y1="5.314" x2="34.506" y2="5.314"/>
			<g>
				<path fill="#FFFFFF" d="M31.444,28.44h-2.476v-1.713c0-0.576,0.116-1.029,0.35-1.359c0.232-0.33,0.742-0.799,1.529-1.408
					c1.201-0.923,1.803-1.9,1.803-2.933c0-0.779-0.234-1.396-0.705-1.854c-0.469-0.457-1.081-0.686-1.834-0.686
					c-1.744,0-2.771,1.206-3.085,3.619l-2.768-0.496c0.169-1.803,0.836-3.218,1.999-4.247c1.164-1.028,2.559-1.542,4.184-1.542
					c1.616,0,2.953,0.48,4.012,1.441c1.058,0.961,1.587,2.156,1.587,3.586c0,0.711-0.146,1.386-0.438,2.025
					c-0.291,0.639-0.624,1.135-0.996,1.485c-0.373,0.352-1.16,0.967-2.361,1.847c-0.339,0.246-0.555,0.485-0.647,0.718
					C31.504,27.157,31.453,27.662,31.444,28.44z M31.952,30.243v3.174h-2.983v-3.174H31.952z"/>
			</g>
			<line fill="none" stroke="#FFFFFF" x1="18.736" y1="4.808" x2="18.736" y2="37.417"/>
			<line fill="none" stroke="#FFFFFF" x1="34.176" y1="5.178" x2="43.408" y2="13.72"/>
		</g>
	</g>
</g>
</svg>
