<?xml version="1.0" encoding="utf-8"?>
<!-- Generator: Adobe Illustrator 11 Build 196, SVG Export Plug-In . SVG Version: 6.0.0 Build 78)  -->
<!DOCTYPE svg PUBLIC "-//W3C//DTD SVG 1.0//EN"    "http://www.w3.org/TR/2001/REC-SVG-20010904/DTD/svg10.dtd" [
	<!ENTITY ns_flows "http://ns.adobe.com/Flows/1.0/">
	<!ENTITY ns_svg "http://www.w3.org/2000/svg">
	<!ENTITY ns_xlink "http://www.w3.org/1999/xlink">
]>
<svg  xmlns="&ns_svg;" xmlns:xlink="&ns_xlink;" xmlns:a="http://ns.adobe.com/AdobeSVGViewerExtensions/3.0/"
	 width="63.088" height="42.872" viewBox="0 0 63.088 42.872" overflow="visible" enable-background="new 0 0 63.088 42.872"
	 xml:space="preserve">
		<g id="Layer_1">
			<path fill="#199698" stroke="#199698" stroke-width="2" d="M62.088,35c0,3.313-2.686,6-6,6h-48c-3.314,0-6-2.687-6-6V7
				c0-3.313,2.686-6,6-6h48c3.314,0,6,2.687,6,6V35z"/>
			<path fill="#1B199A" d="M20,40.872c0,1.105-0.895,2-2,2H2c-1.104,0-2-0.895-2-2v-16c0-1.104,0.896-2,2-2h16c1.105,0,2,0.896,2,2
				V40.872z"/>
			<g>
				<ellipse fill="none" stroke="#FFFFFF" stroke-width="0.7" cx="10.122" cy="32.662" rx="6.879" ry="5.948"/> 
				<ellipse fill="none" stroke="#FFFFFF" stroke-width="0.7" cx="10.06" cy="32.634" rx="3.167" ry="5.967"/> 
				<line fill="none" stroke="#FFFFFF" stroke-width="0.7" x1="3.242" y1="32.662" x2="16.996" y2="32.662"/>
				<path fill="none" stroke="#FFFFFF" stroke-width="0.7" d="M15.42,28.868c-1.322,0.628-3.168,1.018-5.21,1.018
					c-2.156,0-4.093-0.435-5.426-1.125"/>
				<path fill="none" stroke="#FFFFFF" stroke-width="0.7" d="M4.808,36.44c1.327-0.649,3.203-1.055,5.282-1.055
					c2.103,0,3.997,0.414,5.326,1.075"/>
				<line fill="none" stroke="#FFFFFF" stroke-width="0.7" x1="9.921" y1="32.662" x2="9.921" y2="26.669"/>
				<line fill="none" stroke="#FFFFFF" stroke-width="0.7" x1="9.923" y1="38.664" x2="9.923" y2="32.671"/>
			</g>
		</g>
	</svg>
