<?xml version="1.0" encoding="utf-8"?>
<!-- Generator: Adobe Illustrator 11 Build 196, SVG Export Plug-In . SVG Version: 6.0.0 Build 78)  -->
<!DOCTYPE svg PUBLIC "-//W3C//DTD SVG 1.0//EN"    "http://www.w3.org/TR/2001/REC-SVG-20010904/DTD/svg10.dtd" [
	<!ENTITY ns_flows "http://ns.adobe.com/Flows/1.0/">
	<!ENTITY ns_svg "http://www.w3.org/2000/svg">
	<!ENTITY ns_xlink "http://www.w3.org/1999/xlink">
]>
<svg  xmlns="&ns_svg;" xmlns:xlink="&ns_xlink;" xmlns:a="http://ns.adobe.com/AdobeSVGViewerExtensions/3.0/"
	 width="68.46" height="48.607" viewBox="0 0 68.46 48.607" overflow="visible" enable-background="new 0 0 68.46 48.607"
	 xml:space="preserve">
		<g id="Layer_1">
			<g>
				<path fill="#199698" stroke="#199698" stroke-width="2" d="M67.46,35c0,3.312-2.633,6-5.883,6H14.511
					c-3.25,0-5.883-2.688-5.883-6V7c0-3.314,2.633-6,5.883-6h47.066c3.25,0,5.883,2.686,5.883,6V35z"/>
				<path fill="none" stroke="#FFFFFF" stroke-width="4" d="M62.142,40.607c0,3.312-2.686,6-6,6h-48c-3.314,0-6-2.688-6-6V12.605
					c0-3.312,2.686-6,6-6h48c3.314,0,6,2.688,6,6V40.607z"/>
				<path fill="#199698" stroke="#199698" stroke-width="2" d="M62.142,40.607c0,3.312-2.686,6-6,6h-48c-3.314,0-6-2.688-6-6V12.605
					c0-3.312,2.686-6,6-6h48c3.314,0,6,2.688,6,6V40.607z"/>
			</g>
			<path fill="#1B199A" d="M20,46.478c0,1.105-0.895,2-2,2H2c-1.104,0-2-0.895-2-2v-16c0-1.104,0.896-2,2-2h16c1.105,0,2,0.896,2,2
				V46.478z"/>
			<g>
				<ellipse fill="none" stroke="#FFFFFF" stroke-width="0.7" cx="10.199" cy="38.554" rx="6.879" ry="5.949"/> 
				<ellipse fill="none" stroke="#FFFFFF" stroke-width="0.7" cx="10.137" cy="38.527" rx="3.167" ry="5.967"/> 
				<line fill="none" stroke="#FFFFFF" stroke-width="0.7" x1="3.319" y1="38.554" x2="17.073" y2="38.554"/>
				<path fill="none" stroke="#FFFFFF" stroke-width="0.7" d="M15.497,34.76c-1.322,0.628-3.168,1.019-5.21,1.019
					c-2.156,0-4.093-0.436-5.426-1.126"/>
				<path fill="none" stroke="#FFFFFF" stroke-width="0.7" d="M4.885,42.333c1.327-0.649,3.203-1.054,5.282-1.054
					c2.103,0,3.997,0.414,5.326,1.074"/>
				<line fill="none" stroke="#FFFFFF" stroke-width="0.7" x1="9.999" y1="38.554" x2="9.999" y2="32.562"/>
				<line fill="none" stroke="#FFFFFF" stroke-width="0.7" x1="10" y1="44.556" x2="10" y2="38.564"/>
			</g>
		</g>
	</svg>
